<?xml version="1.0" encoding="utf-8"?>
<!-- Generator: Adobe Illustrator 25.0.0, SVG Export Plug-In . SVG Version: 6.00 Build 0)  -->
<svg version="1.1" id="Layer_1" xmlns="http://www.w3.org/2000/svg" xmlns:xlink="http://www.w3.org/1999/xlink" x="0px" y="0px"
	 viewBox="0 0 546.02 508.68" style="enable-background:new 0 0 546.02 508.68;" xml:space="preserve">
<style type="text/css">
	.st0{fill:#FFFFFF;}
	.st1{fill:#106F77;}
	.st2{fill:#005773;}
	.st3{fill:none;stroke:#000000;stroke-width:0.2269;}
	.st4{fill:#C69A47;}
	.st5{fill:#DCDDDE;}
	.st6{fill-rule:evenodd;clip-rule:evenodd;fill:#153455;}
	.st7{fill-rule:evenodd;clip-rule:evenodd;fill:#10558E;}
	.st8{fill-rule:evenodd;clip-rule:evenodd;fill:#0187C5;}
	.st9{fill-rule:evenodd;clip-rule:evenodd;fill:#54ADD9;}
	.st10{fill-rule:evenodd;clip-rule:evenodd;fill:#90C9E7;}
	.st11{fill-rule:evenodd;clip-rule:evenodd;fill:#C2E2F3;}
	.st12{fill:#153455;}
	.st13{fill:#3E3B3D;}
	.st14{fill:#52AA35;}
	.st15{fill:#191C35;}
	.st16{fill:#F1851A;}
	.st17{fill:#326DB3;}
	.st18{fill:#0E70A0;}
	.st19{fill:#BF9F5E;}
	.st20{fill:#C9AA71;}
	.st21{fill:#CAB36A;}
	.st22{clip-path:url(#SVGID_2_);fill:#DBC47B;}
	.st23{fill:#DABC7E;}
	.st24{fill:#D3B86F;}
	.st25{fill:#CAAB62;}
	.st26{fill:#EDCC87;}
	.st27{fill:#DDC37A;}
	.st28{clip-path:url(#SVGID_4_);fill:#C9AA63;}
	.st29{clip-path:url(#SVGID_6_);fill:#C9AA72;}
	.st30{clip-path:url(#SVGID_8_);fill:#C9AA72;}
	.st31{clip-path:url(#SVGID_10_);fill:#DEC07F;}
	.st32{clip-path:url(#SVGID_12_);fill:#D8BF76;}
	.st33{clip-path:url(#SVGID_14_);fill:#9B8047;}
	.st34{clip-path:url(#SVGID_16_);fill:#94763B;}
	.st35{clip-path:url(#SVGID_18_);fill:#93783E;}
	.st36{clip-path:url(#SVGID_20_);fill:#B29252;}
	.st37{clip-path:url(#SVGID_22_);fill:#B59961;}
	.st38{clip-path:url(#SVGID_24_);fill:#DABC7E;}
	.st39{clip-path:url(#SVGID_26_);fill:#B29252;}
	.st40{fill:#93783E;}
	.st41{fill:#A88143;}
	.st42{fill:#796937;}
	.st43{fill:#BC9B5B;}
	.st44{clip-path:url(#SVGID_28_);fill:#BC9B5B;}
	.st45{clip-path:url(#SVGID_30_);fill:#9B8047;}
	.st46{fill:#CBAD65;}
	.st47{clip-path:url(#SVGID_32_);fill:#CAAB62;}
	.st48{clip-path:url(#SVGID_34_);fill:#DABC7E;}
	.st49{clip-path:url(#SVGID_36_);fill:#DABC7E;}
	.st50{clip-path:url(#SVGID_38_);fill:#DABC7E;}
	.st51{clip-path:url(#SVGID_40_);fill:#BD9D67;}
	.st52{clip-path:url(#SVGID_42_);fill:#867135;}
	.st53{clip-path:url(#SVGID_44_);fill:#DABC7E;}
	.st54{clip-path:url(#SVGID_46_);fill:#9B8047;}
	.st55{clip-path:url(#SVGID_48_);fill:#B29252;}
	.st56{clip-path:url(#SVGID_50_);fill:#B29252;}
	.st57{clip-path:url(#SVGID_52_);fill:#867135;}
	.st58{clip-path:url(#SVGID_54_);fill:#CAAB62;}
	.st59{clip-path:url(#SVGID_56_);fill:#BD9D67;}
	.st60{clip-path:url(#SVGID_58_);fill:#D3B86F;}
	.st61{clip-path:url(#SVGID_60_);fill:#B29252;}
	.st62{clip-path:url(#SVGID_62_);fill:#C09650;}
	.st63{fill:#C9AA72;}
	.st64{fill:#867135;}
	.st65{fill:#8D6C54;}
	.st66{fill:#7D6233;}
	.st67{fill:#4F3E29;}
	.st68{fill:#3E301E;}
	.st69{fill:#735832;}
	.st70{fill-rule:evenodd;clip-rule:evenodd;fill:#1D7890;}
	.st71{fill:#1D7890;}
	.st72{fill-rule:evenodd;clip-rule:evenodd;fill:url(#SVGID_63_);}
	.st73{fill-rule:evenodd;clip-rule:evenodd;fill:url(#SVGID_64_);}
	.st74{fill-rule:evenodd;clip-rule:evenodd;fill:url(#SVGID_65_);}
	.st75{fill:url(#SVGID_66_);}
	.st76{display:none;fill:none;}
	.st77{fill:url(#SVGID_67_);}
	.st78{fill:url(#SVGID_68_);}
	.st79{display:none;fill:url(#SVGID_69_);}
	.st80{fill:url(#SVGID_70_);}
	.st81{fill:url(#SVGID_71_);}
	.st82{fill:none;}
	.st83{fill:url(#SVGID_72_);}
	.st84{fill:url(#SVGID_73_);}
	.st85{fill:url(#SVGID_74_);}
	.st86{fill:url(#SVGID_75_);}
	.st87{fill:url(#SVGID_76_);}
	.st88{fill:url(#SVGID_77_);}
	.st89{fill:url(#SVGID_78_);}
	.st90{fill:url(#SVGID_79_);}
	.st91{fill:#047180;}
	.st92{fill:url(#SVGID_80_);}
	.st93{fill:#0E518C;}
	.st94{fill:url(#SVGID_81_);}
	.st95{fill:url(#SVGID_82_);}
	.st96{fill:url(#SVGID_83_);}
	.st97{fill:url(#SVGID_84_);}
	.st98{fill:url(#SVGID_85_);}
	.st99{fill:url(#SVGID_86_);}
	.st100{fill:url(#SVGID_87_);}
	.st101{fill:url(#SVGID_88_);}
	.st102{fill:url(#SVGID_89_);}
	.st103{fill:url(#SVGID_90_);}
	.st104{fill:url(#SVGID_91_);}
	.st105{fill:url(#SVGID_92_);}
	.st106{fill:url(#SVGID_93_);}
	.st107{fill:url(#SVGID_94_);}
	.st108{fill:url(#SVGID_95_);}
	.st109{fill:url(#SVGID_96_);}
	.st110{fill:url(#SVGID_97_);}
	.st111{fill:url(#SVGID_98_);}
	.st112{fill:url(#SVGID_99_);}
	.st113{fill:url(#SVGID_100_);}
	.st114{fill:url(#SVGID_101_);}
	.st115{fill:url(#SVGID_102_);}
	.st116{fill:url(#SVGID_103_);}
	.st117{fill:#31578B;}
	.st118{fill:url(#SVGID_104_);}
	.st119{fill:url(#SVGID_105_);}
	.st120{fill:url(#SVGID_106_);}
	.st121{display:none;fill:url(#SVGID_107_);}
	.st122{fill:url(#SVGID_108_);}
	.st123{fill:url(#SVGID_109_);}
	.st124{fill:url(#SVGID_110_);}
	.st125{fill:url(#SVGID_111_);}
	.st126{fill:url(#SVGID_112_);}
	.st127{fill:url(#SVGID_113_);}
	.st128{fill:url(#SVGID_114_);}
	.st129{fill:url(#SVGID_115_);}
	.st130{fill:url(#SVGID_116_);}
	.st131{fill:url(#SVGID_117_);}
	.st132{fill:#015D84;}
	.st133{fill:url(#SVGID_118_);}
	.st134{fill:url(#SVGID_119_);}
	.st135{fill:url(#SVGID_120_);}
	.st136{fill:url(#SVGID_121_);}
	.st137{fill:url(#SVGID_122_);}
	.st138{fill:url(#SVGID_123_);}
	.st139{fill:url(#SVGID_124_);}
	.st140{fill:#005A85;}
	.st141{fill:url(#SVGID_125_);}
	.st142{fill:url(#SVGID_126_);}
	.st143{fill:url(#SVGID_127_);}
	.st144{fill:url(#SVGID_128_);}
	.st145{fill:url(#SVGID_129_);}
	.st146{fill:url(#SVGID_130_);}
	.st147{fill:url(#SVGID_131_);}
	.st148{fill:url(#SVGID_132_);}
	.st149{fill:url(#SVGID_133_);}
	.st150{fill:url(#SVGID_134_);}
	.st151{fill:url(#SVGID_135_);}
	.st152{fill:url(#SVGID_136_);}
	.st153{fill:url(#SVGID_137_);}
	.st154{fill:url(#SVGID_138_);}
	.st155{fill:url(#SVGID_139_);}
	.st156{fill:url(#SVGID_140_);}
	.st157{fill:url(#SVGID_141_);}
	.st158{fill:url(#SVGID_142_);}
	.st159{fill:url(#SVGID_143_);}
	.st160{fill:url(#SVGID_144_);}
	.st161{fill:url(#SVGID_145_);}
	.st162{fill:url(#SVGID_146_);}
	.st163{fill:url(#SVGID_147_);}
	.st164{fill:url(#SVGID_148_);}
	.st165{fill:url(#SVGID_149_);}
	.st166{fill:url(#SVGID_150_);}
	.st167{fill:url(#SVGID_151_);}
	.st168{fill:url(#SVGID_152_);}
	.st169{fill:url(#SVGID_153_);}
	.st170{fill:url(#SVGID_154_);}
	.st171{fill:url(#SVGID_155_);}
	.st172{fill:url(#SVGID_156_);}
	.st173{fill:url(#SVGID_157_);}
	.st174{fill:url(#SVGID_158_);}
	.st175{fill:url(#SVGID_159_);}
	.st176{fill:url(#SVGID_160_);}
	.st177{fill:url(#SVGID_161_);}
	.st178{fill:url(#SVGID_162_);}
	.st179{fill:url(#SVGID_163_);}
	.st180{fill:url(#SVGID_164_);}
	.st181{fill:url(#SVGID_165_);}
	.st182{fill:url(#SVGID_166_);}
	.st183{fill:url(#SVGID_167_);}
	.st184{fill:url(#SVGID_168_);}
	.st185{fill:url(#SVGID_169_);}
	.st186{fill:url(#SVGID_170_);}
	.st187{fill:url(#SVGID_171_);}
	.st188{fill:url(#SVGID_172_);}
	.st189{fill:url(#SVGID_173_);}
	.st190{fill:url(#SVGID_174_);}
	.st191{fill:url(#SVGID_175_);}
	.st192{fill:url(#SVGID_176_);}
	.st193{fill:url(#SVGID_177_);}
	.st194{fill:url(#SVGID_178_);}
	.st195{fill:url(#SVGID_179_);}
	.st196{fill:url(#SVGID_180_);}
	.st197{fill:url(#SVGID_181_);}
	.st198{fill:url(#SVGID_182_);}
	.st199{fill:url(#SVGID_183_);}
	.st200{fill:url(#SVGID_184_);}
	.st201{fill:url(#SVGID_185_);}
	.st202{fill:url(#SVGID_186_);}
	.st203{fill:url(#SVGID_187_);}
	.st204{fill:url(#SVGID_188_);}
	.st205{fill:url(#SVGID_189_);}
	.st206{fill:url(#SVGID_190_);}
	.st207{fill:url(#SVGID_191_);}
	.st208{fill:url(#SVGID_192_);}
	.st209{fill:url(#SVGID_193_);}
	.st210{fill:url(#SVGID_194_);}
	.st211{fill:url(#SVGID_195_);}
	.st212{fill:url(#SVGID_196_);}
	.st213{fill:url(#SVGID_197_);}
	.st214{fill:url(#SVGID_198_);}
	.st215{fill:url(#SVGID_199_);}
	.st216{fill:#007580;}
	.st217{fill:#98989A;}
	.st218{fill-rule:evenodd;clip-rule:evenodd;fill:#3A3636;}
	.st219{fill-rule:evenodd;clip-rule:evenodd;fill:#E18750;}
	.st220{fill:#111D4E;}
	.st221{fill:#FBD42C;}
	.st222{fill:#808184;}
	.st223{fill-rule:evenodd;clip-rule:evenodd;}
	.st224{clip-path:url(#SVGID_201_);}
	.st225{clip-path:url(#SVGID_203_);}
	.st226{clip-path:url(#SVGID_205_);}
	.st227{clip-path:url(#SVGID_207_);}
	.st228{clip-path:url(#SVGID_209_);}
	.st229{clip-path:url(#SVGID_211_);}
	.st230{clip-path:url(#SVGID_213_);}
	.st231{clip-path:url(#SVGID_215_);}
	.st232{clip-path:url(#SVGID_217_);}
	.st233{clip-path:url(#SVGID_219_);}
	.st234{clip-path:url(#SVGID_221_);}
	.st235{clip-path:url(#SVGID_223_);}
	.st236{clip-path:url(#SVGID_225_);}
	.st237{clip-path:url(#SVGID_227_);}
	.st238{clip-path:url(#SVGID_229_);}
	.st239{clip-path:url(#SVGID_231_);}
	.st240{display:none;}
	.st241{fill-rule:evenodd;clip-rule:evenodd;fill:#C6C6C6;}
	.st242{fill-rule:evenodd;clip-rule:evenodd;fill:url(#SVGID_232_);}
	.st243{fill-rule:evenodd;clip-rule:evenodd;fill:#722582;}
	.st244{fill:#00539F;}
	.st245{fill:#ED1C24;}
	.st246{fill:#009D8E;}
</style>
<g>
	<path class="st6" d="M45.83,198.14l18.32,6.22l-2.93,14.69l-25.39-8.61l6.24-10.8C42.99,198.02,44.23,197.6,45.83,198.14"/>
	<path class="st7" d="M19.93,244.56l15.99-14.03l12.4,10.86l-22.18,19.46l-6.85-11.89C18.26,247.19,18.54,245.79,19.93,244.56"/>
	<path class="st8" d="M48.63,292.52l-4.58-22.95l17.16-5.82l6.34,31.82h-15.1C50.21,295.56,49.02,294.53,48.63,292.52"/>
	<path class="st9" d="M107.51,291.57l-24.39-8.27l3.9-19.55l33.8,11.46l-8.31,14.38C111.28,291.72,109.64,292.29,107.51,291.57"/>
	<path class="st10" d="M137.7,237.18l-21.29,18.68l-16.49-14.47l29.52-25.9l9.13,15.83C139.92,233.67,139.57,235.55,137.7,237.18"/>
	<path class="st11" d="M103.79,180.74l6.09,30.55l-22.85,7.75l-8.44-42.36h20.11C101.67,176.69,103.27,178.08,103.79,180.74"/>
	<path class="st12" d="M451.94,274.83h5.82v1.09h-2.28v6.09h-1.25v-6.09h-2.28L451.94,274.83L451.94,274.83z M459.38,274.83h1.76
		l1.99,5.63h0.02l1.93-5.63h1.75v7.18h-1.2v-5.54h-0.02l-1.99,5.54h-1.05l-1.99-5.54h-0.02v5.54h-1.2V274.83z"/>
	<polygon class="st12" points="176.09,262.78 181.8,262.78 181.8,308.9 200.73,308.9 200.73,313.69 176.09,313.69 	"/>
	<path class="st12" d="M205.96,295c0-11.12,6.09-18.77,14.98-18.77c9.27,0,14.51,7.26,14.51,18.77v1.39h-23.71
		c0.16,7.5,4.4,13.29,12.21,13.29c3.4,0,6.5-1.08,8.96-2.47l1.85,4.02c-3.17,2.09-7.57,3.24-11.66,3.24
		C211.6,314.46,205.96,305.65,205.96,295 M229.52,291.98c-0.08-5.56-2.78-11.13-8.58-11.13c-5.56,0-9.04,5.02-9.11,11.13H229.52z"/>
	<path class="st12" d="M266.83,309.59c-2.85,2.7-6.41,4.87-10.97,4.87c-6.64,0-11.58-4.24-11.58-11.27c0-4.87,2.47-8.19,6.18-9.88
		c2.47-1.24,5.4-1.62,9.11-1.78l6.95-0.23v-2.32c0-5.56-3.32-8.03-7.88-8.03c-4.4,0-7.5,1.46-10.04,3.01l-2.16-4.02
		c4.24-2.7,8.8-3.71,12.82-3.71c7.57,0,12.98,3.71,12.98,12.44v12.58c0,7.18,0.24,10.59,0.7,12.44h-5.02L266.83,309.59z
		 M260.1,295.84c-3.17,0.08-5.25,0.54-6.88,1.39c-2.09,1.16-3.17,3.24-3.17,5.64c0,4.02,2.62,6.79,6.8,6.79c4.56,0,7.96-3,9.66-4.78
		v-9.26L260.1,295.84z"/>
	<path class="st12" d="M285.83,277.15h4.78l0.69,4.63c4.02-4.4,7.11-5.57,10.28-5.57c1.47,0,3.01,0.4,3.95,0.93l-2.01,5.18
		c-0.92-0.46-1.86-0.78-3.17-0.78c-2.63,0-5.25,1.62-8.81,5.25v26.88h-5.72V277.15z"/>
	<path class="st12" d="M313.7,277.15h4.78l0.69,4.72c4.02-3.4,8.11-5.65,12.83-5.65c5.71,0,10.8,3.64,10.8,12.83v24.64h-5.64v-22.71
		c0-5.48-1.39-9.66-6.56-9.66c-4.1,0-7.8,2.47-11.2,5.48v26.88h-5.72L313.7,277.15L313.7,277.15z"/>
	<path class="st12" d="M355.4,265.1c0-2.16,1.55-3.86,3.79-3.86c2.32,0,3.86,1.62,3.86,3.86c0,2.16-1.62,3.79-3.86,3.79
		C356.96,268.89,355.4,267.26,355.4,265.1 M356.41,277.15h5.64v36.55h-5.64V277.15z"/>
	<path class="st12" d="M375.66,277.15h4.78l0.7,4.72c4.02-3.4,8.11-5.65,12.82-5.65c5.72,0,10.82,3.64,10.82,12.83v24.64h-5.64
		v-22.71c0-5.48-1.39-9.66-6.57-9.66c-4.09,0-7.79,2.47-11.2,5.48v26.88h-5.72V277.15z"/>
	<path class="st12" d="M414.35,321.48c0-3.7,2.16-7.18,6.8-9.43c-1.62-0.92-2.62-2.62-2.62-4.56c0-1.7,0.7-4.33,3.87-7.18
		c-3.4-2.23-5.64-6.09-5.64-11.04c0-7.34,5.57-12.97,13.44-12.97c3.17,0,5.33,0.7,6.87,1.39c0.39,0.16,0.54,0.16,0.78-0.07
		c1.77-1.77,4.17-3.02,7.5-3.02c0.92,0,1.85,0.16,2.23,0.23l-1.39,4.49c-0.69-0.16-1.39-0.23-2.09-0.23c-1.23,0-2.47,0.31-3.55,1
		c2.78,2.47,4.17,5.95,4.17,9.43c0,7.88-5.72,13.21-14.14,13.21c-1.78,0-3.41-0.31-4.79-0.78c-1.39,1.55-1.93,2.86-1.93,4.17
		c0,7.26,24.11,0.86,24.11,14.45c0,6.87-6.71,11.43-17.62,11.43C420.68,332,414.35,328.13,414.35,321.48 M442.24,321.18
		c0-6.64-10.89-5.48-17.62-7.49c-1.86,1.24-5.02,3.32-5.02,6.88c0,4.4,4.63,6.94,11.21,6.94
		C438.53,327.51,442.24,324.66,442.24,321.18 M438.91,289.44c0-4.87-3.39-8.42-8.26-8.42c-4.87,0-8.26,3.25-8.26,8.34
		c0,5.02,3.08,8.65,8.26,8.65C435.37,298.01,438.91,295,438.91,289.44"/>
	<path class="st12" d="M209.77,238.5c-4.97,2.64-9.94,3.69-14.75,3.69c-15.8,0-25.18-11.06-25.18-26.54
		c0-15.4,10.58-27.5,26.23-27.5c5.61,0,10.42,1.28,13.06,2.8v5.61c-3.69-2-7.62-3.28-13-3.28c-12.34,0-20.04,9.46-20.04,21.89
		c0,12.91,7.46,21.9,19.48,21.9c4.89,0,8.98-1.36,12.59-3.28L209.77,238.5z"/>
	<polygon class="st12" points="227.73,188.55 253.23,188.55 251.37,193.53 233.66,193.53 233.66,211.88 251.05,211.88 
		251.05,216.78 233.66,216.78 233.66,236.43 253.7,236.43 253.7,241.39 227.73,241.39 	"/>
	<path class="st12" d="M273.27,188.55h5.69l24.53,32.07c3.36,4.49,5.86,8.02,7.61,10.75h0.16c-0.07-2.89-0.16-5.21-0.16-9.3v-33.52
		h5.93v52.84h-4.96l-25.5-33.36c-3.21-4.16-5.62-7.53-7.46-10.18h-0.16c0.16,2.65,0.25,4.89,0.25,9.06v34.47h-5.94L273.27,188.55
		L273.27,188.55z"/>
	<path class="st12" d="M369.8,219.67h-12.52l-1.76-4.97h20.13v23.5c-3.53,1.84-9.94,4.01-17.32,4.01
		c-15.72,0-26.06-10.98-26.06-26.46c0-16.2,10.91-27.59,27.26-27.59c6.18,0,11.3,1.53,14.43,2.81v5.61
		c-3.77-1.93-8.42-3.37-14.12-3.37c-13.63,0.01-21.33,9.06-21.33,21.9c0,13.55,8.02,21.97,20.53,21.97c4.4,0,8.34-0.96,10.75-2.17
		L369.8,219.67L369.8,219.67z"/>
	<path class="st12" d="M406.52,188.4h4.02l20.2,52.99h-6.33l-5.29-14.18h-21.18l-5.21,14.18h-6.25L406.52,188.4z M417.26,222.23
		l-5.53-15.24c-1.61-4.65-2.49-7.13-3.13-9.15h-0.15c-0.57,2.01-1.53,4.49-3.21,9.15l-5.46,15.24H417.26z"/>
	<path class="st12" d="M477.96,219.67h-12.51l-1.76-4.97h20.12v23.5c-3.52,1.84-9.94,4.01-17.31,4.01
		c-15.72,0-26.06-10.98-26.06-26.46c0-16.2,10.9-27.59,27.26-27.59c6.18,0,11.31,1.53,14.43,2.81v5.61
		c-3.76-1.93-8.41-3.37-14.11-3.37c-13.62,0-21.33,9.06-21.33,21.89c0,13.55,8.02,21.97,20.53,21.97c4.41,0,8.35-0.96,10.75-2.17
		L477.96,219.67L477.96,219.67z"/>
	<polygon class="st12" points="501.38,188.55 526.87,188.55 525.03,193.53 507.3,193.53 507.3,211.88 524.7,211.88 524.7,216.78 
		507.3,216.78 507.3,236.43 527.35,236.43 527.35,241.39 501.38,241.39 	"/>
</g>
</svg>
