<?xml version="1.0" encoding="utf-8"?>
<!-- Generator: Adobe Illustrator 25.0.0, SVG Export Plug-In . SVG Version: 6.00 Build 0)  -->
<svg version="1.1" id="Layer_1" xmlns="http://www.w3.org/2000/svg" xmlns:xlink="http://www.w3.org/1999/xlink" x="0px" y="0px"
	 viewBox="0 0 546.02 508.68" style="enable-background:new 0 0 546.02 508.68;" xml:space="preserve">
<style type="text/css">
	.st0{fill:#FFFFFF;}
	.st1{fill:#106F77;}
	.st2{fill:#005773;}
	.st3{fill:none;stroke:#000000;stroke-width:0.2269;}
	.st4{fill:#C69A47;}
	.st5{fill:#DCDDDE;}
	.st6{fill-rule:evenodd;clip-rule:evenodd;fill:#153455;}
	.st7{fill-rule:evenodd;clip-rule:evenodd;fill:#10558E;}
	.st8{fill-rule:evenodd;clip-rule:evenodd;fill:#0187C5;}
	.st9{fill-rule:evenodd;clip-rule:evenodd;fill:#54ADD9;}
	.st10{fill-rule:evenodd;clip-rule:evenodd;fill:#90C9E7;}
	.st11{fill-rule:evenodd;clip-rule:evenodd;fill:#C2E2F3;}
	.st12{fill:#153455;}
	.st13{fill:#3E3B3D;}
	.st14{fill:#52AA35;}
	.st15{fill:#191C35;}
	.st16{fill:#F1851A;}
	.st17{fill:#326DB3;}
	.st18{fill:#0E70A0;}
	.st19{fill:#BF9F5E;}
	.st20{fill:#C9AA71;}
	.st21{fill:#CAB36A;}
	.st22{clip-path:url(#SVGID_2_);fill:#DBC47B;}
	.st23{fill:#DABC7E;}
	.st24{fill:#D3B86F;}
	.st25{fill:#CAAB62;}
	.st26{fill:#EDCC87;}
	.st27{fill:#DDC37A;}
	.st28{clip-path:url(#SVGID_4_);fill:#C9AA63;}
	.st29{clip-path:url(#SVGID_6_);fill:#C9AA72;}
	.st30{clip-path:url(#SVGID_8_);fill:#C9AA72;}
	.st31{clip-path:url(#SVGID_10_);fill:#DEC07F;}
	.st32{clip-path:url(#SVGID_12_);fill:#D8BF76;}
	.st33{clip-path:url(#SVGID_14_);fill:#9B8047;}
	.st34{clip-path:url(#SVGID_16_);fill:#94763B;}
	.st35{clip-path:url(#SVGID_18_);fill:#93783E;}
	.st36{clip-path:url(#SVGID_20_);fill:#B29252;}
	.st37{clip-path:url(#SVGID_22_);fill:#B59961;}
	.st38{clip-path:url(#SVGID_24_);fill:#DABC7E;}
	.st39{clip-path:url(#SVGID_26_);fill:#B29252;}
	.st40{fill:#93783E;}
	.st41{fill:#A88143;}
	.st42{fill:#796937;}
	.st43{fill:#BC9B5B;}
	.st44{clip-path:url(#SVGID_28_);fill:#BC9B5B;}
	.st45{clip-path:url(#SVGID_30_);fill:#9B8047;}
	.st46{fill:#CBAD65;}
	.st47{clip-path:url(#SVGID_32_);fill:#CAAB62;}
	.st48{clip-path:url(#SVGID_34_);fill:#DABC7E;}
	.st49{clip-path:url(#SVGID_36_);fill:#DABC7E;}
	.st50{clip-path:url(#SVGID_38_);fill:#DABC7E;}
	.st51{clip-path:url(#SVGID_40_);fill:#BD9D67;}
	.st52{clip-path:url(#SVGID_42_);fill:#867135;}
	.st53{clip-path:url(#SVGID_44_);fill:#DABC7E;}
	.st54{clip-path:url(#SVGID_46_);fill:#9B8047;}
	.st55{clip-path:url(#SVGID_48_);fill:#B29252;}
	.st56{clip-path:url(#SVGID_50_);fill:#B29252;}
	.st57{clip-path:url(#SVGID_52_);fill:#867135;}
	.st58{clip-path:url(#SVGID_54_);fill:#CAAB62;}
	.st59{clip-path:url(#SVGID_56_);fill:#BD9D67;}
	.st60{clip-path:url(#SVGID_58_);fill:#D3B86F;}
	.st61{clip-path:url(#SVGID_60_);fill:#B29252;}
	.st62{clip-path:url(#SVGID_62_);fill:#C09650;}
	.st63{fill:#C9AA72;}
	.st64{fill:#867135;}
	.st65{fill:#8D6C54;}
	.st66{fill:#7D6233;}
	.st67{fill:#4F3E29;}
	.st68{fill:#3E301E;}
	.st69{fill:#735832;}
	.st70{fill-rule:evenodd;clip-rule:evenodd;fill:#1D7890;}
	.st71{fill:#1D7890;}
	.st72{fill-rule:evenodd;clip-rule:evenodd;fill:url(#SVGID_63_);}
	.st73{fill-rule:evenodd;clip-rule:evenodd;fill:url(#SVGID_64_);}
	.st74{fill-rule:evenodd;clip-rule:evenodd;fill:url(#SVGID_65_);}
	.st75{fill:url(#SVGID_66_);}
	.st76{display:none;fill:none;}
	.st77{fill:url(#SVGID_67_);}
	.st78{fill:url(#SVGID_68_);}
	.st79{display:none;fill:url(#SVGID_69_);}
	.st80{fill:url(#SVGID_70_);}
	.st81{fill:url(#SVGID_71_);}
	.st82{fill:none;}
	.st83{fill:url(#SVGID_72_);}
	.st84{fill:url(#SVGID_73_);}
	.st85{fill:url(#SVGID_74_);}
	.st86{fill:url(#SVGID_75_);}
	.st87{fill:url(#SVGID_76_);}
	.st88{fill:url(#SVGID_77_);}
	.st89{fill:url(#SVGID_78_);}
	.st90{fill:url(#SVGID_79_);}
	.st91{fill:#047180;}
	.st92{fill:url(#SVGID_80_);}
	.st93{fill:#0E518C;}
	.st94{fill:url(#SVGID_81_);}
	.st95{fill:url(#SVGID_82_);}
	.st96{fill:url(#SVGID_83_);}
	.st97{fill:url(#SVGID_84_);}
	.st98{fill:url(#SVGID_85_);}
	.st99{fill:url(#SVGID_86_);}
	.st100{fill:url(#SVGID_87_);}
	.st101{fill:url(#SVGID_88_);}
	.st102{fill:url(#SVGID_89_);}
	.st103{fill:url(#SVGID_90_);}
	.st104{fill:url(#SVGID_91_);}
	.st105{fill:url(#SVGID_92_);}
	.st106{fill:url(#SVGID_93_);}
	.st107{fill:url(#SVGID_94_);}
	.st108{fill:url(#SVGID_95_);}
	.st109{fill:url(#SVGID_96_);}
	.st110{fill:url(#SVGID_97_);}
	.st111{fill:url(#SVGID_98_);}
	.st112{fill:url(#SVGID_99_);}
	.st113{fill:url(#SVGID_100_);}
	.st114{fill:url(#SVGID_101_);}
	.st115{fill:url(#SVGID_102_);}
	.st116{fill:url(#SVGID_103_);}
	.st117{fill:#31578B;}
	.st118{fill:url(#SVGID_104_);}
	.st119{fill:url(#SVGID_105_);}
	.st120{fill:url(#SVGID_106_);}
	.st121{display:none;fill:url(#SVGID_107_);}
	.st122{fill:url(#SVGID_108_);}
	.st123{fill:url(#SVGID_109_);}
	.st124{fill:url(#SVGID_110_);}
	.st125{fill:url(#SVGID_111_);}
	.st126{fill:url(#SVGID_112_);}
	.st127{fill:url(#SVGID_113_);}
	.st128{fill:url(#SVGID_114_);}
	.st129{fill:url(#SVGID_115_);}
	.st130{fill:url(#SVGID_116_);}
	.st131{fill:url(#SVGID_117_);}
	.st132{fill:#015D84;}
	.st133{fill:url(#SVGID_118_);}
	.st134{fill:url(#SVGID_119_);}
	.st135{fill:url(#SVGID_120_);}
	.st136{fill:url(#SVGID_121_);}
	.st137{fill:url(#SVGID_122_);}
	.st138{fill:url(#SVGID_123_);}
	.st139{fill:url(#SVGID_124_);}
	.st140{fill:#005A85;}
	.st141{fill:url(#SVGID_125_);}
	.st142{fill:url(#SVGID_126_);}
	.st143{fill:url(#SVGID_127_);}
	.st144{fill:url(#SVGID_128_);}
	.st145{fill:url(#SVGID_129_);}
	.st146{fill:url(#SVGID_130_);}
	.st147{fill:url(#SVGID_131_);}
	.st148{fill:url(#SVGID_132_);}
	.st149{fill:url(#SVGID_133_);}
	.st150{fill:url(#SVGID_134_);}
	.st151{fill:url(#SVGID_135_);}
	.st152{fill:url(#SVGID_136_);}
	.st153{fill:url(#SVGID_137_);}
	.st154{fill:url(#SVGID_138_);}
	.st155{fill:url(#SVGID_139_);}
	.st156{fill:url(#SVGID_140_);}
	.st157{fill:url(#SVGID_141_);}
	.st158{fill:url(#SVGID_142_);}
	.st159{fill:url(#SVGID_143_);}
	.st160{fill:url(#SVGID_144_);}
	.st161{fill:url(#SVGID_145_);}
	.st162{fill:url(#SVGID_146_);}
	.st163{fill:url(#SVGID_147_);}
	.st164{fill:url(#SVGID_148_);}
	.st165{fill:url(#SVGID_149_);}
	.st166{fill:url(#SVGID_150_);}
	.st167{fill:url(#SVGID_151_);}
	.st168{fill:url(#SVGID_152_);}
	.st169{fill:url(#SVGID_153_);}
	.st170{fill:url(#SVGID_154_);}
	.st171{fill:url(#SVGID_155_);}
	.st172{fill:url(#SVGID_156_);}
	.st173{fill:url(#SVGID_157_);}
	.st174{fill:url(#SVGID_158_);}
	.st175{fill:url(#SVGID_159_);}
	.st176{fill:url(#SVGID_160_);}
	.st177{fill:url(#SVGID_161_);}
	.st178{fill:url(#SVGID_162_);}
	.st179{fill:url(#SVGID_163_);}
	.st180{fill:url(#SVGID_164_);}
	.st181{fill:url(#SVGID_165_);}
	.st182{fill:url(#SVGID_166_);}
	.st183{fill:url(#SVGID_167_);}
	.st184{fill:url(#SVGID_168_);}
	.st185{fill:url(#SVGID_169_);}
	.st186{fill:url(#SVGID_170_);}
	.st187{fill:url(#SVGID_171_);}
	.st188{fill:url(#SVGID_172_);}
	.st189{fill:url(#SVGID_173_);}
	.st190{fill:url(#SVGID_174_);}
	.st191{fill:url(#SVGID_175_);}
	.st192{fill:url(#SVGID_176_);}
	.st193{fill:url(#SVGID_177_);}
	.st194{fill:url(#SVGID_178_);}
	.st195{fill:url(#SVGID_179_);}
	.st196{fill:url(#SVGID_180_);}
	.st197{fill:url(#SVGID_181_);}
	.st198{fill:url(#SVGID_182_);}
	.st199{fill:url(#SVGID_183_);}
	.st200{fill:url(#SVGID_184_);}
	.st201{fill:url(#SVGID_185_);}
	.st202{fill:url(#SVGID_186_);}
	.st203{fill:url(#SVGID_187_);}
	.st204{fill:url(#SVGID_188_);}
	.st205{fill:url(#SVGID_189_);}
	.st206{fill:url(#SVGID_190_);}
	.st207{fill:url(#SVGID_191_);}
	.st208{fill:url(#SVGID_192_);}
	.st209{fill:url(#SVGID_193_);}
	.st210{fill:url(#SVGID_194_);}
	.st211{fill:url(#SVGID_195_);}
	.st212{fill:url(#SVGID_196_);}
	.st213{fill:url(#SVGID_197_);}
	.st214{fill:url(#SVGID_198_);}
	.st215{fill:url(#SVGID_199_);}
	.st216{fill:#007580;}
	.st217{fill:#98989A;}
	.st218{fill-rule:evenodd;clip-rule:evenodd;fill:#3A3636;}
	.st219{fill-rule:evenodd;clip-rule:evenodd;fill:#E18750;}
	.st220{fill:#111D4E;}
	.st221{fill:#FBD42C;}
	.st222{fill:#808184;}
	.st223{fill-rule:evenodd;clip-rule:evenodd;}
	.st224{clip-path:url(#SVGID_201_);}
	.st225{clip-path:url(#SVGID_203_);}
	.st226{clip-path:url(#SVGID_205_);}
	.st227{clip-path:url(#SVGID_207_);}
	.st228{clip-path:url(#SVGID_209_);}
	.st229{clip-path:url(#SVGID_211_);}
	.st230{clip-path:url(#SVGID_213_);}
	.st231{clip-path:url(#SVGID_215_);}
	.st232{clip-path:url(#SVGID_217_);}
	.st233{clip-path:url(#SVGID_219_);}
	.st234{clip-path:url(#SVGID_221_);}
	.st235{clip-path:url(#SVGID_223_);}
	.st236{clip-path:url(#SVGID_225_);}
	.st237{clip-path:url(#SVGID_227_);}
	.st238{clip-path:url(#SVGID_229_);}
	.st239{clip-path:url(#SVGID_231_);}
	.st240{display:none;}
	.st241{fill-rule:evenodd;clip-rule:evenodd;fill:#C6C6C6;}
	.st242{fill-rule:evenodd;clip-rule:evenodd;fill:url(#SVGID_232_);}
	.st243{fill-rule:evenodd;clip-rule:evenodd;fill:#722582;}
	.st244{fill:#00539F;}
	.st245{fill:#ED1C24;}
	.st246{fill:#009D8E;}
</style>
<g>
	<g>
		<path class="st17" d="M137.64,237.77c-0.69-8.15-4.12-14.96-9.92-19.72c-3.72-3.05-8.22-5.03-13.19-5.87l-1.39,6.8
			c3.59,0.82,6.85,2.4,9.62,4.67c4.85,3.97,7.85,9.9,8.42,16.66c0.76,9.02-2.68,18.66-9.46,26.47c-5.73,6.59-13.26,11.13-21,12.84
			l-1.35,6.57c9.78-1.96,19.35-7.64,26.62-16C134.33,260.6,138.58,248.78,137.64,237.77z"/>
		<path class="st17" d="M119.7,265.04c6.31-7.26,9.52-16.19,8.82-24.49c-0.52-6.12-3.1-11.26-7.45-14.82
			c-2.43-1.99-5.3-3.37-8.46-4.12l-0.99,4.81c2.19,0.69,4.21,1.77,5.96,3.21c3.75,3.07,6.06,7.64,6.5,12.85
			c0.59,6.93-2.06,14.33-7.25,20.31c-4.02,4.63-9.2,7.93-14.6,9.45l-0.92,4.51C108.08,274.99,114.63,270.88,119.7,265.04z"/>
		<path class="st17" d="M128.06,293.6l2.37-11.58c-4.97,4.77-10.54,8.67-16.42,11.58H128.06z"/>
		<path class="st17" d="M127.99,271.93c-7.93,9.12-18.48,15.21-29.2,17.07l-0.95,4.59h9.49c8.82-3.28,17.19-8.91,24.09-16.39
			l2.93-14.27C132.59,266.08,130.46,269.11,127.99,271.93z"/>
		<path class="st17" d="M109.51,256.69c3.01-3.46,4.54-7.72,4.21-11.66c-0.24-2.85-1.44-5.23-3.45-6.89
			c-0.29-0.24-0.6-0.46-0.92-0.66l-4.77,23.23C106.39,259.71,108.07,258.34,109.51,256.69z"/>
		<path class="st17" d="M114.81,261.03c4.72-5.43,7.14-12.12,6.61-18.34c-0.39-4.55-2.29-8.36-5.53-11.02
			c-1.41-1.16-3.04-2.05-4.81-2.64l-1.17,5.7c0.72,0.38,1.41,0.82,2.05,1.35c2.55,2.09,4.12,5.19,4.42,8.73
			c0.39,4.65-1.38,9.62-4.85,13.63c-2.15,2.47-4.79,4.38-7.6,5.57l-1.08,5.26C107.26,267.73,111.47,264.89,114.81,261.03z"/>
		<path class="st17" d="M169.81,241.25h-7.5c-0.61,7.15-2.46,14.34-5.41,21.3h8.55L169.81,241.25z"/>
		<path class="st17" d="M166.56,204.87H152.6c4.36,5.7,7.39,12.5,8.87,19.96h11.06C171.67,217.56,169.65,210.85,166.56,204.87z"/>
		<path class="st17" d="M169.48,204.87c2.17,4.46,3.81,9.27,4.84,14.35l2.94-14.35H169.48z"/>
		<path class="st17" d="M132.53,204.87c1.41,0.87,2.76,1.83,4.05,2.88c5.38,4.41,9.33,10.29,11.57,17.08h10.62
			c-1.57-7.64-4.81-14.4-9.55-19.96H132.53z"/>
		<path class="st17" d="M134.89,209.82c-2.47-2.03-5.2-3.67-8.15-4.94h-10.71l-0.97,4.71c5.4,0.92,10.28,3.1,14.34,6.42
			c5.72,4.69,9.43,11.47,10.61,19.26l2.14-10.42h3.21C143.26,218.88,139.74,213.78,134.89,209.82z"/>
		<path class="st17" d="M150.21,241.25c-0.39,7.15-2.3,14.4-5.61,21.3h9.39c3.07-6.95,4.99-14.15,5.63-21.3
			C159.62,241.25,150.21,241.25,150.21,241.25z"/>
		<path class="st17" d="M140.43,241.25c-0.09,7.16-2.13,14.5-5.87,21.3h7.08c3.47-6.88,5.5-14.14,5.9-21.3
			C147.54,241.25,140.43,241.25,140.43,241.25z"/>
	</g>
	<g>
		<path class="st17" d="M97.38,237.46c-2.17,1.05-4.22,2.58-5.91,4.54c-3.01,3.46-4.54,7.7-4.21,11.65c0.16,1.86,0.72,3.52,1.66,4.9
			h4.15L97.38,237.46z"/>
		<path class="st17" d="M99.97,224.84l0.63-3.12c-2.83,0.65-5.62,1.7-8.31,3.12H99.97z"/>
		<path class="st17" d="M84.6,253.87c-0.39-4.65,1.38-9.62,4.85-13.62c0.97-1.11,2.05-2.13,3.2-3h-6.12
			c-0.12,0.13-0.24,0.26-0.37,0.4c-4.72,5.43-7.14,12.12-6.61,18.34c0.08,0.88,0.21,1.74,0.4,2.56h5.91
			C85.18,257.14,84.75,255.56,84.6,253.87z"/>
		<path class="st17" d="M69.8,258.36c-0.6-7.05,1.39-14.47,5.51-21.11h-6.48c-3.79,6.81-5.75,14.17-5.62,21.3h6.61
			C69.83,258.48,69.81,258.43,69.8,258.36z"/>
		<path class="st17" d="M34.31,293.6h13.91c-5.41-7.17-8.74-16.03-9.56-25.79c-1.54-18.22,5.44-37.72,19.16-53.5
			c2.98-3.43,6.21-6.59,9.62-9.44H54.28c-1.18,1.24-2.35,2.49-3.47,3.8c-6.47,7.44-11.66,15.57-15.45,24.02l-7.34,35.77
			c0.04,1.04,0.1,2.08,0.19,3.12C28.89,279.64,30.96,287.04,34.31,293.6z"/>
		<path class="st17" d="M76.91,256.21c-0.55-6.41,1.69-13.24,6.15-18.95H78.5c-4.44,6.49-6.62,13.91-6.03,20.89
			c0.01,0.13,0.03,0.28,0.04,0.41h4.73C77.09,257.78,76.97,257,76.91,256.21z"/>
		<path class="st17" d="M89.22,277.27l0.98-4.75c-0.24-0.07-0.49-0.13-0.72-0.21H79.16c0.24,0.22,0.5,0.45,0.76,0.66
			C82.55,275.13,85.73,276.59,89.22,277.27z"/>
		<path class="st17" d="M26.24,277.17l-3.36,16.43h8.53C28.95,288.54,27.22,283.01,26.24,277.17z"/>
		<path class="st17" d="M59.83,216.06c-13.25,15.24-20.01,34.03-18.53,51.53c0.86,10.14,4.38,18.99,10.28,26.01h16.53
			c-1.29-0.81-2.54-1.69-3.72-2.67c-7.8-6.4-12.61-15.92-13.54-26.82c-1.24-14.62,4.36-30.25,15.36-42.91
			c6.07-6.98,13.37-12.54,21.19-16.33H71.66C67.42,208.15,63.45,211.89,59.83,216.06z"/>
		<path class="st17" d="M53.51,263.9c0.87,10.32,5.22,18.96,12.57,24.98c2.33,1.9,4.9,3.48,7.66,4.72h12.14l0.89-4.35
			c-5.73-0.82-10.93-3.05-15.21-6.56c-3.41-2.79-6.1-6.34-7.97-10.38h-7.92l2.82-13.75h2.06c-0.12-7.13,1.73-14.45,5.27-21.3h-2.96
			l2.09-10.21C56.6,238.33,52.47,251.51,53.51,263.9z"/>
		<path class="st17" d="M48.79,206.92c0.6-0.69,1.21-1.38,1.84-2.05h-9.58l-3.71,18.09C40.57,217.37,44.4,211.99,48.79,206.92z"/>
		<path class="st17" d="M87.18,224.84c4.35-2.98,9.14-5.03,14.01-5.96l1.35-6.56c-8.58,1.51-17.07,5.91-24.03,12.51H87.18z"/>
		<path class="st17" d="M73.26,280.63c3.94,3.23,8.74,5.26,14.06,6l1.38-6.76c-3.93-0.77-7.48-2.4-10.47-4.85
			c-1-0.82-1.93-1.74-2.76-2.72h-8.94C68.18,275.51,70.43,278.31,73.26,280.63z"/>
		<path class="st17" d="M68.23,222.94c-0.53,0.62-1.06,1.25-1.57,1.88h8.07c7.93-8.31,18.1-13.76,28.37-15.31l0.96-4.65h-9.81
			C84.63,208.33,75.52,214.57,68.23,222.94z"/>
	</g>
	<g>
		<path class="st17" d="M207.85,220.56h15.31l-0.58,2.82h-15.31l-3.55,16.71h-3.5l7.42-34.84h18.23l-0.62,2.97h-14.79L207.85,220.56
			z"/>
		<path class="st17" d="M250.63,224.89c0,9.3-5.75,16.09-13.63,16.09c-6.32,0-10.34-4.39-10.34-11.39c0-4.7,1.67-9.24,4.54-12.27
			c2.25-2.46,5.28-3.71,9.04-3.71C246.67,213.61,250.63,217.95,250.63,224.89z M232.87,220.04c-1.88,2.62-2.93,5.96-2.93,9.4
			c0,5.43,2.82,8.77,7.32,8.77c2.46,0,4.85-1.15,6.42-3.03c2.35-2.77,3.76-6.79,3.76-10.4c0-2.25-0.73-4.65-1.78-6.11
			c-1.15-1.51-3.24-2.51-5.43-2.51C237.22,216.17,234.75,217.48,232.87,220.04z"/>
		<path class="st17" d="M272,236.23c-2.62,3.3-5.28,4.75-8.72,4.75c-4.39,0-7.53-2.51-7.53-6.06c0-0.84,0.16-1.98,0.42-3.24
			l3.65-17.18h3.18l-3.61,16.87c-0.26,1.26-0.37,2.14-0.37,2.82c0,2.29,1.73,3.71,4.5,3.71c2.29,0,5.12-1.26,6.89-3.03
			c1.51-1.51,2.77-4.08,3.34-6.58l2.93-13.8h3.13l-5.43,25.6h-3.24L272,236.23z"/>
		<path class="st17" d="M290.45,218.37c2.62-3.3,5.28-4.75,8.77-4.75c4.33,0,7.47,2.51,7.47,6.06c0,0.84-0.16,2.14-0.42,3.24
			l-3.65,17.18h-3.13l3.61-16.87c0.31-1.51,0.42-2.14,0.42-2.82c0-2.29-1.73-3.71-4.54-3.71c-2.35,0-5.17,1.26-6.95,3.03
			c-1.46,1.51-2.77,4.08-3.3,6.58l-2.93,13.78h-3.18l5.43-25.6h3.24L290.45,218.37z"/>
		<path class="st17" d="M339.28,205.26l-7.42,34.84h-3.13l0.78-3.61c-2.25,2.97-4.64,4.23-8.21,4.23c-5.75,0-9.35-4.29-9.35-11.18
			c0-9.04,5.64-15.93,13.12-15.93c3.86,0,6.27,1.51,8.19,5.32l2.87-13.68h3.14V205.26z M318.18,220.31
			c-1.83,2.51-2.87,5.9-2.87,9.14c0,5.22,2.62,8.56,6.58,8.56c2.25,0,4.7-1.15,6.21-2.93c2.25-2.72,3.71-6.85,3.71-10.76
			c0-4.91-2.45-7.88-6.42-7.88C322.51,216.43,320.01,217.79,318.18,220.31z"/>
		<path class="st17" d="M342.68,221.76c1.3-5.22,5.33-8.15,11.12-8.15c5.12,0,8.62,2.66,8.62,6.52c0,0.94-0.1,1.67-0.47,3.45
			l-2.46,11.59c-0.16,0.58-0.21,1.05-0.21,1.46c0,0.89,0.58,1.41,1.57,1.41c0.68,0,1.05-0.16,1.73-0.68l-0.58,2.72
			c-0.94,0.31-1.3,0.37-2.04,0.37c-2.45,0-3.5-0.78-3.96-3.08c-2.19,2.4-4.97,3.61-8.09,3.61c-4.7,0-7.99-2.93-7.99-7.1
			c0-3.18,1.98-6,5.07-7.26c2.04-0.78,4.49-1.15,10.19-1.41c1.67-0.1,2.51-0.37,2.97-0.89c0.52-0.58,0.94-2.09,0.94-3.61
			c0-2.72-1.94-4.18-5.53-4.18c-4.18,0-6.27,1.46-7.47,5.22h-3.38V221.76z M353.23,227.93c-4.18,0.37-5.43,0.52-6.68,1.05
			c-1.98,0.89-3.18,2.62-3.18,4.65c0,2.72,1.98,4.49,5.01,4.49c2.97,0,6.06-1.78,7.57-4.44c0.73-1.26,1.15-2.51,1.98-6.42
			C355.48,227.72,355.33,227.77,353.23,227.93z"/>
		<path class="st17" d="M380.5,214.5l-0.52,2.46h-4.33l-3.61,16.98c-0.26,1.2-0.37,1.94-0.37,2.4c0,1.26,0.78,1.98,2.19,1.98
			c1.2,0,1.88-0.21,3.66-1.26l-0.58,2.87c-1.94,0.84-2.77,1.05-4.02,1.05c-2.77,0-4.44-1.61-4.44-4.33c0-0.68,0.1-1.3,0.37-2.72
			l3.65-16.98h-4.39l0.52-2.46h4.33l1.57-7.32h3.18l-1.57,7.32C376.16,214.5,380.5,214.5,380.5,214.5z"/>
		<path class="st17" d="M390.58,214.5l-5.43,25.6h-3.24l5.43-25.6H390.58z M392.57,205.26l-0.99,4.6h-3.24l0.99-4.6
			C389.33,205.26,392.57,205.26,392.57,205.26z"/>
		<path class="st17" d="M418.42,224.89c0,9.3-5.75,16.09-13.63,16.09c-6.32,0-10.34-4.39-10.34-11.39c0-4.7,1.67-9.24,4.54-12.27
			c2.25-2.46,5.28-3.71,9.04-3.71C414.45,213.61,418.42,217.95,418.42,224.89z M400.66,220.04c-1.88,2.62-2.93,5.96-2.93,9.4
			c0,5.43,2.82,8.77,7.32,8.77c2.46,0,4.85-1.15,6.42-3.03c2.35-2.77,3.76-6.79,3.76-10.4c0-2.25-0.73-4.65-1.78-6.11
			c-1.15-1.51-3.24-2.51-5.43-2.51C404.99,216.17,402.54,217.48,400.66,220.04z"/>
		<path class="st17" d="M430.02,218.37c2.62-3.3,5.28-4.75,8.77-4.75c4.33,0,7.47,2.51,7.47,6.06c0,0.84-0.16,2.14-0.42,3.24
			l-3.65,17.18h-3.13l3.61-16.87c0.31-1.51,0.42-2.14,0.42-2.82c0-2.29-1.73-3.71-4.54-3.71c-2.35,0-5.17,1.26-6.95,3.03
			c-1.46,1.51-2.77,4.08-3.3,6.58l-2.93,13.78h-3.18l5.43-25.6h3.24L430.02,218.37z"/>
		<path class="st17" d="M478.29,214.5l-0.52,2.46h-4.7l-4.97,23.14h-3.13l4.91-23.14h-4.75l0.52-2.46h4.75l0.62-2.77
			c0.73-3.61,1.2-4.75,2.25-5.8c0.94-0.89,2.72-1.57,4.23-1.57c0.68,0,1.3,0.1,1.98,0.26l-0.58,2.62c-0.73-0.1-1.05-0.16-1.41-0.16
			c-1.63,0-2.56,0.99-3.03,3.18l-0.94,4.23h4.75V214.5z"/>
		<path class="st17" d="M503.2,224.89c0,9.3-5.75,16.09-13.63,16.09c-6.32,0-10.34-4.39-10.34-11.39c0-4.7,1.67-9.24,4.54-12.27
			c2.25-2.46,5.28-3.71,9.04-3.71C499.23,213.61,503.2,217.95,503.2,224.89z M485.45,220.04c-1.88,2.62-2.93,5.96-2.93,9.4
			c0,5.43,2.82,8.77,7.32,8.77c2.46,0,4.85-1.15,6.42-3.03c2.35-2.77,3.76-6.79,3.76-10.4c0-2.25-0.73-4.65-1.78-6.11
			c-1.15-1.51-3.24-2.51-5.43-2.51C489.78,216.17,487.32,217.48,485.45,220.04z"/>
		<path class="st17" d="M515.63,214.5l-0.68,3.34c1.73-2.97,3.61-4.23,6.37-4.23c0.52,0,0.94,0.06,1.83,0.21l-0.62,2.97
			c-0.78-0.16-1.15-0.21-1.63-0.21c-3.65,0-6.48,3.18-7.63,8.56l-3.18,14.94h-3.13l5.43-25.59H515.63z"/>
	</g>
	<g>
		<path class="st17" d="M197.85,274.13h15.31l-0.58,2.82h-15.31l-3.55,16.71h-3.5l7.42-34.84h18.23l-0.62,2.97h-14.79L197.85,274.13
			z"/>
		<path class="st17" d="M240.62,278.46c0,9.3-5.75,16.09-13.63,16.09c-6.32,0-10.34-4.39-10.34-11.39c0-4.7,1.67-9.24,4.54-12.27
			c2.25-2.46,5.28-3.71,9.04-3.71C236.65,267.18,240.62,271.51,240.62,278.46z M222.86,273.6c-1.88,2.62-2.93,5.96-2.93,9.4
			c0,5.43,2.82,8.77,7.32,8.77c2.46,0,4.85-1.15,6.42-3.03c2.35-2.77,3.76-6.79,3.76-10.39c0-2.25-0.73-4.65-1.78-6.11
			c-1.15-1.51-3.24-2.51-5.43-2.51C227.19,269.74,224.75,271.04,222.86,273.6z"/>
		<path class="st17" d="M253.06,268.06l-0.68,3.34c1.73-2.97,3.61-4.23,6.37-4.23c0.52,0,0.94,0.06,1.83,0.21l-0.62,2.97
			c-0.78-0.16-1.15-0.21-1.63-0.21c-3.65,0-6.48,3.18-7.63,8.56l-3.18,14.94h-3.14l5.43-25.6h3.25V268.06z"/>
		<path class="st17" d="M264.28,281.23c-0.21,1.26-0.26,1.83-0.26,2.62c0,4.91,2.77,7.99,7.2,7.99c3.45,0,6.48-2.25,8.15-6.06h3.24
			c-2.51,5.85-6.48,8.77-11.86,8.77c-2.82,0-5.49-0.94-7.16-2.56c-1.77-1.67-2.72-4.65-2.72-8.31c0-9.3,5.9-16.5,13.58-16.5
			c2.56,0,5.07,0.94,6.74,2.45c1.83,1.73,2.77,4.29,2.77,7.73c0,1.41-0.1,2.46-0.42,3.86C283.56,281.23,264.28,281.23,264.28,281.23
			z M280.53,278.83c0.21-0.84,0.26-1.26,0.26-1.98c0-4.18-2.62-6.85-6.68-6.85c-4.49,0-7.88,3.18-9.45,8.83H280.53z"/>
		<path class="st17" d="M296.36,268.06l-5.43,25.6h-3.24l5.43-25.6H296.36z M298.34,258.82l-0.99,4.6h-3.24l0.99-4.6H298.34z"/>
		<path class="st17" d="M301.85,296.64c0.31,3.18,2.72,4.91,6.68,4.91c3.18,0,5.64-1.26,7.05-3.71c0.73-1.26,0.94-1.93,1.94-6.58
			c-2.09,2.19-4.6,3.28-7.42,3.28c-6.06,0-9.76-4.29-9.76-11.39c0-9.09,5.69-15.98,13.22-15.98c4.08,0,6.74,1.73,7.99,5.22
			l0.94-4.33h3.13l-5.38,25.23c-1.67,8.04-4.91,11.02-11.96,11.02c-6,0-9.76-2.93-9.88-7.68
			C298.4,296.64,301.85,296.64,301.85,296.64z M303.67,283.37c0,5.22,2.51,8.31,6.79,8.31c2.35,0,4.6-0.95,5.9-2.56
			c2.29-2.72,3.81-7.36,3.81-11.8c0-4.23-2.77-7.32-6.58-7.32C307.95,270,303.67,275.74,303.67,283.37z"/>
		<path class="st17" d="M336.16,271.93c2.62-3.3,5.28-4.75,8.77-4.75c4.33,0,7.47,2.51,7.47,6.06c0,0.84-0.16,2.14-0.42,3.24
			l-3.65,17.18h-3.13l3.61-16.87c0.31-1.51,0.42-2.14,0.42-2.82c0-2.29-1.73-3.71-4.54-3.71c-2.35,0-5.17,1.26-6.95,3.03
			c-1.46,1.51-2.77,4.08-3.3,6.58l-2.93,13.78h-3.18l5.43-25.6h3.24L336.16,271.93z"/>
		<path class="st17" d="M394.77,268.79c0-1.83-0.16-2.72-0.68-3.81c-1.15-2.62-4.08-4.23-7.52-4.23c-4.85,0-8.62,2.93-8.62,6.68
			c0,3.03,1.51,4.29,8.83,7.32c3.86,1.61,5.9,2.87,7.16,4.33c1.2,1.46,1.88,3.34,1.88,5.33c0,5.96-5.43,10.34-12.85,10.34
			c-4.49,0-8.21-1.61-10.34-4.54c-1.36-1.78-1.88-3.76-1.88-7.57h3.45v0.84c0,2.62,0.58,4.33,1.94,5.59
			c1.61,1.57,4.33,2.56,7.1,2.56c5.01,0,8.87-3.03,8.87-6.99c0-1.3-0.52-2.62-1.36-3.5c-1.26-1.3-2.82-2.19-7.88-4.23
			c-3.4-1.41-5.22-2.45-6.48-3.81c-1.3-1.36-2.04-3.24-2.04-5.22c0-5.9,5.07-10.08,12.23-10.08c4.23,0,7.73,1.57,9.71,4.33
			c1.3,1.73,1.83,3.61,1.88,6.68h-3.41V268.79z"/>
		<path class="st17" d="M414.83,268.06l-0.52,2.46h-4.33l-3.61,16.98c-0.26,1.2-0.37,1.94-0.37,2.4c0,1.26,0.78,1.98,2.19,1.98
			c1.2,0,1.88-0.21,3.66-1.26l-0.58,2.87c-1.94,0.84-2.77,1.05-4.02,1.05c-2.77,0-4.44-1.61-4.44-4.33c0-0.68,0.1-1.3,0.37-2.72
			l3.65-16.98h-4.39l0.52-2.46h4.33l1.57-7.32h3.18l-1.57,7.32C410.48,268.06,414.83,268.06,414.83,268.06z"/>
		<path class="st17" d="M433.84,289.79c-2.62,3.28-5.28,4.75-8.72,4.75c-4.39,0-7.53-2.51-7.53-6.06c0-0.84,0.16-1.98,0.42-3.24
			l3.65-17.18h3.18l-3.61,16.87c-0.26,1.26-0.37,2.14-0.37,2.82c0,2.29,1.73,3.71,4.49,3.71c2.29,0,5.12-1.25,6.89-3.03
			c1.51-1.51,2.77-4.08,3.34-6.58l2.93-13.8h3.13l-5.43,25.6h-3.24L433.84,289.79z"/>
		<path class="st17" d="M472.91,258.82l-7.42,34.84h-3.13l0.78-3.61c-2.25,2.97-4.64,4.23-8.21,4.23c-5.75,0-9.35-4.29-9.35-11.18
			c0-9.04,5.64-15.93,13.12-15.93c3.86,0,6.27,1.51,8.19,5.32l2.87-13.68h3.14V258.82z M451.81,273.86
			c-1.83,2.51-2.87,5.9-2.87,9.14c0,5.22,2.61,8.56,6.58,8.56c2.25,0,4.7-1.15,6.21-2.93c2.25-2.72,3.71-6.85,3.71-10.76
			c0-4.91-2.45-7.88-6.42-7.88C456.16,270,453.64,271.36,451.81,273.86z"/>
		<path class="st17" d="M497.31,268.06l-15.77,30.82c-1.94,3.76-3.76,5.22-6.58,5.22c-0.47,0-0.84-0.06-1.51-0.21l0.62-2.82
			c0.47,0.1,0.68,0.16,1.05,0.16c1.41,0,2.14-0.68,3.5-3.34l2.14-4.29l-5.28-25.54h3.4l4.29,21.52l10.39-21.52H497.31z"/>
	</g>
</g>
</svg>
