<?xml version="1.0" encoding="utf-8"?>
<!-- Generator: Adobe Illustrator 25.0.0, SVG Export Plug-In . SVG Version: 6.00 Build 0)  -->
<svg version="1.1" id="Layer_1" xmlns="http://www.w3.org/2000/svg" xmlns:xlink="http://www.w3.org/1999/xlink" x="0px" y="0px"
	 viewBox="0 0 546.02 508.68" style="enable-background:new 0 0 546.02 508.68;" xml:space="preserve">
<style type="text/css">
	.st0{fill:#FFFFFF;}
	.st1{fill:#106F77;}
	.st2{fill:#005773;}
	.st3{fill:none;stroke:#000000;stroke-width:0.2269;}
	.st4{fill:#C69A47;}
	.st5{fill:#DCDDDE;}
	.st6{fill-rule:evenodd;clip-rule:evenodd;fill:#153455;}
	.st7{fill-rule:evenodd;clip-rule:evenodd;fill:#10558E;}
	.st8{fill-rule:evenodd;clip-rule:evenodd;fill:#0187C5;}
	.st9{fill-rule:evenodd;clip-rule:evenodd;fill:#54ADD9;}
	.st10{fill-rule:evenodd;clip-rule:evenodd;fill:#90C9E7;}
	.st11{fill-rule:evenodd;clip-rule:evenodd;fill:#C2E2F3;}
	.st12{fill:#153455;}
	.st13{fill:#3E3B3D;}
	.st14{fill:#52AA35;}
	.st15{fill:#191C35;}
	.st16{fill:#F1851A;}
	.st17{fill:#326DB3;}
	.st18{fill:#0E70A0;}
	.st19{fill:#BF9F5E;}
	.st20{fill:#C9AA71;}
	.st21{fill:#CAB36A;}
	.st22{clip-path:url(#SVGID_2_);fill:#DBC47B;}
	.st23{fill:#DABC7E;}
	.st24{fill:#D3B86F;}
	.st25{fill:#CAAB62;}
	.st26{fill:#EDCC87;}
	.st27{fill:#DDC37A;}
	.st28{clip-path:url(#SVGID_4_);fill:#C9AA63;}
	.st29{clip-path:url(#SVGID_6_);fill:#C9AA72;}
	.st30{clip-path:url(#SVGID_8_);fill:#C9AA72;}
	.st31{clip-path:url(#SVGID_10_);fill:#DEC07F;}
	.st32{clip-path:url(#SVGID_12_);fill:#D8BF76;}
	.st33{clip-path:url(#SVGID_14_);fill:#9B8047;}
	.st34{clip-path:url(#SVGID_16_);fill:#94763B;}
	.st35{clip-path:url(#SVGID_18_);fill:#93783E;}
	.st36{clip-path:url(#SVGID_20_);fill:#B29252;}
	.st37{clip-path:url(#SVGID_22_);fill:#B59961;}
	.st38{clip-path:url(#SVGID_24_);fill:#DABC7E;}
	.st39{clip-path:url(#SVGID_26_);fill:#B29252;}
	.st40{fill:#93783E;}
	.st41{fill:#A88143;}
	.st42{fill:#796937;}
	.st43{fill:#BC9B5B;}
	.st44{clip-path:url(#SVGID_28_);fill:#BC9B5B;}
	.st45{clip-path:url(#SVGID_30_);fill:#9B8047;}
	.st46{fill:#CBAD65;}
	.st47{clip-path:url(#SVGID_32_);fill:#CAAB62;}
	.st48{clip-path:url(#SVGID_34_);fill:#DABC7E;}
	.st49{clip-path:url(#SVGID_36_);fill:#DABC7E;}
	.st50{clip-path:url(#SVGID_38_);fill:#DABC7E;}
	.st51{clip-path:url(#SVGID_40_);fill:#BD9D67;}
	.st52{clip-path:url(#SVGID_42_);fill:#867135;}
	.st53{clip-path:url(#SVGID_44_);fill:#DABC7E;}
	.st54{clip-path:url(#SVGID_46_);fill:#9B8047;}
	.st55{clip-path:url(#SVGID_48_);fill:#B29252;}
	.st56{clip-path:url(#SVGID_50_);fill:#B29252;}
	.st57{clip-path:url(#SVGID_52_);fill:#867135;}
	.st58{clip-path:url(#SVGID_54_);fill:#CAAB62;}
	.st59{clip-path:url(#SVGID_56_);fill:#BD9D67;}
	.st60{clip-path:url(#SVGID_58_);fill:#D3B86F;}
	.st61{clip-path:url(#SVGID_60_);fill:#B29252;}
	.st62{clip-path:url(#SVGID_62_);fill:#C09650;}
	.st63{fill:#C9AA72;}
	.st64{fill:#867135;}
	.st65{fill:#8D6C54;}
	.st66{fill:#7D6233;}
	.st67{fill:#4F3E29;}
	.st68{fill:#3E301E;}
	.st69{fill:#735832;}
	.st70{fill-rule:evenodd;clip-rule:evenodd;fill:#1D7890;}
	.st71{fill:#1D7890;}
	.st72{fill-rule:evenodd;clip-rule:evenodd;fill:url(#SVGID_63_);}
	.st73{fill-rule:evenodd;clip-rule:evenodd;fill:url(#SVGID_64_);}
	.st74{fill-rule:evenodd;clip-rule:evenodd;fill:url(#SVGID_65_);}
	.st75{fill:url(#SVGID_66_);}
	.st76{display:none;fill:none;}
	.st77{fill:url(#SVGID_67_);}
	.st78{fill:url(#SVGID_68_);}
	.st79{display:none;fill:url(#SVGID_69_);}
	.st80{fill:url(#SVGID_70_);}
	.st81{fill:url(#SVGID_71_);}
	.st82{fill:none;}
	.st83{fill:url(#SVGID_72_);}
	.st84{fill:url(#SVGID_73_);}
	.st85{fill:url(#SVGID_74_);}
	.st86{fill:url(#SVGID_75_);}
	.st87{fill:url(#SVGID_76_);}
	.st88{fill:url(#SVGID_77_);}
	.st89{fill:url(#SVGID_78_);}
	.st90{fill:url(#SVGID_79_);}
	.st91{fill:#047180;}
	.st92{fill:url(#SVGID_80_);}
	.st93{fill:#0E518C;}
	.st94{fill:url(#SVGID_81_);}
	.st95{fill:url(#SVGID_82_);}
	.st96{fill:url(#SVGID_83_);}
	.st97{fill:url(#SVGID_84_);}
	.st98{fill:url(#SVGID_85_);}
	.st99{fill:url(#SVGID_86_);}
	.st100{fill:url(#SVGID_87_);}
	.st101{fill:url(#SVGID_88_);}
	.st102{fill:url(#SVGID_89_);}
	.st103{fill:url(#SVGID_90_);}
	.st104{fill:url(#SVGID_91_);}
	.st105{fill:url(#SVGID_92_);}
	.st106{fill:url(#SVGID_93_);}
	.st107{fill:url(#SVGID_94_);}
	.st108{fill:url(#SVGID_95_);}
	.st109{fill:url(#SVGID_96_);}
	.st110{fill:url(#SVGID_97_);}
	.st111{fill:url(#SVGID_98_);}
	.st112{fill:url(#SVGID_99_);}
	.st113{fill:url(#SVGID_100_);}
	.st114{fill:url(#SVGID_101_);}
	.st115{fill:url(#SVGID_102_);}
	.st116{fill:url(#SVGID_103_);}
	.st117{fill:#31578B;}
	.st118{fill:url(#SVGID_104_);}
	.st119{fill:url(#SVGID_105_);}
	.st120{fill:url(#SVGID_106_);}
	.st121{display:none;fill:url(#SVGID_107_);}
	.st122{fill:url(#SVGID_108_);}
	.st123{fill:url(#SVGID_109_);}
	.st124{fill:url(#SVGID_110_);}
	.st125{fill:url(#SVGID_111_);}
	.st126{fill:url(#SVGID_112_);}
	.st127{fill:url(#SVGID_113_);}
	.st128{fill:url(#SVGID_114_);}
	.st129{fill:url(#SVGID_115_);}
	.st130{fill:url(#SVGID_116_);}
	.st131{fill:url(#SVGID_117_);}
	.st132{fill:#015D84;}
	.st133{fill:url(#SVGID_118_);}
	.st134{fill:url(#SVGID_119_);}
	.st135{fill:url(#SVGID_120_);}
	.st136{fill:url(#SVGID_121_);}
	.st137{fill:url(#SVGID_122_);}
	.st138{fill:url(#SVGID_123_);}
	.st139{fill:url(#SVGID_124_);}
	.st140{fill:#005A85;}
	.st141{fill:url(#SVGID_125_);}
	.st142{fill:url(#SVGID_126_);}
	.st143{fill:url(#SVGID_127_);}
	.st144{fill:url(#SVGID_128_);}
	.st145{fill:url(#SVGID_129_);}
	.st146{fill:url(#SVGID_130_);}
	.st147{fill:url(#SVGID_131_);}
	.st148{fill:url(#SVGID_132_);}
	.st149{fill:url(#SVGID_133_);}
	.st150{fill:url(#SVGID_134_);}
	.st151{fill:url(#SVGID_135_);}
	.st152{fill:url(#SVGID_136_);}
	.st153{fill:url(#SVGID_137_);}
	.st154{fill:url(#SVGID_138_);}
	.st155{fill:url(#SVGID_139_);}
	.st156{fill:url(#SVGID_140_);}
	.st157{fill:url(#SVGID_141_);}
	.st158{fill:url(#SVGID_142_);}
	.st159{fill:url(#SVGID_143_);}
	.st160{fill:url(#SVGID_144_);}
	.st161{fill:url(#SVGID_145_);}
	.st162{fill:url(#SVGID_146_);}
	.st163{fill:url(#SVGID_147_);}
	.st164{fill:url(#SVGID_148_);}
	.st165{fill:url(#SVGID_149_);}
	.st166{fill:url(#SVGID_150_);}
	.st167{fill:url(#SVGID_151_);}
	.st168{fill:url(#SVGID_152_);}
	.st169{fill:url(#SVGID_153_);}
	.st170{fill:url(#SVGID_154_);}
	.st171{fill:url(#SVGID_155_);}
	.st172{fill:url(#SVGID_156_);}
	.st173{fill:url(#SVGID_157_);}
	.st174{fill:url(#SVGID_158_);}
	.st175{fill:url(#SVGID_159_);}
	.st176{fill:url(#SVGID_160_);}
	.st177{fill:url(#SVGID_161_);}
	.st178{fill:url(#SVGID_162_);}
	.st179{fill:url(#SVGID_163_);}
	.st180{fill:url(#SVGID_164_);}
	.st181{fill:url(#SVGID_165_);}
	.st182{fill:url(#SVGID_166_);}
	.st183{fill:url(#SVGID_167_);}
	.st184{fill:url(#SVGID_168_);}
	.st185{fill:url(#SVGID_169_);}
	.st186{fill:url(#SVGID_170_);}
	.st187{fill:url(#SVGID_171_);}
	.st188{fill:url(#SVGID_172_);}
	.st189{fill:url(#SVGID_173_);}
	.st190{fill:url(#SVGID_174_);}
	.st191{fill:url(#SVGID_175_);}
	.st192{fill:url(#SVGID_176_);}
	.st193{fill:url(#SVGID_177_);}
	.st194{fill:url(#SVGID_178_);}
	.st195{fill:url(#SVGID_179_);}
	.st196{fill:url(#SVGID_180_);}
	.st197{fill:url(#SVGID_181_);}
	.st198{fill:url(#SVGID_182_);}
	.st199{fill:url(#SVGID_183_);}
	.st200{fill:url(#SVGID_184_);}
	.st201{fill:url(#SVGID_185_);}
	.st202{fill:url(#SVGID_186_);}
	.st203{fill:url(#SVGID_187_);}
	.st204{fill:url(#SVGID_188_);}
	.st205{fill:url(#SVGID_189_);}
	.st206{fill:url(#SVGID_190_);}
	.st207{fill:url(#SVGID_191_);}
	.st208{fill:url(#SVGID_192_);}
	.st209{fill:url(#SVGID_193_);}
	.st210{fill:url(#SVGID_194_);}
	.st211{fill:url(#SVGID_195_);}
	.st212{fill:url(#SVGID_196_);}
	.st213{fill:url(#SVGID_197_);}
	.st214{fill:url(#SVGID_198_);}
	.st215{fill:url(#SVGID_199_);}
	.st216{fill:#007580;}
	.st217{fill:#98989A;}
	.st218{fill-rule:evenodd;clip-rule:evenodd;fill:#3A3636;}
	.st219{fill-rule:evenodd;clip-rule:evenodd;fill:#E18750;}
	.st220{fill:#111D4E;}
	.st221{fill:#FBD42C;}
	.st222{fill:#808184;}
	.st223{fill-rule:evenodd;clip-rule:evenodd;}
	.st224{clip-path:url(#SVGID_201_);}
	.st225{clip-path:url(#SVGID_203_);}
	.st226{clip-path:url(#SVGID_205_);}
	.st227{clip-path:url(#SVGID_207_);}
	.st228{clip-path:url(#SVGID_209_);}
	.st229{clip-path:url(#SVGID_211_);}
	.st230{clip-path:url(#SVGID_213_);}
	.st231{clip-path:url(#SVGID_215_);}
	.st232{clip-path:url(#SVGID_217_);}
	.st233{clip-path:url(#SVGID_219_);}
	.st234{clip-path:url(#SVGID_221_);}
	.st235{clip-path:url(#SVGID_223_);}
	.st236{clip-path:url(#SVGID_225_);}
	.st237{clip-path:url(#SVGID_227_);}
	.st238{clip-path:url(#SVGID_229_);}
	.st239{clip-path:url(#SVGID_231_);}
	.st240{display:none;}
	.st241{fill-rule:evenodd;clip-rule:evenodd;fill:#C6C6C6;}
	.st242{fill-rule:evenodd;clip-rule:evenodd;fill:url(#SVGID_232_);}
	.st243{fill-rule:evenodd;clip-rule:evenodd;fill:#722582;}
	.st244{fill:#00539F;}
	.st245{fill:#ED1C24;}
	.st246{fill:#009D8E;}
</style>
<path id="Fill-1" class="st220" d="M538.27,261.15h-10.7l-0.44,1.77l4.6,0.88c0,11.58,0.18,16.09,0.27,19.98
	c-1.86-2.83-3.54-5.39-14.94-22.55h-6.9l-0.35,1.68l3.8,0.88l-0.18,23.17l-3.36,0.53l-0.44,2.03h10.7l0.44-1.77l-4.6-0.88
	c-0.09-15.47-0.18-18.3-0.35-21.13c1.68,2.74,3.09,4.77,16.27,24.49l2.21-0.53l0.27-26l3.36-0.53L538.27,261.15L538.27,261.15
	L538.27,261.15z M492.47,286.79v-11.05l6.99,0.27l1.06,3.09l1.59-0.27v-8.4l-1.77,0.35l-0.88,2.56l-6.99,0.27v-10.35l9.73,0.27
	l0.97,4.07l1.86-0.53c0.27-2.56,0.35-4.07,0.35-6.01H485.4l-0.35,1.77l3.8,0.88v23.17l-3.36,0.53l-0.44,2.03h21.49
	c0.27-2.03,0.44-4.51,0.44-7.07l-2.12,0.44l-1.15,4.33L492.47,286.79L492.47,286.79L492.47,286.79z M477.7,263.72l3.45-0.53
	l0.44-2.12h-11.05l-0.35,1.77l3.8,0.88v13.53v9.55l-3.36,0.53l-0.44,2.03h11.49l0.35-1.77l-4.42-0.88v-22.99L477.7,263.72
	L477.7,263.72z M467.62,263.18l0.44-2.03h-10.35l-0.35,1.77l4.51,0.88c-3.8,14.5-4.24,16.53-5.13,20.51
	c-0.88-3.27-1.24-4.51-7.34-22.46h-2.65c-6.01,18.21-6.81,20.51-7.34,22.46c-0.35-1.95-0.97-4.42-5.04-20.6l4.16-0.53l0.35-2.03
	h-10.96l-0.44,1.77l2.92,0.88l6.9,25.91h2.65c5.31-15.65,6.63-19.81,7.52-22.72c0.88,2.92,2.21,6.9,7.34,22.72h2.65l7.34-25.91
	L467.62,263.18L467.62,263.18L467.62,263.18z M428.28,244.53v-11.05l6.99,0.27l1.06,3.09l1.59-0.27v-8.4l-1.77,0.35l-0.88,2.56
	l-6.99,0.27v-10.35l9.73,0.27l0.97,4.07l1.86-0.53c0.27-2.56,0.35-4.07,0.35-6.01H421.2l-0.35,1.77l3.8,0.88v23.17l-3.36,0.53
	l-0.44,2.03h21.49c0.27-2.03,0.44-4.42,0.44-7.07l-2.12,0.44l-1.15,4.33L428.28,244.53L428.28,244.53L428.28,244.53z M413.51,244.62
	v-23.08l3.45-0.53l0.44-2.12h-11.05l-0.35,1.77l3.89,0.88v9.73h-13.62v-9.73l3.45-0.53l0.44-2.12h-11.05l-0.35,1.77l3.8,0.88v23.17
	l-3.36,0.53l-0.44,2.03h11.49l0.35-1.77l-4.42-0.88v-10.96h13.62v10.96l-3.36,0.53l-0.44,2.03h11.41l0.35-1.77L413.51,244.62
	L413.51,244.62L413.51,244.62z M366.65,232.77c0-7.78,3.09-12.11,9.28-12.11c1.77,0,3.45,0.18,5.31,0.88l0.97,4.42l1.77-0.53
	c0.35-2.21,0.35-4.07,0.35-5.92c-1.41-0.62-3.54-1.24-7.78-1.24c-8.13,0-13.71,5.39-13.71,15.39c0,8.75,4.42,14.24,12.91,14.24
	c3.71,0,6.63-1.06,8.75-2.65l0.44-2.56c-3.09,1.59-5.31,2.12-8.4,2.12C371.16,244.79,366.65,241.43,366.65,232.77L366.65,232.77
	L366.65,232.77z M344.37,225.16c0-2.92,1.95-4.6,5.57-4.6c1.95,0,3.98,0.35,5.57,1.06l0.71,3.98l1.86-0.35
	c0.35-1.95,0.53-3.8,0.53-5.66c-1.86-0.8-4.6-1.15-7.6-1.15c-6.28,0-9.73,3.36-9.73,7.78c0,3.63,1.86,5.57,5.66,7.43l3.8,1.77
	c4.42,2.03,5.57,3.27,5.57,5.57c0,3.36-3.18,4.6-6.45,4.6c-1.86,0-4.33-0.53-5.84-1.59l-1.68-4.42l-1.77,0.44
	c0,2.21,0.18,4.33,0.53,6.1c2.21,1.24,5.04,1.95,8.49,1.95c5.66,0,9.9-3.18,9.9-8.22c0-3.45-0.97-5.13-5.84-7.25l-4.16-1.86
	C345.69,228.88,344.37,227.64,344.37,225.16L344.37,225.16L344.37,225.16z M335.26,286.88v-23.17l3.45-0.53l0.44-2.12H328.1
	l-0.35,1.77l3.8,0.88v23.17l-3.36,0.53l-0.44,2.03h11.49l0.35-1.77L335.26,286.88L335.26,286.88L335.26,286.88z M332.87,244.62
	v-23.08l3.45-0.53l0.44-2.12h-11.05l-0.35,1.77l3.8,0.88v23.17l-3.36,0.53l-0.44,2.03h11.49l0.35-1.77L332.87,244.62L332.87,244.62
	L332.87,244.62z M308.91,267.34c0-2.92,1.95-4.6,5.57-4.6c1.95,0,3.98,0.35,5.57,1.06l0.71,3.98l1.86-0.35
	c0.35-1.95,0.53-3.8,0.53-5.66c-1.86-0.8-4.6-1.15-7.6-1.15c-6.28,0-9.73,3.36-9.73,7.78c0,3.63,1.86,5.57,5.66,7.43l3.8,1.77
	c4.42,2.03,5.57,3.27,5.57,5.57c0,3.36-3.18,4.6-6.45,4.6c-1.86,0-4.33-0.53-5.84-1.59l-1.68-4.42l-1.77,0.44
	c0,2.21,0.18,4.33,0.53,6.1c2.21,1.24,5.04,1.95,8.49,1.95c5.66,0,9.9-3.18,9.9-8.22c0-3.45-0.97-5.13-5.84-7.25l-4.16-1.86
	C310.24,271.14,308.91,269.82,308.91,267.34L308.91,267.34L308.91,267.34z M322,221.01l0.44-2.03h-10.7l-0.44,1.77l4.6,0.88
	c0,11.58,0.18,16.09,0.27,19.98c-1.86-2.83-3.54-5.39-14.94-22.55h-6.9l-0.35,1.68l3.8,0.88l-0.18,23.17l-3.36,0.53l-0.44,2.03h10.7
	l0.44-1.77l-4.6-0.88c-0.09-15.47-0.18-18.3-0.35-21.13c1.68,2.74,3.09,4.77,16.27,24.49l2.21-0.53l0.27-26L322,221.01L322,221.01
	L322,221.01z M286.45,244.62v-23.08l3.45-0.53l0.44-2.12h-11.05l-0.35,1.77l3.8,0.88v23.17l-3.36,0.53l-0.44,2.03h11.49l0.35-1.77
	L286.45,244.62L286.45,244.62L286.45,244.62z M287.6,261.15h-9.73l-0.35,1.77l3.8,0.88v23.17l-3.36,0.53l-0.44,2.03h12.11l0.35-1.68
	l-5.04-0.88v-9.81c0.88,0,2.03,0.09,3.01,0.09c0.44,0,0.88,0,1.33,0c2.21,4.24,4.42,8.22,7.07,12.29h6.19l0.44-1.68l-3.71-0.8
	c-2.39-3.36-4.42-6.81-6.54-10.43c3.63-1.06,6.1-3.71,6.1-7.69c0-3.18-1.15-5.48-4.07-6.72
	C293.26,261.42,291.05,261.15,287.6,261.15L287.6,261.15L287.6,261.15z M286.8,263.27c4.51,0,8.13,0.62,8.13,5.66
	c0,4.95-3.36,6.01-7.78,6.01c-0.53,0-1.68,0-2.21-0.09v-11.49C285.74,263.27,286.27,263.27,286.8,263.27L286.8,263.27L286.8,263.27z
	 M272.57,244.7l-15.21-0.27c2.03-2.56,3.98-5.22,18.13-24.14v-1.41h-21.57c-0.27,1.5-0.62,4.69-0.71,6.9l1.68,0.35l1.59-4.6
	l13.97-0.35c-2.12,2.65-4.42,5.92-18.39,24.67v1.33h23.34c0.27-1.68,0.62-4.95,0.62-7.07l-1.68-0.35L272.57,244.7L272.57,244.7
	L272.57,244.7z M250.11,263.18l0.35-2.03h-9.64l-0.35,1.77l3.89,0.88c-6.37,17.95-6.9,19.72-7.6,21.66
	c-0.62-1.86-1.24-3.71-8.22-21.66l3.63-0.53l0.44-2.03h-10.43l-0.44,1.77l2.83,0.88l10.17,25.91h2.65l9.9-25.91L250.11,263.18
	L250.11,263.18L250.11,263.18z M245.07,244.62v-23.08l3.45-0.53l0.44-2.12h-11.05l-0.35,1.77l3.8,0.88v23.17l-3.36,0.53l-0.44,2.03
	h11.49l0.35-1.77L245.07,244.62L245.07,244.62L245.07,244.62z M235.08,232.24c0-7.34-3.18-10.96-7.96-12.47
	c-1.95-0.62-5.75-0.88-9.37-0.88h-8.4l-0.35,1.77l3.8,0.88v23.17l-3.36,0.53l-0.44,2.03h7.43c3.27,0,7.43-0.18,10.43-1.15
	C232.78,244,235.08,239.05,235.08,232.24L235.08,232.24L235.08,232.24z M231.01,232.5c0,5.57-1.5,9.81-5.66,11.32
	c-1.15,0.44-3.01,0.8-6.01,0.8c-0.71,0-2.21,0-3.01-0.09v-23.17c0.88-0.09,2.21-0.09,3.01-0.09c4.16,0,6.37,0.8,7.69,1.68
	C229.69,224.54,231.01,228.44,231.01,232.5L231.01,232.5L231.01,232.5z M212.53,263.72v23.17l-3.36,0.53l-0.44,2.03h11.49l0.35-1.77
	l-4.42-0.88v-23.17l3.45-0.53l0.44-2.12h-11.05l-0.35,1.77L212.53,263.72L212.53,263.72L212.53,263.72z M205.28,263.18l0.44-2.03
	h-10.7l-0.44,1.77l4.6,0.88c0,11.58,0.18,16.09,0.27,19.98c-1.86-2.83-3.54-5.39-14.94-22.55h-6.9l-0.35,1.68l3.8,0.88l-0.18,23.17
	l-3.36,0.53l-0.44,2.03h10.7l0.44-1.77l-4.6-0.88c-0.09-15.47-0.18-18.3-0.35-21.13c1.68,2.74,3.09,4.77,16.27,24.49l2.21-0.53
	l0.27-26L205.28,263.18L205.28,263.18L205.28,263.18z M191.05,244.53v-11.05l6.99,0.27l1.06,3.09l1.59-0.27v-8.4l-1.77,0.35
	l-0.88,2.56l-6.99,0.27v-10.35l9.73,0.27l0.97,4.07l1.86-0.53c0.27-2.56,0.35-4.07,0.35-6.01h-19.98l-0.35,1.77l3.8,0.88v23.17
	l-3.36,0.53l-0.44,2.03h21.49c0.27-2.03,0.44-4.42,0.44-7.07l-2.12,0.44l-1.15,4.33L191.05,244.53L191.05,244.53L191.05,244.53z
	 M176.63,244.62v-23.08l3.45-0.53l0.44-2.12h-8.22c-6.1,12.64-7.69,16-8.93,18.83c-1.15-2.65-2.56-5.84-8.75-18.83h-7.87l-0.35,1.68
	l3.89,0.88l-0.44,23.17l-3.36,0.53l-0.44,2.03h10.7l0.35-1.77l-4.51-0.88c0-15.65,0-17.15-0.09-22.11c1.15,2.56,2.83,6.45,9.2,19.81
	l2.03-0.18c7.34-14.85,8.49-17.33,9.37-19.54c-0.09,5.48-0.09,7.6-0.09,22.11l-3.54,0.53l-0.44,2.03h11.58l0.35-1.77L176.63,244.62
	L176.63,244.62L176.63,244.62z M146.22,261.15l-0.35,1.77l3.63,0.88v13.79c0,3.36,0,6.01,0.97,7.87c1.59,3.45,5.04,4.69,9.73,4.69
	c5.04,0,7.78-1.77,9.28-4.51c1.06-1.95,1.15-4.24,1.24-8.58c0-4.77,0.09-8.58,0.18-13.35l3.18-0.53l0.35-2.03h-9.73l-0.35,1.77
	l3.71,0.88c0.09,5.13,0.18,8.93,0.18,14.06c0,3.09-0.35,5.57-1.06,6.81c-1.24,2.3-4.07,2.92-6.99,2.92c-3.45,0-5.22-1.15-6.19-2.83
	c-0.8-1.33-0.97-3.63-0.97-6.45v-14.5l3.63-0.53l0.44-2.12L146.22,261.15L146.22,261.15L146.22,261.15z M128.53,262.48
	c0.35-2.65,0.62-5.39,0.62-8.22c0-2.83-0.27-5.57-0.62-8.31c-4.07-29.44-29.09-52.17-59.6-52.34c-0.18,0-0.35,0-0.44,0l0,0
	c-33.51,0-60.74,27.15-60.74,60.74l0,0c0,0.18,0,0.27,0,0.44C7.93,285.55,31,310.75,60.8,314.56c2.56,0.35,5.04,0.53,7.69,0.53
	c2.92,0,5.75-0.27,8.58-0.71C103.86,310.49,124.91,289.27,128.53,262.48L128.53,262.48L128.53,262.48z M126.41,254.25
	c0,32.01-25.91,57.92-57.92,57.92s-57.92-25.91-57.92-57.92s25.91-57.92,57.92-57.92S126.41,222.25,126.41,254.25L126.41,254.25
	L126.41,254.25z M111.56,227.9v52.61c0.71-1.15,1.33-2.3,1.95-3.45c0-0.09,0.09-0.09,0.09-0.18l0,0c0.27-0.53,0.53-0.97,0.71-1.5
	c0-0.09,0.09-0.18,0.09-0.18l0.09-0.18c0.71-1.5,1.33-3.01,1.77-4.6l0.09-0.18c0-0.09,0.09-0.18,0.09-0.27
	c0-0.09,0.09-0.18,0.09-0.27c0.09-0.35,0.18-0.71,0.35-1.06l0.09-0.18c0.09-0.27,0.18-0.53,0.27-0.8l0.09-0.44
	c0.09-0.27,0.18-0.53,0.18-0.8c0.09-0.44,0.18-0.88,0.27-1.24l0.09-0.27c0.09-0.27,0.09-0.44,0.18-0.71c0.18-0.8,0.27-1.5,0.35-2.12
	c0-0.18,0.09-0.35,0.09-0.53v-0.27c0.09-0.62,0.18-1.06,0.18-1.59v-0.09c0-0.27,0.09-0.53,0.09-0.8c0.09-0.62,0.09-1.15,0.09-1.59
	v-0.44c0-0.09,0-0.18,0-0.27c0-0.8,0.09-1.59,0.09-2.39c0-0.71,0-1.5-0.09-2.3c0-0.27,0-0.44,0-0.71c0-0.62-0.09-1.24-0.09-1.68
	v-0.09c0-0.18,0-0.35-0.09-0.53c-0.09-0.8-0.18-1.59-0.27-2.3c0-0.09,0-0.18,0-0.27c0-0.09,0-0.09,0-0.18v-0.09
	c-0.09-0.62-0.18-1.15-0.27-1.68l-0.09-0.44c0-0.09-0.09-0.27-0.09-0.35c-0.09-0.44-0.18-0.8-0.35-1.33l-0.09-0.44
	c0-0.18-0.09-0.27-0.09-0.44c-0.18-0.62-0.35-1.24-0.53-1.95l-0.09-0.18c-0.09-0.18-0.09-0.27-0.18-0.44l-0.09-0.35
	c-0.09-0.35-0.27-0.71-0.35-1.06l-0.18-0.62c-0.09-0.18-0.09-0.35-0.18-0.53c-0.09-0.18-0.18-0.35-0.18-0.53l-0.18-0.35
	c-0.53-1.33-1.15-2.65-1.77-3.98l-0.35-0.62c-0.27-0.44-0.44-0.88-0.62-1.24l-0.27-0.44C112,228.7,111.82,228.35,111.56,227.9
	L111.56,227.9L111.56,227.9z M103.07,277.69v-44.21c-0.18-9.64-2.3-20.25-16.45-25.91c-0.35-0.18-0.71-0.27-1.06-0.35l-0.71-0.27
	c-0.71-0.27-1.59-0.53-2.56-0.8l-0.18-0.09c-0.18-0.09-0.35-0.09-0.53-0.18c-0.97-0.27-1.95-0.53-2.83-0.71h-0.18
	c-0.88-0.18-1.95-0.35-3.01-0.53l-0.8-0.09c-0.8-0.09-1.59-0.18-2.39-0.27h-0.27c-0.18,0-0.44,0-0.62-0.09
	c-1.24-0.09-2.21-0.09-3.09-0.09c-0.71,0-1.41,0-2.39,0.09h-0.27c-0.09,0-0.18,0-0.18,0h-0.27c-0.44,0-0.97,0.09-1.59,0.09h-0.35
	c-0.18,0-0.35,0-0.53,0.09c-0.53,0.09-1.06,0.09-1.5,0.18h-0.27c-0.18,0-0.35,0-0.44,0.09c-0.8,0.09-1.5,0.27-2.12,0.35
	c-0.18,0-0.35,0.09-0.62,0.09l-0.35,0.09c-0.44,0.09-0.8,0.18-1.24,0.27c-0.35,0.09-0.71,0.18-1.06,0.27
	c-0.35,0.09-0.62,0.18-0.97,0.27c-0.44,0.18-0.88,0.27-1.24,0.35c-0.18,0.09-0.35,0.09-0.53,0.18l-0.18,0.09
	c-1.59,0.53-3.09,1.15-4.51,1.77l-0.35,0.18c-0.44,0.18-0.97,0.44-1.5,0.71l-0.27,0.09c-0.8,0.35-1.59,0.8-2.3,1.24
	c0.53,0,1.06-0.09,1.59-0.09c6.01,0,11.85,2.83,15.65,7.52c3.8-4.69,9.64-7.52,15.65-7.52c11.05,0,20.07,9.02,20.07,20.07v46.86
	c0,2.48-1.95,4.42-4.42,4.42s-4.42-1.95-4.42-4.42v-46.86c0-6.19-5.04-11.23-11.23-11.23s-11.23,5.04-11.23,11.23v46.86
	c0,2.48-1.95,4.42-4.42,4.42c-2.48,0-4.42-1.95-4.42-4.42v-46.86c0-6.19-5.04-11.23-11.23-11.23s-11.14,5.31-11.14,11.49v43.41
	c0.18,17.51,8.13,23.25,15.83,26.44c0.62,0.27,1.33,0.53,2.03,0.8c0.09,0,0.09,0,0.18,0.09h0.09c0.09,0,0.09,0,0.18,0.09
	c0.88,0.27,1.77,0.53,2.56,0.8l0.18,0.09c0.18,0.09,0.35,0.09,0.44,0.18c1.15,0.27,2.03,0.53,2.83,0.71h0.18
	c0.88,0.18,1.86,0.35,3.09,0.53l0.8,0.09c0.8,0.09,1.59,0.18,2.39,0.27h0.53c0.09,0,0.27,0,0.35,0c1.33,0.09,2.21,0.09,3.18,0.09
	c0.71,0,1.41,0,2.3-0.09c0.18,0,0.35,0,0.53,0h0.62c0.44,0,0.88-0.09,1.24-0.09c0.27,0,0.44,0,0.71-0.09h0.09
	c0.44-0.09,0.97-0.09,1.59-0.18h0.27c0.18,0,0.35-0.09,0.53-0.09c0.71-0.09,1.41-0.27,2.12-0.35l1.33-0.27
	c0.27-0.09,0.53-0.09,0.8-0.18c0.27-0.09,0.44-0.09,0.62-0.18l0.44-0.09c0.35-0.09,0.62-0.18,0.97-0.27l0.53-0.18
	c0.27-0.09,0.44-0.18,0.71-0.18c0.09-0.09,0.27-0.09,0.44-0.18l0.27-0.09c1.59-0.53,3.09-1.15,4.6-1.77l0.35-0.18
	c0.44-0.18,0.97-0.44,1.5-0.71c0.09-0.09,0.18-0.09,0.27-0.09c0.8-0.44,1.59-0.8,2.3-1.24c-0.53,0-1.06,0.09-1.59,0.09
	c-6.01,0-11.85-2.83-15.65-7.52c-3.8,4.69-9.64,7.52-15.65,7.52c-11.05,0-20.07-9.02-20.07-20.07v-46.86c0-2.48,1.95-4.42,4.42-4.42
	c2.48,0,4.42,1.95,4.42,4.42v46.86c0,6.19,5.04,11.23,11.23,11.23s11.23-5.04,11.23-11.23v-46.86c0-2.48,1.95-4.42,4.42-4.42
	s4.42,1.95,4.42,4.42v46.86c0,6.19,5.04,11.23,11.23,11.23S103.07,283.87,103.07,277.69L103.07,277.69L103.07,277.69z M24.64,279.37
	c0.27,0.35,0.44,0.8,0.71,1.24v-52.61c-0.71,1.15-1.33,2.3-1.95,3.45l-0.09,0.27c-0.27,0.53-0.53,1.06-0.71,1.5l-0.18,0.35
	c-0.62,1.41-1.24,3.01-1.86,4.6l-0.09,0.18c-0.09,0.18-0.09,0.35-0.18,0.53c-0.09,0.35-0.18,0.62-0.27,0.97l-0.18,0.62
	c-0.09,0.18-0.09,0.44-0.18,0.62c-0.09,0.35-0.18,0.71-0.27,1.15c-0.09,0.44-0.18,0.8-0.27,1.24l-0.09,0.44
	c0,0.18-0.09,0.35-0.09,0.53c-0.18,0.71-0.27,1.41-0.35,2.12v0.09c0,0.09,0,0.27-0.09,0.35v0.27c-0.09,0.62-0.18,1.06-0.18,1.59
	l-0.09,0.88c-0.09,0.62-0.09,1.06-0.09,1.59v0.27c0,0.18,0,0.27,0,0.35v0.09c0,0.8-0.09,1.59-0.09,2.3c0,0.71,0,1.5,0.09,2.39v0.71
	c0,0.62,0.09,1.15,0.09,1.68l0.09,0.71c0.09,0.8,0.18,1.5,0.27,2.21l0.09,0.27v0.09v0.09c0.09,0.62,0.18,1.24,0.27,1.68
	c0.09,0.27,0.09,0.53,0.18,0.88c0.09,0.44,0.18,0.88,0.27,1.33l0.09,0.27c0.09,0.18,0.09,0.44,0.18,0.62
	c0.18,0.62,0.35,1.33,0.53,1.95c0.09,0.27,0.18,0.44,0.18,0.71l0.09,0.27c0.09,0.35,0.27,0.71,0.35,1.06
	c0.09,0.35,0.27,0.71,0.44,1.06c0.09,0.27,0.18,0.53,0.35,0.8v0.09c0.53,1.33,1.15,2.65,1.77,3.98l0.18,0.27
	c0.09,0.09,0.09,0.27,0.18,0.35c0.27,0.44,0.44,0.88,0.71,1.24L24.64,279.37L24.64,279.37L24.64,279.37z M255.95,263.72v23.17
	l-3.36,0.53l-0.44,2.03h21.49c0.27-2.03,0.44-4.51,0.44-7.07l-2.12,0.44l-1.15,4.33l-11.14-0.35v-11.05l6.99,0.27l1.06,3.09
	l1.59-0.27v-8.4l-1.77,0.35l-0.88,2.56l-6.99,0.27v-10.35l9.73,0.27l0.97,4.07l1.86-0.53c0.27-2.56,0.35-4.07,0.35-6.01h-19.98
	l-0.35,1.77L255.95,263.72L255.95,263.72L255.95,263.72z M365.94,261.15h-23.79c0,2.3,0,5.13,0.18,7.25l1.77-0.44l1.06-4.16
	l6.81-0.35v23.43l-3.54,0.53l-0.44,2.03h11.67l0.35-1.77l-4.51-0.88v-23.43l7.25,0.35l0.97,4.69l1.68-0.44
	C365.85,266.28,365.94,263.01,365.94,261.15L365.94,261.15L365.94,261.15z M375.23,257.61c1.15,0,2.03-0.62,2.03-2.03
	c0-1.68-0.97-2.12-1.95-2.12c-1.06,0-2.03,0.53-2.03,2.12C373.28,257.17,374.34,257.61,375.23,257.61L375.23,257.61L375.23,257.61z
	 M382.3,257.61c1.15,0,2.03-0.62,2.03-2.03c0-1.68-0.97-2.12-1.95-2.12c-1.06,0-2.03,0.53-2.03,2.12
	C380.27,257.17,381.33,257.61,382.3,257.61L382.3,257.61L382.3,257.61z M364.44,287.41l-0.44,2.03h10.61l0.35-1.77l-4.69-0.88
	l2.65-7.25h10.52l2.65,7.25l-4.16,0.53l-0.35,2.03h11.49l0.35-1.77l-3.36-0.88l-9.81-26h-2.83l-10.17,26L364.44,287.41
	L364.44,287.41L364.44,287.41z M373.72,277.24c2.92-7.78,3.8-10.08,4.42-12.2c0.71,2.21,1.5,4.42,4.42,12.2H373.72L373.72,277.24
	L373.72,277.24z M401.22,263.45v23.43l-3.54,0.53l-0.44,2.03h11.67l0.35-1.77l-4.42-0.88v-23.43l7.25,0.35l0.97,4.69l1.68-0.44
	c0.27-1.86,0.44-5.04,0.44-6.9h-23.79c0,2.3,0,5.13,0.18,7.25l1.77-0.44l1.06-4.16L401.22,263.45L401.22,263.45L401.22,263.45z"/>
</svg>
