<?xml version="1.0" encoding="utf-8"?>
<!-- Generator: Adobe Illustrator 25.0.0, SVG Export Plug-In . SVG Version: 6.00 Build 0)  -->
<svg version="1.1" id="Layer_1" xmlns="http://www.w3.org/2000/svg" xmlns:xlink="http://www.w3.org/1999/xlink" x="0px" y="0px"
	 viewBox="0 0 546.02 508.68" style="enable-background:new 0 0 546.02 508.68;" xml:space="preserve">
<style type="text/css">
	.st0{fill:#FFFFFF;}
	.st1{fill:#106F77;}
	.st2{fill:#005773;}
	.st3{fill:none;stroke:#000000;stroke-width:0.2269;}
	.st4{fill:#C69A47;}
	.st5{fill:#DCDDDE;}
	.st6{fill-rule:evenodd;clip-rule:evenodd;fill:#153455;}
	.st7{fill-rule:evenodd;clip-rule:evenodd;fill:#10558E;}
	.st8{fill-rule:evenodd;clip-rule:evenodd;fill:#0187C5;}
	.st9{fill-rule:evenodd;clip-rule:evenodd;fill:#54ADD9;}
	.st10{fill-rule:evenodd;clip-rule:evenodd;fill:#90C9E7;}
	.st11{fill-rule:evenodd;clip-rule:evenodd;fill:#C2E2F3;}
	.st12{fill:#153455;}
	.st13{fill:#3E3B3D;}
	.st14{fill:#52AA35;}
	.st15{fill:#191C35;}
	.st16{fill:#F1851A;}
	.st17{fill:#326DB3;}
	.st18{fill:#0E70A0;}
	.st19{fill:#BF9F5E;}
	.st20{fill:#C9AA71;}
	.st21{fill:#CAB36A;}
	.st22{clip-path:url(#SVGID_2_);fill:#DBC47B;}
	.st23{fill:#DABC7E;}
	.st24{fill:#D3B86F;}
	.st25{fill:#CAAB62;}
	.st26{fill:#EDCC87;}
	.st27{fill:#DDC37A;}
	.st28{clip-path:url(#SVGID_4_);fill:#C9AA63;}
	.st29{clip-path:url(#SVGID_6_);fill:#C9AA72;}
	.st30{clip-path:url(#SVGID_8_);fill:#C9AA72;}
	.st31{clip-path:url(#SVGID_10_);fill:#DEC07F;}
	.st32{clip-path:url(#SVGID_12_);fill:#D8BF76;}
	.st33{clip-path:url(#SVGID_14_);fill:#9B8047;}
	.st34{clip-path:url(#SVGID_16_);fill:#94763B;}
	.st35{clip-path:url(#SVGID_18_);fill:#93783E;}
	.st36{clip-path:url(#SVGID_20_);fill:#B29252;}
	.st37{clip-path:url(#SVGID_22_);fill:#B59961;}
	.st38{clip-path:url(#SVGID_24_);fill:#DABC7E;}
	.st39{clip-path:url(#SVGID_26_);fill:#B29252;}
	.st40{fill:#93783E;}
	.st41{fill:#A88143;}
	.st42{fill:#796937;}
	.st43{fill:#BC9B5B;}
	.st44{clip-path:url(#SVGID_28_);fill:#BC9B5B;}
	.st45{clip-path:url(#SVGID_30_);fill:#9B8047;}
	.st46{fill:#CBAD65;}
	.st47{clip-path:url(#SVGID_32_);fill:#CAAB62;}
	.st48{clip-path:url(#SVGID_34_);fill:#DABC7E;}
	.st49{clip-path:url(#SVGID_36_);fill:#DABC7E;}
	.st50{clip-path:url(#SVGID_38_);fill:#DABC7E;}
	.st51{clip-path:url(#SVGID_40_);fill:#BD9D67;}
	.st52{clip-path:url(#SVGID_42_);fill:#867135;}
	.st53{clip-path:url(#SVGID_44_);fill:#DABC7E;}
	.st54{clip-path:url(#SVGID_46_);fill:#9B8047;}
	.st55{clip-path:url(#SVGID_48_);fill:#B29252;}
	.st56{clip-path:url(#SVGID_50_);fill:#B29252;}
	.st57{clip-path:url(#SVGID_52_);fill:#867135;}
	.st58{clip-path:url(#SVGID_54_);fill:#CAAB62;}
	.st59{clip-path:url(#SVGID_56_);fill:#BD9D67;}
	.st60{clip-path:url(#SVGID_58_);fill:#D3B86F;}
	.st61{clip-path:url(#SVGID_60_);fill:#B29252;}
	.st62{clip-path:url(#SVGID_62_);fill:#C09650;}
	.st63{fill:#C9AA72;}
	.st64{fill:#867135;}
	.st65{fill:#8D6C54;}
	.st66{fill:#7D6233;}
	.st67{fill:#4F3E29;}
	.st68{fill:#3E301E;}
	.st69{fill:#735832;}
	.st70{fill-rule:evenodd;clip-rule:evenodd;fill:#1D7890;}
	.st71{fill:#1D7890;}
	.st72{fill-rule:evenodd;clip-rule:evenodd;fill:url(#SVGID_63_);}
	.st73{fill-rule:evenodd;clip-rule:evenodd;fill:url(#SVGID_64_);}
	.st74{fill-rule:evenodd;clip-rule:evenodd;fill:url(#SVGID_65_);}
	.st75{fill:url(#SVGID_66_);}
	.st76{display:none;fill:none;}
	.st77{fill:url(#SVGID_67_);}
	.st78{fill:url(#SVGID_68_);}
	.st79{display:none;fill:url(#SVGID_69_);}
	.st80{fill:url(#SVGID_70_);}
	.st81{fill:url(#SVGID_71_);}
	.st82{fill:none;}
	.st83{fill:url(#SVGID_72_);}
	.st84{fill:url(#SVGID_73_);}
	.st85{fill:url(#SVGID_74_);}
	.st86{fill:url(#SVGID_75_);}
	.st87{fill:url(#SVGID_76_);}
	.st88{fill:url(#SVGID_77_);}
	.st89{fill:url(#SVGID_78_);}
	.st90{fill:url(#SVGID_79_);}
	.st91{fill:#047180;}
	.st92{fill:url(#SVGID_80_);}
	.st93{fill:#0E518C;}
	.st94{fill:url(#SVGID_81_);}
	.st95{fill:url(#SVGID_82_);}
	.st96{fill:url(#SVGID_83_);}
	.st97{fill:url(#SVGID_84_);}
	.st98{fill:url(#SVGID_85_);}
	.st99{fill:url(#SVGID_86_);}
	.st100{fill:url(#SVGID_87_);}
	.st101{fill:url(#SVGID_88_);}
	.st102{fill:url(#SVGID_89_);}
	.st103{fill:url(#SVGID_90_);}
	.st104{fill:url(#SVGID_91_);}
	.st105{fill:url(#SVGID_92_);}
	.st106{fill:url(#SVGID_93_);}
	.st107{fill:url(#SVGID_94_);}
	.st108{fill:url(#SVGID_95_);}
	.st109{fill:url(#SVGID_96_);}
	.st110{fill:url(#SVGID_97_);}
	.st111{fill:url(#SVGID_98_);}
	.st112{fill:url(#SVGID_99_);}
	.st113{fill:url(#SVGID_100_);}
	.st114{fill:url(#SVGID_101_);}
	.st115{fill:url(#SVGID_102_);}
	.st116{fill:url(#SVGID_103_);}
	.st117{fill:#31578B;}
	.st118{fill:url(#SVGID_104_);}
	.st119{fill:url(#SVGID_105_);}
	.st120{fill:url(#SVGID_106_);}
	.st121{display:none;fill:url(#SVGID_107_);}
	.st122{fill:url(#SVGID_108_);}
	.st123{fill:url(#SVGID_109_);}
	.st124{fill:url(#SVGID_110_);}
	.st125{fill:url(#SVGID_111_);}
	.st126{fill:url(#SVGID_112_);}
	.st127{fill:url(#SVGID_113_);}
	.st128{fill:url(#SVGID_114_);}
	.st129{fill:url(#SVGID_115_);}
	.st130{fill:url(#SVGID_116_);}
	.st131{fill:url(#SVGID_117_);}
	.st132{fill:#015D84;}
	.st133{fill:url(#SVGID_118_);}
	.st134{fill:url(#SVGID_119_);}
	.st135{fill:url(#SVGID_120_);}
	.st136{fill:url(#SVGID_121_);}
	.st137{fill:url(#SVGID_122_);}
	.st138{fill:url(#SVGID_123_);}
	.st139{fill:url(#SVGID_124_);}
	.st140{fill:#005A85;}
	.st141{fill:url(#SVGID_125_);}
	.st142{fill:url(#SVGID_126_);}
	.st143{fill:url(#SVGID_127_);}
	.st144{fill:url(#SVGID_128_);}
	.st145{fill:url(#SVGID_129_);}
	.st146{fill:url(#SVGID_130_);}
	.st147{fill:url(#SVGID_131_);}
	.st148{fill:url(#SVGID_132_);}
	.st149{fill:url(#SVGID_133_);}
	.st150{fill:url(#SVGID_134_);}
	.st151{fill:url(#SVGID_135_);}
	.st152{fill:url(#SVGID_136_);}
	.st153{fill:url(#SVGID_137_);}
	.st154{fill:url(#SVGID_138_);}
	.st155{fill:url(#SVGID_139_);}
	.st156{fill:url(#SVGID_140_);}
	.st157{fill:url(#SVGID_141_);}
	.st158{fill:url(#SVGID_142_);}
	.st159{fill:url(#SVGID_143_);}
	.st160{fill:url(#SVGID_144_);}
	.st161{fill:url(#SVGID_145_);}
	.st162{fill:url(#SVGID_146_);}
	.st163{fill:url(#SVGID_147_);}
	.st164{fill:url(#SVGID_148_);}
	.st165{fill:url(#SVGID_149_);}
	.st166{fill:url(#SVGID_150_);}
	.st167{fill:url(#SVGID_151_);}
	.st168{fill:url(#SVGID_152_);}
	.st169{fill:url(#SVGID_153_);}
	.st170{fill:url(#SVGID_154_);}
	.st171{fill:url(#SVGID_155_);}
	.st172{fill:url(#SVGID_156_);}
	.st173{fill:url(#SVGID_157_);}
	.st174{fill:url(#SVGID_158_);}
	.st175{fill:url(#SVGID_159_);}
	.st176{fill:url(#SVGID_160_);}
	.st177{fill:url(#SVGID_161_);}
	.st178{fill:url(#SVGID_162_);}
	.st179{fill:url(#SVGID_163_);}
	.st180{fill:url(#SVGID_164_);}
	.st181{fill:url(#SVGID_165_);}
	.st182{fill:url(#SVGID_166_);}
	.st183{fill:url(#SVGID_167_);}
	.st184{fill:url(#SVGID_168_);}
	.st185{fill:url(#SVGID_169_);}
	.st186{fill:url(#SVGID_170_);}
	.st187{fill:url(#SVGID_171_);}
	.st188{fill:url(#SVGID_172_);}
	.st189{fill:url(#SVGID_173_);}
	.st190{fill:url(#SVGID_174_);}
	.st191{fill:url(#SVGID_175_);}
	.st192{fill:url(#SVGID_176_);}
	.st193{fill:url(#SVGID_177_);}
	.st194{fill:url(#SVGID_178_);}
	.st195{fill:url(#SVGID_179_);}
	.st196{fill:url(#SVGID_180_);}
	.st197{fill:url(#SVGID_181_);}
	.st198{fill:url(#SVGID_182_);}
	.st199{fill:url(#SVGID_183_);}
	.st200{fill:url(#SVGID_184_);}
	.st201{fill:url(#SVGID_185_);}
	.st202{fill:url(#SVGID_186_);}
	.st203{fill:url(#SVGID_187_);}
	.st204{fill:url(#SVGID_188_);}
	.st205{fill:url(#SVGID_189_);}
	.st206{fill:url(#SVGID_190_);}
	.st207{fill:url(#SVGID_191_);}
	.st208{fill:url(#SVGID_192_);}
	.st209{fill:url(#SVGID_193_);}
	.st210{fill:url(#SVGID_194_);}
	.st211{fill:url(#SVGID_195_);}
	.st212{fill:url(#SVGID_196_);}
	.st213{fill:url(#SVGID_197_);}
	.st214{fill:url(#SVGID_198_);}
	.st215{fill:url(#SVGID_199_);}
	.st216{fill:#007580;}
	.st217{fill:#98989A;}
	.st218{fill-rule:evenodd;clip-rule:evenodd;fill:#3A3636;}
	.st219{fill-rule:evenodd;clip-rule:evenodd;fill:#E18750;}
	.st220{fill:#111D4E;}
	.st221{fill:#FBD42C;}
	.st222{fill:#808184;}
	.st223{fill-rule:evenodd;clip-rule:evenodd;}
	.st224{clip-path:url(#SVGID_201_);}
	.st225{clip-path:url(#SVGID_203_);}
	.st226{clip-path:url(#SVGID_205_);}
	.st227{clip-path:url(#SVGID_207_);}
	.st228{clip-path:url(#SVGID_209_);}
	.st229{clip-path:url(#SVGID_211_);}
	.st230{clip-path:url(#SVGID_213_);}
	.st231{clip-path:url(#SVGID_215_);}
	.st232{clip-path:url(#SVGID_217_);}
	.st233{clip-path:url(#SVGID_219_);}
	.st234{clip-path:url(#SVGID_221_);}
	.st235{clip-path:url(#SVGID_223_);}
	.st236{clip-path:url(#SVGID_225_);}
	.st237{clip-path:url(#SVGID_227_);}
	.st238{clip-path:url(#SVGID_229_);}
	.st239{clip-path:url(#SVGID_231_);}
	.st240{display:none;}
	.st241{fill-rule:evenodd;clip-rule:evenodd;fill:#C6C6C6;}
	.st242{fill-rule:evenodd;clip-rule:evenodd;fill:url(#SVGID_232_);}
	.st243{fill-rule:evenodd;clip-rule:evenodd;fill:#722582;}
	.st244{fill:#00539F;}
	.st245{fill:#ED1C24;}
	.st246{fill:#009D8E;}
</style>
<g>
	<g>
		<g>
			<g>
				<path class="st221" d="M18.44,343.2V165.14h124.28V343.2H18.44z M124.74,325.26V183.07H36.35v142.19H124.74z"/>
			</g>
		</g>
	</g>
	<g>
		<path d="M208.66,214.96h-6.16c-8.05-11.38-16.05-22.7-24.04-35.5h-0.06v35.5h-6.8v-49.51h6.16c8.05,11.32,16.05,22.56,23.98,35.3
			h0.14v-35.3h6.8v49.51H208.66z"/>
		<path d="M224.77,195.38c1.97-6.51,3.97-12.51,5.73-20.15h0.14c1.99,7.64,3.76,13.66,5.59,20.15H224.77z M228.04,165.44
			l-17.11,49.51h7.36l4.31-13.52h14.94l3.88,13.52h9.47l-15.78-49.51H228.04z"/>
		<path d="M258.88,214.96V172.1h-13v-6.64h34.52v6.64h-13.03v42.86H258.88z"/>
		<path d="M283.12,214.96v-49.51h8.42v49.51H283.12z"/>
		<path d="M317.72,208.73c-8.83,0-11.96-9.76-11.96-19.23c0-9.12,3.53-17.83,11.96-17.83c8.4,0,11.96,8.71,11.96,17.83
			C329.67,198.97,326.55,208.73,317.72,208.73z M317.72,215.8c12.94,0,21.02-11.53,21.02-26.3c0-13.87-8.92-24.9-21.02-24.9
			c-12.1,0-21.02,11.03-21.02,24.9C296.7,204.27,304.77,215.8,317.72,215.8z"/>
		<path d="M380.95,214.96h-6.16c-8.05-11.38-16.05-22.7-24.04-35.5h-0.06v35.5h-6.8v-49.51h6.16c8.05,11.32,16.07,22.56,23.98,35.3
			h0.14v-35.3h6.78L380.95,214.96L380.95,214.96z"/>
		<path d="M397.08,195.38c1.97-6.51,3.97-12.51,5.73-20.15h0.14c1.99,7.64,3.76,13.66,5.59,20.15H397.08z M400.33,165.44
			l-17.13,49.51h7.36l4.31-13.52h14.92l3.88,13.52h9.47l-15.78-49.51H400.33z"/>
		<path d="M425.64,165.44h8.42v42.86h16.76v6.64h-25.17v-49.49H425.64z"/>
		<g>
			<path d="M203.43,256.38v20.44c-4.54,1.77-9.27,3.04-14.07,3.04c-14.57,0-23.77-11.32-23.77-25.89c0-13.5,9.2-25.31,24.06-25.31
				c4.6,0,9.18,1.71,12.02,3.82l-2.75,5.88c-2.26-1.42-5.79-2.61-9.06-2.61c-9.06,0-15.2,7.15-15.2,18.39
				c0,11.75,7.07,18.68,14.36,18.68c2.26,0,4.17-0.29,5.94-1.21v-15.2h8.49V256.38z"/>
			<path d="M233.77,236.16h-14.16v13.58h13.87v6.64h-13.87v15.98h16.7v6.66h-25.17V229.5h22.64v6.66H233.77z"/>
			<path d="M259.94,272.79c-8.83,0-11.96-9.76-11.96-19.25c0-9.12,3.53-17.81,11.96-17.81c8.42,0,11.96,8.71,11.96,17.81
				C271.9,263.03,268.78,272.79,259.94,272.79z M259.94,279.86c12.94,0,21-11.53,21-26.3c0-13.87-8.92-24.9-21-24.9
				c-12.1,0-21,11.03-21,24.9C238.95,268.33,247,279.86,259.94,279.86z"/>
			<path d="M321.68,256.38v20.44c-4.52,1.77-9.27,3.04-14.07,3.04c-14.57,0-23.77-11.32-23.77-25.89c0-13.5,9.18-25.31,24.04-25.31
				c4.6,0,9.18,1.71,12.02,3.82l-2.75,5.88c-2.26-1.42-5.81-2.61-9.06-2.61c-9.06,0-15.2,7.15-15.2,18.39
				c0,11.75,7.07,18.68,14.36,18.68c2.26,0,4.17-0.29,5.94-1.21v-15.2h8.51V256.38z"/>
			<path d="M337.95,236.16h3.76c5.03,0,7.85,2.9,7.85,7.99c0,6.64-4.03,9.61-8.05,9.82c-0.84,0.08-2.84,0.14-3.53,0.23v-18.04
				H337.95z M359.46,279.02l-9.96-20.5c5.44-2.9,8.55-8.77,8.55-14.71c0-9.61-5.88-14.3-15.35-14.3h-13.21v49.51h8.49v-18.68h3.68
				h0.14l7.99,18.68C349.79,279.02,359.46,279.02,359.46,279.02z"/>
			<path d="M373.46,259.42c1.99-6.51,3.97-12.53,5.73-20.15h0.14c1.97,7.62,3.74,13.64,5.59,20.15H373.46z M376.72,229.5
				l-17.13,49.51h7.36l4.31-13.5h14.92l3.88,13.5h9.47l-15.78-49.51C383.75,229.5,376.72,229.5,376.72,229.5z"/>
			<path d="M410.74,279.02h-8.49V229.5h13.23c9.47,0,15.35,4.66,15.35,14.3c0,8.34-6.16,16.54-16.27,16.54h-3.97v-6.16
				c0.43-0.08,2.75-0.14,3.68-0.23c4.03-0.21,8.07-3.18,8.07-9.82c0-5.1-2.81-7.99-7.77-7.99h-3.82v42.88H410.74z"/>
			<path d="M470.16,279.02h-8.49v-23.83h-17.61v23.83h-8.4V229.5h8.4v19.02h17.61v-18.88h8.49V279.02z"/>
			<path d="M478.3,279.02V229.5h8.42v49.51H478.3z"/>
			<path d="M524.89,238.48c-2.05-1.27-5.44-2.75-8.69-2.75c-8.63,0-14.94,7.15-14.94,18.39c0,11.75,6.94,18.68,15.14,18.68
				c3.25,0,6.31-1.07,8.49-2.49l2.34,6.16c-2.55,1.77-7.07,3.39-11.18,3.39c-14.57,0-23.77-11.32-23.77-25.89
				c0-13.5,9.12-25.31,23.91-25.31c4.4,0,8.49,1.85,11.38,3.82L524.89,238.48z"/>
		</g>
	</g>
	<g>
		<path class="st222" d="M197.94,302.81c-2.03-1.27-5.42-2.75-8.67-2.75c-8.61,0-14.9,7.13-14.9,18.35
			c0,11.71,6.92,18.61,15.1,18.61c3.25,0,6.29-1.05,8.46-2.47l2.32,6.14c-2.55,1.77-7.05,3.39-11.14,3.39
			c-14.53,0-23.71-11.3-23.71-25.8c0-13.48,9.1-25.25,23.85-25.25c4.38,0,8.46,1.83,11.36,3.8L197.94,302.81z"/>
		<path class="st222" d="M237.65,343.22h-8.46v-23.75h-17.57v23.77h-8.4v-49.39h8.4v18.98h17.57v-18.84h8.46
			C237.65,293.99,237.65,343.22,237.65,343.22z"/>
		<path class="st222" d="M254.52,323.68c1.97-6.49,3.94-12.49,5.71-20.11h0.14c1.97,7.62,3.74,13.62,5.57,20.11H254.52z
			 M257.77,293.85l-17.07,49.37h7.33l4.29-13.48h14.87l3.88,13.48h9.45l-15.74-49.37H257.77z"/>
		<path class="st222" d="M320.55,343.22h-6.14c-8.05-11.36-16.02-22.64-23.98-35.42h-0.08v35.42h-6.78v-49.37h6.14
			c8.03,11.28,16,22.5,23.91,35.19h0.14v-35.19h6.78L320.55,343.22L320.55,343.22z"/>
		<path class="st222" d="M365.48,343.22h-6.14c-8.03-11.36-16-22.64-23.98-35.42h-0.08v35.42h-6.78v-49.37h6.14
			c8.03,11.28,16,22.5,23.91,35.19h0.14v-35.19h6.78L365.48,343.22L365.48,343.22z"/>
		<path class="st222" d="M394.68,300.49h-14.11v13.54h13.83v6.64h-13.83v15.94h16.64v6.64H372.1v-49.39h22.58L394.68,300.49
			L394.68,300.49z"/>
		<path class="st222" d="M401.95,293.85h8.4v42.75h16.72v6.64h-25.13V293.85z"/>
	</g>
</g>
</svg>
