<?xml version="1.0" encoding="utf-8"?>
<!-- Generator: Adobe Illustrator 25.0.0, SVG Export Plug-In . SVG Version: 6.00 Build 0)  -->
<svg version="1.1" id="Layer_1" xmlns="http://www.w3.org/2000/svg" xmlns:xlink="http://www.w3.org/1999/xlink" x="0px" y="0px"
	 viewBox="0 0 546.02 508.68" style="enable-background:new 0 0 546.02 508.68;" xml:space="preserve">
<style type="text/css">
	.st0{fill:#FFFFFF;}
	.st1{fill:#106F77;}
	.st2{fill:#005773;}
	.st3{fill:none;stroke:#000000;stroke-width:0.2269;}
	.st4{fill:#C69A47;}
	.st5{fill:#DCDDDE;}
	.st6{fill-rule:evenodd;clip-rule:evenodd;fill:#153455;}
	.st7{fill-rule:evenodd;clip-rule:evenodd;fill:#10558E;}
	.st8{fill-rule:evenodd;clip-rule:evenodd;fill:#0187C5;}
	.st9{fill-rule:evenodd;clip-rule:evenodd;fill:#54ADD9;}
	.st10{fill-rule:evenodd;clip-rule:evenodd;fill:#90C9E7;}
	.st11{fill-rule:evenodd;clip-rule:evenodd;fill:#C2E2F3;}
	.st12{fill:#153455;}
	.st13{fill:#3E3B3D;}
	.st14{fill:#52AA35;}
	.st15{fill:#191C35;}
	.st16{fill:#F1851A;}
	.st17{fill:#326DB3;}
	.st18{fill:#0E70A0;}
	.st19{fill:#BF9F5E;}
	.st20{fill:#C9AA71;}
	.st21{fill:#CAB36A;}
	.st22{clip-path:url(#SVGID_2_);fill:#DBC47B;}
	.st23{fill:#DABC7E;}
	.st24{fill:#D3B86F;}
	.st25{fill:#CAAB62;}
	.st26{fill:#EDCC87;}
	.st27{fill:#DDC37A;}
	.st28{clip-path:url(#SVGID_4_);fill:#C9AA63;}
	.st29{clip-path:url(#SVGID_6_);fill:#C9AA72;}
	.st30{clip-path:url(#SVGID_8_);fill:#C9AA72;}
	.st31{clip-path:url(#SVGID_10_);fill:#DEC07F;}
	.st32{clip-path:url(#SVGID_12_);fill:#D8BF76;}
	.st33{clip-path:url(#SVGID_14_);fill:#9B8047;}
	.st34{clip-path:url(#SVGID_16_);fill:#94763B;}
	.st35{clip-path:url(#SVGID_18_);fill:#93783E;}
	.st36{clip-path:url(#SVGID_20_);fill:#B29252;}
	.st37{clip-path:url(#SVGID_22_);fill:#B59961;}
	.st38{clip-path:url(#SVGID_24_);fill:#DABC7E;}
	.st39{clip-path:url(#SVGID_26_);fill:#B29252;}
	.st40{fill:#93783E;}
	.st41{fill:#A88143;}
	.st42{fill:#796937;}
	.st43{fill:#BC9B5B;}
	.st44{clip-path:url(#SVGID_28_);fill:#BC9B5B;}
	.st45{clip-path:url(#SVGID_30_);fill:#9B8047;}
	.st46{fill:#CBAD65;}
	.st47{clip-path:url(#SVGID_32_);fill:#CAAB62;}
	.st48{clip-path:url(#SVGID_34_);fill:#DABC7E;}
	.st49{clip-path:url(#SVGID_36_);fill:#DABC7E;}
	.st50{clip-path:url(#SVGID_38_);fill:#DABC7E;}
	.st51{clip-path:url(#SVGID_40_);fill:#BD9D67;}
	.st52{clip-path:url(#SVGID_42_);fill:#867135;}
	.st53{clip-path:url(#SVGID_44_);fill:#DABC7E;}
	.st54{clip-path:url(#SVGID_46_);fill:#9B8047;}
	.st55{clip-path:url(#SVGID_48_);fill:#B29252;}
	.st56{clip-path:url(#SVGID_50_);fill:#B29252;}
	.st57{clip-path:url(#SVGID_52_);fill:#867135;}
	.st58{clip-path:url(#SVGID_54_);fill:#CAAB62;}
	.st59{clip-path:url(#SVGID_56_);fill:#BD9D67;}
	.st60{clip-path:url(#SVGID_58_);fill:#D3B86F;}
	.st61{clip-path:url(#SVGID_60_);fill:#B29252;}
	.st62{clip-path:url(#SVGID_62_);fill:#C09650;}
	.st63{fill:#C9AA72;}
	.st64{fill:#867135;}
	.st65{fill:#8D6C54;}
	.st66{fill:#7D6233;}
	.st67{fill:#4F3E29;}
	.st68{fill:#3E301E;}
	.st69{fill:#735832;}
	.st70{fill-rule:evenodd;clip-rule:evenodd;fill:#1D7890;}
	.st71{fill:#1D7890;}
	.st72{fill-rule:evenodd;clip-rule:evenodd;fill:url(#SVGID_63_);}
	.st73{fill-rule:evenodd;clip-rule:evenodd;fill:url(#SVGID_64_);}
	.st74{fill-rule:evenodd;clip-rule:evenodd;fill:url(#SVGID_65_);}
	.st75{fill:url(#SVGID_66_);}
	.st76{display:none;fill:none;}
	.st77{fill:url(#SVGID_67_);}
	.st78{fill:url(#SVGID_68_);}
	.st79{display:none;fill:url(#SVGID_69_);}
	.st80{fill:url(#SVGID_70_);}
	.st81{fill:url(#SVGID_71_);}
	.st82{fill:none;}
	.st83{fill:url(#SVGID_72_);}
	.st84{fill:url(#SVGID_73_);}
	.st85{fill:url(#SVGID_74_);}
	.st86{fill:url(#SVGID_75_);}
	.st87{fill:url(#SVGID_76_);}
	.st88{fill:url(#SVGID_77_);}
	.st89{fill:url(#SVGID_78_);}
	.st90{fill:url(#SVGID_79_);}
	.st91{fill:#047180;}
	.st92{fill:url(#SVGID_80_);}
	.st93{fill:#0E518C;}
	.st94{fill:url(#SVGID_81_);}
	.st95{fill:url(#SVGID_82_);}
	.st96{fill:url(#SVGID_83_);}
	.st97{fill:url(#SVGID_84_);}
	.st98{fill:url(#SVGID_85_);}
	.st99{fill:url(#SVGID_86_);}
	.st100{fill:url(#SVGID_87_);}
	.st101{fill:url(#SVGID_88_);}
	.st102{fill:url(#SVGID_89_);}
	.st103{fill:url(#SVGID_90_);}
	.st104{fill:url(#SVGID_91_);}
	.st105{fill:url(#SVGID_92_);}
	.st106{fill:url(#SVGID_93_);}
	.st107{fill:url(#SVGID_94_);}
	.st108{fill:url(#SVGID_95_);}
	.st109{fill:url(#SVGID_96_);}
	.st110{fill:url(#SVGID_97_);}
	.st111{fill:url(#SVGID_98_);}
	.st112{fill:url(#SVGID_99_);}
	.st113{fill:url(#SVGID_100_);}
	.st114{fill:url(#SVGID_101_);}
	.st115{fill:url(#SVGID_102_);}
	.st116{fill:url(#SVGID_103_);}
	.st117{fill:#31578B;}
	.st118{fill:url(#SVGID_104_);}
	.st119{fill:url(#SVGID_105_);}
	.st120{fill:url(#SVGID_106_);}
	.st121{display:none;fill:url(#SVGID_107_);}
	.st122{fill:url(#SVGID_108_);}
	.st123{fill:url(#SVGID_109_);}
	.st124{fill:url(#SVGID_110_);}
	.st125{fill:url(#SVGID_111_);}
	.st126{fill:url(#SVGID_112_);}
	.st127{fill:url(#SVGID_113_);}
	.st128{fill:url(#SVGID_114_);}
	.st129{fill:url(#SVGID_115_);}
	.st130{fill:url(#SVGID_116_);}
	.st131{fill:url(#SVGID_117_);}
	.st132{fill:#015D84;}
	.st133{fill:url(#SVGID_118_);}
	.st134{fill:url(#SVGID_119_);}
	.st135{fill:url(#SVGID_120_);}
	.st136{fill:url(#SVGID_121_);}
	.st137{fill:url(#SVGID_122_);}
	.st138{fill:url(#SVGID_123_);}
	.st139{fill:url(#SVGID_124_);}
	.st140{fill:#005A85;}
	.st141{fill:url(#SVGID_125_);}
	.st142{fill:url(#SVGID_126_);}
	.st143{fill:url(#SVGID_127_);}
	.st144{fill:url(#SVGID_128_);}
	.st145{fill:url(#SVGID_129_);}
	.st146{fill:url(#SVGID_130_);}
	.st147{fill:url(#SVGID_131_);}
	.st148{fill:url(#SVGID_132_);}
	.st149{fill:url(#SVGID_133_);}
	.st150{fill:url(#SVGID_134_);}
	.st151{fill:url(#SVGID_135_);}
	.st152{fill:url(#SVGID_136_);}
	.st153{fill:url(#SVGID_137_);}
	.st154{fill:url(#SVGID_138_);}
	.st155{fill:url(#SVGID_139_);}
	.st156{fill:url(#SVGID_140_);}
	.st157{fill:url(#SVGID_141_);}
	.st158{fill:url(#SVGID_142_);}
	.st159{fill:url(#SVGID_143_);}
	.st160{fill:url(#SVGID_144_);}
	.st161{fill:url(#SVGID_145_);}
	.st162{fill:url(#SVGID_146_);}
	.st163{fill:url(#SVGID_147_);}
	.st164{fill:url(#SVGID_148_);}
	.st165{fill:url(#SVGID_149_);}
	.st166{fill:url(#SVGID_150_);}
	.st167{fill:url(#SVGID_151_);}
	.st168{fill:url(#SVGID_152_);}
	.st169{fill:url(#SVGID_153_);}
	.st170{fill:url(#SVGID_154_);}
	.st171{fill:url(#SVGID_155_);}
	.st172{fill:url(#SVGID_156_);}
	.st173{fill:url(#SVGID_157_);}
	.st174{fill:url(#SVGID_158_);}
	.st175{fill:url(#SVGID_159_);}
	.st176{fill:url(#SVGID_160_);}
	.st177{fill:url(#SVGID_161_);}
	.st178{fill:url(#SVGID_162_);}
	.st179{fill:url(#SVGID_163_);}
	.st180{fill:url(#SVGID_164_);}
	.st181{fill:url(#SVGID_165_);}
	.st182{fill:url(#SVGID_166_);}
	.st183{fill:url(#SVGID_167_);}
	.st184{fill:url(#SVGID_168_);}
	.st185{fill:url(#SVGID_169_);}
	.st186{fill:url(#SVGID_170_);}
	.st187{fill:url(#SVGID_171_);}
	.st188{fill:url(#SVGID_172_);}
	.st189{fill:url(#SVGID_173_);}
	.st190{fill:url(#SVGID_174_);}
	.st191{fill:url(#SVGID_175_);}
	.st192{fill:url(#SVGID_176_);}
	.st193{fill:url(#SVGID_177_);}
	.st194{fill:url(#SVGID_178_);}
	.st195{fill:url(#SVGID_179_);}
	.st196{fill:url(#SVGID_180_);}
	.st197{fill:url(#SVGID_181_);}
	.st198{fill:url(#SVGID_182_);}
	.st199{fill:url(#SVGID_183_);}
	.st200{fill:url(#SVGID_184_);}
	.st201{fill:url(#SVGID_185_);}
	.st202{fill:url(#SVGID_186_);}
	.st203{fill:url(#SVGID_187_);}
	.st204{fill:url(#SVGID_188_);}
	.st205{fill:url(#SVGID_189_);}
	.st206{fill:url(#SVGID_190_);}
	.st207{fill:url(#SVGID_191_);}
	.st208{fill:url(#SVGID_192_);}
	.st209{fill:url(#SVGID_193_);}
	.st210{fill:url(#SVGID_194_);}
	.st211{fill:url(#SVGID_195_);}
	.st212{fill:url(#SVGID_196_);}
	.st213{fill:url(#SVGID_197_);}
	.st214{fill:url(#SVGID_198_);}
	.st215{fill:url(#SVGID_199_);}
	.st216{fill:#007580;}
	.st217{fill:#98989A;}
	.st218{fill-rule:evenodd;clip-rule:evenodd;fill:#3A3636;}
	.st219{fill-rule:evenodd;clip-rule:evenodd;fill:#E18750;}
	.st220{fill:#111D4E;}
	.st221{fill:#FBD42C;}
	.st222{fill:#808184;}
	.st223{fill-rule:evenodd;clip-rule:evenodd;}
	.st224{clip-path:url(#SVGID_201_);}
	.st225{clip-path:url(#SVGID_203_);}
	.st226{clip-path:url(#SVGID_205_);}
	.st227{clip-path:url(#SVGID_207_);}
	.st228{clip-path:url(#SVGID_209_);}
	.st229{clip-path:url(#SVGID_211_);}
	.st230{clip-path:url(#SVGID_213_);}
	.st231{clip-path:url(#SVGID_215_);}
	.st232{clip-path:url(#SVGID_217_);}
	.st233{clip-path:url(#SVGID_219_);}
	.st234{clip-path:url(#SVGID_221_);}
	.st235{clip-path:url(#SVGID_223_);}
	.st236{clip-path:url(#SVGID_225_);}
	.st237{clip-path:url(#SVGID_227_);}
	.st238{clip-path:url(#SVGID_229_);}
	.st239{clip-path:url(#SVGID_231_);}
	.st240{display:none;}
	.st241{fill-rule:evenodd;clip-rule:evenodd;fill:#C6C6C6;}
	.st242{fill-rule:evenodd;clip-rule:evenodd;fill:url(#SVGID_232_);}
	.st243{fill-rule:evenodd;clip-rule:evenodd;fill:#722582;}
	.st244{fill:#00539F;}
	.st245{fill:#ED1C24;}
	.st246{fill:#009D8E;}
</style>
<g>
	<path class="st244" d="M66.48,225.47h32.46c8.03,0,10.36-2.54,10.36-9.33c0-6.79-2.33-9.33-10.36-9.33H66.48V225.47z M66.48,266.48
		c0,2.33,0.42,3.17,2.96,3.17v1.47H48.46v-1.47c2.54,0,2.96-0.84,2.96-3.17v-67.62c0-2.33-0.42-3.17-2.96-3.17v-1.52h50.67
		c16.69,0,25.16,8.46,25.16,21.89c0,13.43-6.76,21.89-25.16,21.89H66.49v28.53H66.48z"/>
	<path class="st244" d="M425.79,233.3c0,17.3,12.75,26.54,28.5,26.54s28.59-9.21,28.59-26.54s-12.82-26.54-28.59-26.54
		S425.79,216.09,425.79,233.3 M497.52,233.3c0,25.09-19.28,38.75-43.23,38.75s-43.21-13.66-43.21-38.75s19.28-38.78,43.21-38.78
		S497.52,208.23,497.52,233.3"/>
	<path class="st244" d="M149.42,266.48c0,2.33,0.52,3.13,3.85,3.13v1.44h-22.24v-1.44c3.31,0,3.73-0.84,3.73-3.13v-66.34
		c0-2.33-0.42-3.11-3.73-3.11v-1.47h22.29V197c-3.31,0.02-3.89,0.84-3.89,3.13V266.48z"/>
	<path class="st244" d="M205.97,266.48c0,2.33,0.52,3.13,3.22,3.13v1.44h-20.98v-1.44c2.7,0,3.11-0.84,3.11-3.13v-58.66h-25.06
		c-2.5,0-3.52,0.84-3.52,2.59h-1.47v-17.3h1.47c0,1.65,1.02,2.5,3.52,2.5h64.78c2.5,0,3.52-0.82,3.52-2.5H236v17.3h-1.44
		c0-1.77-1.02-2.59-3.52-2.59h-25.07V266.48z"/>
	<path class="st244" d="M306.13,217.78l-1.65-0.93c0.12-0.47,0.19-0.96,0.21-1.44c0-1.35-9.75-8.6-26.65-8.6
		c-16.16,0-23.11,4.96-23.11,11.4c0,17,61.05-7.88,61.05,29.64c0,13.69-13.27,24.26-39.8,24.26c-25.3,0-32.64-8.09-34.97-8.09
		c-0.61,0-0.93,0.52-1.44,0.84l-1.35-0.33l8.6-17.63l1.65,0.84c0,0.42-0.21,0.84-0.21,1.65c0,6.11,13.38,10.47,26.63,10.47
		c18.86,0,25.3-5.39,25.3-11.1c0-20.31-60.21,4.87-60.21-29.55c0-17.42,18.35-24.67,38.45-24.67c18.02,0,30.68,7.88,31.92,7.88
		s1.56-0.42,1.87-0.72l1.65,0.52L306.13,217.78z"/>
	<path class="st244" d="M396.45,218.37l-1.56-0.84c0.05-0.55,0.05-1.1,0-1.65c0-2.5-12.55-9.12-25.48-9.12
		c-16.39,0-31.11,7.49-31.11,26.54s14.84,26.54,32.64,26.54c14.41,0,26.74-8.09,26.74-12.75c-0.02-0.64-0.17-1.27-0.42-1.87
		l1.02-0.72l10.68,15.23l-0.84,0.42c-0.38-0.19-0.81-0.29-1.24-0.3c-3.11,0-11.1,12.22-37.31,12.22
		c-23.11,0-46.02-11.49-46.02-38.75c0-24.26,21.36-38.78,46.63-38.78c18.23,0,30.48,8.09,32.64,8.09c0.96,0.11,1.88-0.38,2.33-1.24
		l1.44,0.52L396.45,218.37z"/>
	<rect x="47.72" y="280.84" class="st245" width="450.59" height="3.89"/>
	<path class="st244" d="M54.14,306.45v4.66h11.9c0.28,0.02,0.56-0.07,0.79-0.24c0.23-0.23,0.38-0.52,0.44-0.84h0.54v5.55h-0.46
		c-0.06-0.32-0.21-0.61-0.44-0.84c-0.23-0.17-0.51-0.25-0.79-0.24H48.57v-0.46c0.32-0.07,0.6-0.21,0.82-0.44
		c0.17-0.23,0.25-0.51,0.24-0.79v-15.43c0.02-0.28-0.06-0.56-0.24-0.79c-0.24-0.21-0.53-0.37-0.84-0.44v-0.46h16.93
		c0.29,0.02,0.59-0.06,0.82-0.24c0.23-0.23,0.38-0.52,0.44-0.84h0.44v5.55h-0.44c-0.06-0.32-0.21-0.61-0.44-0.84
		c-0.24-0.17-0.53-0.26-0.82-0.24H54.14v4.18h6.99c0.28,0.02,0.56-0.07,0.79-0.24c0.23-0.24,0.39-0.52,0.46-0.84h0.44v5.41h-0.39
		c-0.07-0.32-0.21-0.61-0.44-0.84c-0.24-0.17-0.53-0.26-0.82-0.24L54.14,306.45z"/>
	<path class="st244" d="M102.79,312.7v-15.32c0.02-0.28-0.06-0.56-0.24-0.79c-0.24-0.21-0.53-0.37-0.84-0.44v-0.46h10.99
		c1.85-0.07,3.68,0.23,5.41,0.87c1.8,0.75,3.23,2.18,3.98,3.98c0.6,1.43,0.89,2.97,0.87,4.52c0.19,2.74-0.87,5.4-2.87,7.27
		c-0.88,0.75-1.91,1.31-3.03,1.61c-1.43,0.36-2.89,0.53-4.36,0.5h-10.94v-0.46c0.32-0.06,0.61-0.21,0.84-0.44
		C102.76,313.27,102.82,312.99,102.79,312.7z M107.27,311.02h4.85c1.73,0.15,3.46-0.39,4.78-1.52c2.07-2.62,2.07-6.31,0-8.93
		c-0.54-0.53-1.19-0.92-1.91-1.15c-0.93-0.27-1.9-0.39-2.87-0.37h-4.78L107.27,311.02z"/>
	<path class="st244" d="M177.08,297.38v9.9c0.15,1.77-0.33,3.53-1.33,4.99c-1.44,1.76-4.15,2.63-8.14,2.63
		c-2.25,0.07-4.48-0.39-6.53-1.33c-1.06-0.53-1.89-1.42-2.33-2.52c-0.44-1.2-0.64-2.48-0.61-3.76v-9.94
		c0.02-0.28-0.06-0.56-0.24-0.79c-0.24-0.21-0.53-0.37-0.84-0.44v-0.46h6.62v0.46c-0.32,0.07-0.61,0.21-0.84,0.44
		c-0.17,0.23-0.25,0.51-0.24,0.79v9.03c-0.02,0.79,0.08,1.58,0.28,2.33c0.18,0.55,0.52,1.02,0.98,1.37c2.44,1.45,5.48,1.45,7.92,0
		c0.44-0.35,0.77-0.83,0.93-1.37c0.19-0.77,0.28-1.54,0.26-2.33v-9.03c0.02-0.28-0.07-0.56-0.24-0.79
		c-0.24-0.23-0.53-0.37-0.84-0.44v-0.46h6.22v0.46c-0.32,0.07-0.61,0.21-0.84,0.44C177.15,296.82,177.06,297.1,177.08,297.38z"/>
	<path class="st244" d="M230.93,307.69l2.83,4.13l-0.39,0.28c-0.18-0.15-0.39-0.25-0.63-0.28c-0.47,0.12-0.92,0.33-1.33,0.61
		c-1.27,0.78-2.63,1.41-4.05,1.87c-1.32,0.36-2.69,0.54-4.05,0.52c-2.66,0.1-5.27-0.68-7.44-2.22c-1.1-0.83-1.99-1.91-2.61-3.15
		c-0.7-1.37-1.06-2.89-1.05-4.43c-0.03-2.1,0.63-4.15,1.91-5.83c2.23-2.75,5.66-4.21,9.18-3.94c1.37-0.02,2.75,0.15,4.09,0.52
		c1.42,0.45,2.78,1.08,4.05,1.87c0.41,0.29,0.86,0.51,1.33,0.63c0.24-0.03,0.45-0.14,0.63-0.28l0.39,0.3l-2.83,4.11l-0.37-0.26
		c-0.01-0.09-0.01-0.17,0-0.26c0,0,0-0.17,0-0.21c0-0.54-0.74-1.17-2.33-1.85c-1.32-0.62-2.75-0.96-4.2-0.98
		c-1.81-0.07-3.58,0.5-5.01,1.61c-2.58,1.97-3.06,5.66-1.09,8.24c0.32,0.41,0.68,0.78,1.09,1.09c1.44,1.09,3.21,1.65,5.01,1.59
		c1.62-0.03,3.22-0.44,4.66-1.19c1.23-0.62,1.85-1.17,1.85-1.63c0-0.7,0-0.19,0-0.46L230.93,307.69z"/>
	<path class="st244" d="M283.52,309.74h-8.63l-0.98,2.05c-0.19,0.35-0.32,0.74-0.35,1.15c0,0.54,0.35,0.89,1.07,1.02v0.46h-6.99
		v-0.46c0.34-0.03,0.66-0.18,0.93-0.39c0.3-0.33,0.54-0.71,0.72-1.11l6.99-13.86c0.23-0.43,0.35-0.9,0.37-1.37
		c0-0.46-0.3-0.82-0.93-1.07v-0.46H283v0.46c-0.52,0.15-0.89,0.61-0.91,1.15c0.03,0.47,0.18,0.93,0.42,1.35l6.99,13.43
		c0.25,0.51,0.55,0.99,0.91,1.42c0.29,0.24,0.65,0.39,1.02,0.44v0.46h-7.64v-0.46c0.72-0.11,1.07-0.46,1.07-1.02
		c-0.03-0.45-0.18-0.9-0.42-1.28L283.52,309.74z M282.17,307.1l-3.05-6.01l-2.92,6.01H282.17z"/>
	<path class="st244" d="M337.29,299.06v13.53c-0.02,0.28,0.07,0.56,0.24,0.79c0.24,0.24,0.52,0.39,0.84,0.46v0.46h-6.62v-0.46
		c0.32-0.06,0.61-0.21,0.84-0.44c0.17-0.23,0.25-0.51,0.24-0.79v-13.55h-5.53c-0.29-0.02-0.59,0.06-0.82,0.24
		c-0.23,0.24-0.37,0.53-0.44,0.84h-0.44v-5.53h0.44c0.06,0.32,0.2,0.61,0.42,0.84c0.24,0.17,0.53,0.26,0.82,0.24h15.56
		c0.29,0.02,0.59-0.06,0.82-0.24c0.23-0.24,0.38-0.52,0.44-0.84h0.44v5.55h-0.44c-0.07-0.32-0.23-0.61-0.44-0.84
		c-0.24-0.17-0.53-0.26-0.82-0.24L337.29,299.06z"/>
	<path class="st244" d="M384.12,297.38v15.21c-0.01,0.28,0.07,0.56,0.24,0.79c0.24,0.23,0.52,0.39,0.84,0.46v0.46h-6.62v-0.46
		c0.32-0.07,0.6-0.21,0.82-0.44c0.17-0.23,0.25-0.51,0.24-0.79v-15.23c0.02-0.28-0.07-0.56-0.24-0.79
		c-0.24-0.21-0.53-0.37-0.84-0.44v-0.46h6.62v0.46c-0.32,0.07-0.61,0.21-0.84,0.44C384.17,296.82,384.09,297.1,384.12,297.38z"/>
	<path class="st244" d="M430.17,295.29c2.68-0.08,5.31,0.74,7.46,2.33c2.37,1.81,3.7,4.67,3.57,7.64c0.08,2.88-1.25,5.62-3.57,7.32
		c-4.48,3.04-10.36,3.04-14.84,0c-4.14-3.34-4.79-9.4-1.45-13.54c0.43-0.53,0.92-1.02,1.45-1.45
		C424.94,296.04,427.53,295.23,430.17,295.29z M430.17,298.83c-1.74-0.05-3.43,0.63-4.66,1.87c-2.26,2.46-2.26,6.26,0,8.72
		c2.68,2.46,6.79,2.46,9.47,0c1.11-1.14,1.72-2.68,1.68-4.27c0.08-1.65-0.53-3.26-1.68-4.46c-1.27-1.24-3.01-1.91-4.78-1.87H430.17z
		"/>
	<path class="st244" d="M480.38,302.07v10.51c-0.02,0.28,0.06,0.56,0.24,0.79c0.23,0.23,0.51,0.37,0.82,0.44v0.46h-6.22v-0.46
		c0.32-0.06,0.61-0.21,0.84-0.44c0.17-0.23,0.25-0.51,0.24-0.79v-15.21c0.02-0.28-0.06-0.56-0.24-0.79
		c-0.24-0.21-0.53-0.37-0.84-0.44v-0.46h7.2v0.46c-0.5,0.11-0.74,0.35-0.74,0.65c0.06,0.37,0.25,0.7,0.54,0.93l10.01,9.98v-10.33
		c0.01-0.28-0.07-0.56-0.24-0.79c-0.24-0.23-0.52-0.38-0.84-0.44v-0.46h6.22v0.46c-0.32,0.07-0.61,0.21-0.84,0.44
		c-0.17,0.23-0.25,0.51-0.24,0.79v15.21c-0.02,0.28,0.07,0.56,0.24,0.79c0.24,0.24,0.52,0.39,0.84,0.46v0.46h-6.72v-0.46
		c0.5,0,0.74-0.3,0.74-0.61c-0.01-0.18-0.09-0.36-0.21-0.5c-0.14-0.17-0.44-0.5-0.93-0.98L480.38,302.07z"/>
</g>
</svg>
