<?xml version="1.0" encoding="utf-8"?>
<!-- Generator: Adobe Illustrator 25.0.0, SVG Export Plug-In . SVG Version: 6.00 Build 0)  -->
<svg version="1.1" id="Layer_1" xmlns="http://www.w3.org/2000/svg" xmlns:xlink="http://www.w3.org/1999/xlink" x="0px" y="0px"
	 viewBox="0 0 546.02 508.68" style="enable-background:new 0 0 546.02 508.68;" xml:space="preserve">
<style type="text/css">
	.st0{fill:#FFFFFF;}
	.st1{fill:#106F77;}
	.st2{fill:#005773;}
	.st3{fill:none;stroke:#000000;stroke-width:0.2269;}
	.st4{fill:#C69A47;}
	.st5{fill:#DCDDDE;}
	.st6{fill-rule:evenodd;clip-rule:evenodd;fill:#153455;}
	.st7{fill-rule:evenodd;clip-rule:evenodd;fill:#10558E;}
	.st8{fill-rule:evenodd;clip-rule:evenodd;fill:#0187C5;}
	.st9{fill-rule:evenodd;clip-rule:evenodd;fill:#54ADD9;}
	.st10{fill-rule:evenodd;clip-rule:evenodd;fill:#90C9E7;}
	.st11{fill-rule:evenodd;clip-rule:evenodd;fill:#C2E2F3;}
	.st12{fill:#153455;}
	.st13{fill:#3E3B3D;}
	.st14{fill:#52AA35;}
	.st15{fill:#191C35;}
	.st16{fill:#F1851A;}
	.st17{fill:#326DB3;}
	.st18{fill:#0E70A0;}
	.st19{fill:#BF9F5E;}
	.st20{fill:#C9AA71;}
	.st21{fill:#CAB36A;}
	.st22{clip-path:url(#SVGID_2_);fill:#DBC47B;}
	.st23{fill:#DABC7E;}
	.st24{fill:#D3B86F;}
	.st25{fill:#CAAB62;}
	.st26{fill:#EDCC87;}
	.st27{fill:#DDC37A;}
	.st28{clip-path:url(#SVGID_4_);fill:#C9AA63;}
	.st29{clip-path:url(#SVGID_6_);fill:#C9AA72;}
	.st30{clip-path:url(#SVGID_8_);fill:#C9AA72;}
	.st31{clip-path:url(#SVGID_10_);fill:#DEC07F;}
	.st32{clip-path:url(#SVGID_12_);fill:#D8BF76;}
	.st33{clip-path:url(#SVGID_14_);fill:#9B8047;}
	.st34{clip-path:url(#SVGID_16_);fill:#94763B;}
	.st35{clip-path:url(#SVGID_18_);fill:#93783E;}
	.st36{clip-path:url(#SVGID_20_);fill:#B29252;}
	.st37{clip-path:url(#SVGID_22_);fill:#B59961;}
	.st38{clip-path:url(#SVGID_24_);fill:#DABC7E;}
	.st39{clip-path:url(#SVGID_26_);fill:#B29252;}
	.st40{fill:#93783E;}
	.st41{fill:#A88143;}
	.st42{fill:#796937;}
	.st43{fill:#BC9B5B;}
	.st44{clip-path:url(#SVGID_28_);fill:#BC9B5B;}
	.st45{clip-path:url(#SVGID_30_);fill:#9B8047;}
	.st46{fill:#CBAD65;}
	.st47{clip-path:url(#SVGID_32_);fill:#CAAB62;}
	.st48{clip-path:url(#SVGID_34_);fill:#DABC7E;}
	.st49{clip-path:url(#SVGID_36_);fill:#DABC7E;}
	.st50{clip-path:url(#SVGID_38_);fill:#DABC7E;}
	.st51{clip-path:url(#SVGID_40_);fill:#BD9D67;}
	.st52{clip-path:url(#SVGID_42_);fill:#867135;}
	.st53{clip-path:url(#SVGID_44_);fill:#DABC7E;}
	.st54{clip-path:url(#SVGID_46_);fill:#9B8047;}
	.st55{clip-path:url(#SVGID_48_);fill:#B29252;}
	.st56{clip-path:url(#SVGID_50_);fill:#B29252;}
	.st57{clip-path:url(#SVGID_52_);fill:#867135;}
	.st58{clip-path:url(#SVGID_54_);fill:#CAAB62;}
	.st59{clip-path:url(#SVGID_56_);fill:#BD9D67;}
	.st60{clip-path:url(#SVGID_58_);fill:#D3B86F;}
	.st61{clip-path:url(#SVGID_60_);fill:#B29252;}
	.st62{clip-path:url(#SVGID_62_);fill:#C09650;}
	.st63{fill:#C9AA72;}
	.st64{fill:#867135;}
	.st65{fill:#8D6C54;}
	.st66{fill:#7D6233;}
	.st67{fill:#4F3E29;}
	.st68{fill:#3E301E;}
	.st69{fill:#735832;}
	.st70{fill-rule:evenodd;clip-rule:evenodd;fill:#1D7890;}
	.st71{fill:#1D7890;}
	.st72{fill-rule:evenodd;clip-rule:evenodd;fill:url(#SVGID_63_);}
	.st73{fill-rule:evenodd;clip-rule:evenodd;fill:url(#SVGID_64_);}
	.st74{fill-rule:evenodd;clip-rule:evenodd;fill:url(#SVGID_65_);}
	.st75{fill:url(#SVGID_66_);}
	.st76{display:none;fill:none;}
	.st77{fill:url(#SVGID_67_);}
	.st78{fill:url(#SVGID_68_);}
	.st79{display:none;fill:url(#SVGID_69_);}
	.st80{fill:url(#SVGID_70_);}
	.st81{fill:url(#SVGID_71_);}
	.st82{fill:none;}
	.st83{fill:url(#SVGID_72_);}
	.st84{fill:url(#SVGID_73_);}
	.st85{fill:url(#SVGID_74_);}
	.st86{fill:url(#SVGID_75_);}
	.st87{fill:url(#SVGID_76_);}
	.st88{fill:url(#SVGID_77_);}
	.st89{fill:url(#SVGID_78_);}
	.st90{fill:url(#SVGID_79_);}
	.st91{fill:#047180;}
	.st92{fill:url(#SVGID_80_);}
	.st93{fill:#0E518C;}
	.st94{fill:url(#SVGID_81_);}
	.st95{fill:url(#SVGID_82_);}
	.st96{fill:url(#SVGID_83_);}
	.st97{fill:url(#SVGID_84_);}
	.st98{fill:url(#SVGID_85_);}
	.st99{fill:url(#SVGID_86_);}
	.st100{fill:url(#SVGID_87_);}
	.st101{fill:url(#SVGID_88_);}
	.st102{fill:url(#SVGID_89_);}
	.st103{fill:url(#SVGID_90_);}
	.st104{fill:url(#SVGID_91_);}
	.st105{fill:url(#SVGID_92_);}
	.st106{fill:url(#SVGID_93_);}
	.st107{fill:url(#SVGID_94_);}
	.st108{fill:url(#SVGID_95_);}
	.st109{fill:url(#SVGID_96_);}
	.st110{fill:url(#SVGID_97_);}
	.st111{fill:url(#SVGID_98_);}
	.st112{fill:url(#SVGID_99_);}
	.st113{fill:url(#SVGID_100_);}
	.st114{fill:url(#SVGID_101_);}
	.st115{fill:url(#SVGID_102_);}
	.st116{fill:url(#SVGID_103_);}
	.st117{fill:#31578B;}
	.st118{fill:url(#SVGID_104_);}
	.st119{fill:url(#SVGID_105_);}
	.st120{fill:url(#SVGID_106_);}
	.st121{display:none;fill:url(#SVGID_107_);}
	.st122{fill:url(#SVGID_108_);}
	.st123{fill:url(#SVGID_109_);}
	.st124{fill:url(#SVGID_110_);}
	.st125{fill:url(#SVGID_111_);}
	.st126{fill:url(#SVGID_112_);}
	.st127{fill:url(#SVGID_113_);}
	.st128{fill:url(#SVGID_114_);}
	.st129{fill:url(#SVGID_115_);}
	.st130{fill:url(#SVGID_116_);}
	.st131{fill:url(#SVGID_117_);}
	.st132{fill:#015D84;}
	.st133{fill:url(#SVGID_118_);}
	.st134{fill:url(#SVGID_119_);}
	.st135{fill:url(#SVGID_120_);}
	.st136{fill:url(#SVGID_121_);}
	.st137{fill:url(#SVGID_122_);}
	.st138{fill:url(#SVGID_123_);}
	.st139{fill:url(#SVGID_124_);}
	.st140{fill:#005A85;}
	.st141{fill:url(#SVGID_125_);}
	.st142{fill:url(#SVGID_126_);}
	.st143{fill:url(#SVGID_127_);}
	.st144{fill:url(#SVGID_128_);}
	.st145{fill:url(#SVGID_129_);}
	.st146{fill:url(#SVGID_130_);}
	.st147{fill:url(#SVGID_131_);}
	.st148{fill:url(#SVGID_132_);}
	.st149{fill:url(#SVGID_133_);}
	.st150{fill:url(#SVGID_134_);}
	.st151{fill:url(#SVGID_135_);}
	.st152{fill:url(#SVGID_136_);}
	.st153{fill:url(#SVGID_137_);}
	.st154{fill:url(#SVGID_138_);}
	.st155{fill:url(#SVGID_139_);}
	.st156{fill:url(#SVGID_140_);}
	.st157{fill:url(#SVGID_141_);}
	.st158{fill:url(#SVGID_142_);}
	.st159{fill:url(#SVGID_143_);}
	.st160{fill:url(#SVGID_144_);}
	.st161{fill:url(#SVGID_145_);}
	.st162{fill:url(#SVGID_146_);}
	.st163{fill:url(#SVGID_147_);}
	.st164{fill:url(#SVGID_148_);}
	.st165{fill:url(#SVGID_149_);}
	.st166{fill:url(#SVGID_150_);}
	.st167{fill:url(#SVGID_151_);}
	.st168{fill:url(#SVGID_152_);}
	.st169{fill:url(#SVGID_153_);}
	.st170{fill:url(#SVGID_154_);}
	.st171{fill:url(#SVGID_155_);}
	.st172{fill:url(#SVGID_156_);}
	.st173{fill:url(#SVGID_157_);}
	.st174{fill:url(#SVGID_158_);}
	.st175{fill:url(#SVGID_159_);}
	.st176{fill:url(#SVGID_160_);}
	.st177{fill:url(#SVGID_161_);}
	.st178{fill:url(#SVGID_162_);}
	.st179{fill:url(#SVGID_163_);}
	.st180{fill:url(#SVGID_164_);}
	.st181{fill:url(#SVGID_165_);}
	.st182{fill:url(#SVGID_166_);}
	.st183{fill:url(#SVGID_167_);}
	.st184{fill:url(#SVGID_168_);}
	.st185{fill:url(#SVGID_169_);}
	.st186{fill:url(#SVGID_170_);}
	.st187{fill:url(#SVGID_171_);}
	.st188{fill:url(#SVGID_172_);}
	.st189{fill:url(#SVGID_173_);}
	.st190{fill:url(#SVGID_174_);}
	.st191{fill:url(#SVGID_175_);}
	.st192{fill:url(#SVGID_176_);}
	.st193{fill:url(#SVGID_177_);}
	.st194{fill:url(#SVGID_178_);}
	.st195{fill:url(#SVGID_179_);}
	.st196{fill:url(#SVGID_180_);}
	.st197{fill:url(#SVGID_181_);}
	.st198{fill:url(#SVGID_182_);}
	.st199{fill:url(#SVGID_183_);}
	.st200{fill:url(#SVGID_184_);}
	.st201{fill:url(#SVGID_185_);}
	.st202{fill:url(#SVGID_186_);}
	.st203{fill:url(#SVGID_187_);}
	.st204{fill:url(#SVGID_188_);}
	.st205{fill:url(#SVGID_189_);}
	.st206{fill:url(#SVGID_190_);}
	.st207{fill:url(#SVGID_191_);}
	.st208{fill:url(#SVGID_192_);}
	.st209{fill:url(#SVGID_193_);}
	.st210{fill:url(#SVGID_194_);}
	.st211{fill:url(#SVGID_195_);}
	.st212{fill:url(#SVGID_196_);}
	.st213{fill:url(#SVGID_197_);}
	.st214{fill:url(#SVGID_198_);}
	.st215{fill:url(#SVGID_199_);}
	.st216{fill:#007580;}
	.st217{fill:#98989A;}
	.st218{fill-rule:evenodd;clip-rule:evenodd;fill:#3A3636;}
	.st219{fill-rule:evenodd;clip-rule:evenodd;fill:#E18750;}
	.st220{fill:#111D4E;}
	.st221{fill:#FBD42C;}
	.st222{fill:#808184;}
	.st223{fill-rule:evenodd;clip-rule:evenodd;}
	.st224{clip-path:url(#SVGID_201_);}
	.st225{clip-path:url(#SVGID_203_);}
	.st226{clip-path:url(#SVGID_205_);}
	.st227{clip-path:url(#SVGID_207_);}
	.st228{clip-path:url(#SVGID_209_);}
	.st229{clip-path:url(#SVGID_211_);}
	.st230{clip-path:url(#SVGID_213_);}
	.st231{clip-path:url(#SVGID_215_);}
	.st232{clip-path:url(#SVGID_217_);}
	.st233{clip-path:url(#SVGID_219_);}
	.st234{clip-path:url(#SVGID_221_);}
	.st235{clip-path:url(#SVGID_223_);}
	.st236{clip-path:url(#SVGID_225_);}
	.st237{clip-path:url(#SVGID_227_);}
	.st238{clip-path:url(#SVGID_229_);}
	.st239{clip-path:url(#SVGID_231_);}
	.st240{display:none;}
	.st241{fill-rule:evenodd;clip-rule:evenodd;fill:#C6C6C6;}
	.st242{fill-rule:evenodd;clip-rule:evenodd;fill:url(#SVGID_232_);}
	.st243{fill-rule:evenodd;clip-rule:evenodd;fill:#722582;}
	.st244{fill:#00539F;}
	.st245{fill:#ED1C24;}
	.st246{fill:#009D8E;}
</style>
<g id="Page_1">
	<g id="Layer_1_2_">
		<g>
			<g>
				<path class="st241" d="M142.44,108.34c0,0,29.58,112.02-65.47,213.16C76.97,321.5,215.76,208.3,142.44,108.34L142.44,108.34z"/>
				<path class="st241" d="M64.67,263.27v8.97h-8.9v17.14c0,3.47,0.08,5.49,0.25,6.07c0.17,0.57,0.55,1.04,1.16,1.42
					c0.6,0.37,1.35,0.56,2.2,0.56c1.22,0,2.96-0.37,5.26-1.08l1.11,8.72c-3.04,1.12-6.46,1.68-10.31,1.68
					c-2.34,0-4.47-0.34-6.35-1.01c-1.89-0.68-3.26-1.57-4.15-2.65s-1.48-2.55-1.84-4.39c-0.26-1.3-0.41-3.95-0.41-7.93v-18.54H36.7
					v-8.97h5.99v-8.46l13.08-6.56v15.02L64.67,263.27L64.67,263.27z M171.83,292.26l13,1.87c-1.68,4.11-4.31,7.24-7.92,9.39
					c-3.59,2.16-8.11,3.23-13.52,3.23c-8.57,0-14.9-2.41-19.02-7.24c-3.25-3.87-4.88-8.76-4.88-14.65c0-7.05,2.14-12.57,6.41-16.57
					c4.26-3.99,9.66-5.99,16.18-5.99c7.33,0,13.11,2.09,17.35,6.27c4.23,4.18,6.26,10.58,6.08,19.2h-32.67
					c0.09,3.33,1.14,5.93,3.15,7.78c2.01,1.86,4.53,2.79,7.52,2.79c2.04,0,3.75-0.48,5.15-1.44
					C170.08,295.93,171.14,294.39,171.83,292.26L171.83,292.26z M172.58,280.89c-0.09-3.27-1.06-5.74-2.91-7.44
					c-1.85-1.69-4.12-2.54-6.78-2.54c-2.85,0-5.19,0.9-7.05,2.69c-1.85,1.78-2.77,4.21-2.74,7.28L172.58,280.89L172.58,280.89z
					 M241.33,305.79h-12.1v-6.25c-2.01,2.43-4.39,4.24-7.13,5.43s-5.5,1.78-8.28,1.78c-5.67,0-10.51-1.97-14.55-5.9
					c-4.02-3.94-6.05-9.43-6.05-16.47c0-7.22,1.96-12.7,5.89-16.44c3.93-3.74,8.9-5.63,14.9-5.63c5.49,0,10.26,1.98,14.28,5.93
					V247.1h13.03v58.69H241.33z M206.54,283.61c0,4.54,0.73,7.82,2.19,9.85c2.09,2.92,5.04,4.4,8.8,4.4c3.01,0,5.56-1.11,7.66-3.31
					c2.09-2.2,3.15-5.49,3.15-9.87c0-4.88-1.03-8.41-3.06-10.55c-2.04-2.15-4.66-3.23-7.85-3.23c-3.09,0-5.67,1.07-7.76,3.18
					C207.59,276.21,206.54,279.38,206.54,283.61L206.54,283.61z M286.62,305.79v-6.37c-1.8,2.27-4.16,4.06-7.08,5.37
					c-2.93,1.3-6.02,1.95-9.26,1.95c-3.31,0-6.27-0.63-8.9-1.87c-2.63-1.26-4.53-3.02-5.72-5.29c-1.17-2.27-1.76-5.41-1.76-9.42
					v-26.9h13.03v19.53c0,5.99,0.24,9.65,0.73,11c0.47,1.34,1.35,2.41,2.61,3.2c1.27,0.79,2.88,1.18,4.83,1.18
					c2.23,0,4.23-0.52,5.99-1.57c1.76-1.07,2.96-2.36,3.61-3.92c0.65-1.57,0.98-5.4,0.98-11.48v-17.93h13.03v42.52H286.62
					L286.62,305.79z M312.23,305.79v-11.25h13.03v11.25H312.23L312.23,305.79z M381.58,275.84l-12.86,2c-0.43-2.21-1.41-3.88-2.95-5
					s-3.51-1.68-5.95-1.68c-3.26,0-5.84,0.97-7.77,2.9c-1.93,1.94-2.9,5.18-2.9,9.72c0,5.04,0.98,8.61,2.95,10.69
					c1.96,2.08,4.59,3.12,7.9,3.12c2.49,0,4.5-0.6,6.08-1.82s2.69-3.31,3.34-6.26l12.81,1.87c-1.33,5.07-3.9,8.91-7.66,11.49
					c-3.77,2.6-8.82,3.88-15.17,3.88c-7.2,0-12.95-1.95-17.23-5.88c-4.29-3.92-6.43-9.36-6.43-16.31c0-7.01,2.15-12.48,6.44-16.39
					c4.31-3.92,10.12-5.88,17.45-5.88c6,0,10.77,1.12,14.31,3.35C377.48,267.87,380.03,271.28,381.58,275.84L381.58,275.84z
					 M388.44,283.92c0-3.73,1.08-7.35,3.2-10.85c2.14-3.49,5.16-6.16,9.07-8c3.91-1.85,8.28-2.77,13.11-2.77
					c7.44,0,13.56,2.09,18.32,6.27c4.77,4.18,7.14,9.46,7.14,15.84c0,6.42-2.41,11.75-7.2,15.99c-4.81,4.24-10.86,6.34-18.16,6.34
					c-4.53,0-8.82-0.87-12.92-2.64c-4.1-1.76-7.22-4.35-9.36-7.75C389.52,292.95,388.44,288.81,388.44,283.92L388.44,283.92z
					 M401.8,284.52c0,4.22,1.16,7.45,3.48,9.69c2.31,2.24,5.18,3.36,8.58,3.36s6.25-1.12,8.55-3.36c2.31-2.24,3.47-5.49,3.47-9.77
					c0-4.15-1.16-7.37-3.47-9.61c-2.3-2.24-5.15-3.36-8.55-3.36s-6.27,1.12-8.58,3.36C402.96,277.07,401.8,280.31,401.8,284.52
					L401.8,284.52z M448.52,263.27h12.02v5.8c4.29-4.51,9.42-6.77,15.36-6.77c3.15,0,5.89,0.56,8.2,1.68
					c2.33,1.12,4.23,2.82,5.72,5.08c2.15-2.27,4.5-3.96,7-5.08s5.18-1.68,8.03-1.68c3.61,0,6.68,0.64,9.18,1.91
					c2.5,1.26,4.37,3.13,5.61,5.58c0.9,1.82,1.35,4.76,1.35,8.82v27.19h-13.03v-24.3c0-4.22-0.44-6.94-1.35-8.17
					c-1.2-1.6-3.06-2.41-5.56-2.41c-1.84,0-3.55,0.48-5.16,1.45c-1.6,0.96-2.76,2.36-3.47,4.22c-0.71,1.86-1.08,4.78-1.08,8.79
					v20.42h-13.03v-23.3c0-4.14-0.24-6.81-0.7-8.01c-0.46-1.2-1.19-2.09-2.15-2.68c-0.98-0.59-2.3-0.89-3.97-0.89
					c-2.01,0-3.82,0.46-5.42,1.41c-1.62,0.93-2.77,2.28-3.47,4.05c-0.7,1.77-1.05,4.67-1.05,8.76v20.67h-13.03L448.52,263.27
					L448.52,263.27z"/>
				
					<linearGradient id="SVGID_2_" gradientUnits="userSpaceOnUse" x1="-438.5951" y1="-3454.7964" x2="-95.741" y2="-3454.7964" gradientTransform="matrix(1.3959 0 0 -1.3959 637.2712 -4647.4077)">
					<stop  offset="0" style="stop-color:#722582"/>
					<stop  offset="0.79" style="stop-color:#B2B2B2"/>
					<stop  offset="1" style="stop-color:#C6C6C6"/>
				</linearGradient>
				<path style="fill-rule:evenodd;clip-rule:evenodd;fill:url(#SVGID_2_);" d="M138.18,105.99c0,0-15.84,47.39-113.14,122.99
					c0,0,298.63-46.77,478.59,15.31c0,0-158.74-73.08-411.79-58.15C91.84,186.15,123.81,157.59,138.18,105.99L138.18,105.99z"/>
			</g>
			<path class="st243" d="M41.41,366.82v-10.48c0-5.4,3.1-8.1,9.3-8.1h5.28v13.62h1.31h0.82h7.6v-13.63h5.23v13.62h1.55h0.82h2.89
				v-2.89c0-4.61,2.42-6.93,7.28-6.93c4.83,0,7.25,2.27,7.25,6.81v3h2.94h0.82h7.6v-13.61h5.23v13.62h1.55h0.82h2.66v-29.89h5.2
				v29.89h1.68h0.82h6.05c-2.24-2.13-3.36-4.4-3.36-6.81c0-0.29,0.04-0.67,0.13-1.13c0.49-3.4,3.36-5.29,8.64-5.67
				c5.36,0,8.15,2.74,8.35,8.23h-5.22c0-2.15-1.08-3.24-3.23-3.26c-2.15,0.02-3.23,0.73-3.23,2.13c0,1.58,1.67,3.75,5.04,6.52h9.27
				h0.92h7.5v-13.63h5.23v13.62h1.51h0.85h2.21v-29.89h5.2v34.86h-7.41h-0.85h-14.24h-0.92h-22.44h-0.82h-9.53h-0.82H94.52H93.7
				h-2.94v3.64H76.23v-3.64h-2.89h-0.82h-14.4H57.3H41.41L41.41,366.82z M482.61,361.85h3.74v-13.68h5.19v13.68h2.95v-13.68h5.25
				v13.68h2.89v-13.68h5.22v18.65h-25.23h-0.89h-1.52c-0.14,2.66-1.24,4.82-3.29,6.49h-6.53c3.08-2.37,4.63-4.53,4.63-6.49v-18.59
				h5.19v13.62h1.52H482.61L482.61,361.85z M495.01,343.26c-0.63,0.55-1.36,0.82-2.18,0.82c-0.84,0-1.56-0.27-2.13-0.82
				c-0.58-0.54-0.88-1.23-0.88-2.05c0-0.8,0.29-1.51,0.89-2.12c0.69-0.57,1.4-0.86,2.12-0.86c0.86,0,1.6,0.28,2.2,0.84
				c0.61,0.56,0.9,1.28,0.9,2.14C495.93,341.94,495.63,342.63,495.01,343.26L495.01,343.26z M498.72,337.29
				c-0.65,0.54-1.38,0.82-2.18,0.82c-0.84,0-1.56-0.28-2.15-0.82c-0.59-0.55-0.89-1.25-0.89-2.1c0-0.8,0.3-1.49,0.92-2.09
				c0.67-0.59,1.38-0.89,2.12-0.89c0.86,0,1.6,0.28,2.18,0.83c0.59,0.56,0.89,1.28,0.89,2.14
				C499.61,335.96,499.31,336.65,498.72,337.29L498.72,337.29z M502.33,343.26c-0.63,0.55-1.36,0.82-2.18,0.82
				c-0.84,0-1.56-0.27-2.14-0.82c-0.57-0.54-0.86-1.23-0.86-2.05c0-0.8,0.28-1.51,0.85-2.12c0.69-0.57,1.42-0.86,2.15-0.86
				c0.86,0,1.6,0.28,2.18,0.84c0.59,0.56,0.89,1.28,0.89,2.14C503.21,341.94,502.92,342.63,502.33,343.26L502.33,343.26z
				 M438.44,361.85h24.07v-5.51c0-1.93-0.8-2.91-2.38-2.91h-20.01v-5.2l15.99-12.95h8.8l-15.74,12.95h12.07
				c4.32,0,6.48,1.88,6.48,5.64v12.95h-29.28h-0.82h-15.9v-10.48c0-5.4,3.1-8.1,9.3-8.1h5.28v13.62h1.31h0.83V361.85z
				 M431.06,353.27c-2.74,0.13-4.12,1.22-4.12,3.3v5.28h4.12V353.27L431.06,353.27z M427.32,343.26c-0.65,0.55-1.38,0.82-2.18,0.82
				c-0.84,0-1.56-0.27-2.15-0.82c-0.59-0.54-0.89-1.23-0.89-2.05c0-0.8,0.3-1.51,0.92-2.12c0.65-0.57,1.36-0.86,2.12-0.86
				c0.86,0,1.6,0.28,2.18,0.84c0.59,0.56,0.89,1.28,0.89,2.14C428.21,341.94,427.92,342.63,427.32,343.26L427.32,343.26z
				 M434.64,343.26c-0.65,0.55-1.39,0.82-2.22,0.82c-0.82,0-1.53-0.27-2.12-0.82c-0.59-0.54-0.89-1.23-0.89-2.05
				c0-0.8,0.29-1.51,0.89-2.12c0.69-0.57,1.4-0.86,2.12-0.86c0.86,0,1.6,0.28,2.18,0.84c0.59,0.56,0.89,1.28,0.89,2.14
				C435.49,341.94,435.21,342.63,434.64,343.26L434.64,343.26z M397.97,361.85h7.53v-13.62h5.23v18.59h-12.76h-0.89h-27.57h-0.83
				h-1.84c-0.14,2.45-1.23,4.51-3.25,6.17h-6.53c3-2.34,4.52-4.4,4.56-6.17h-9.34v-10.67c0-5.28,3.1-7.92,9.3-7.92h5.28v13.62h1.8
				h0.83h2.65v-29.89h5.2v19.6l9.14-3.04c0.83-0.13,1.6-0.19,2.31-0.19c4.5,0,6.74,2.65,6.74,7.94v5.58h1.52L397.97,361.85
				L397.97,361.85z M402.37,343.26c-0.65,0.55-1.39,0.82-2.22,0.82c-0.84,0-1.56-0.27-2.14-0.82c-0.57-0.54-0.86-1.23-0.86-2.05
				c0-0.8,0.29-1.51,0.89-2.12c0.69-0.57,1.4-0.86,2.12-0.86c0.86,0,1.6,0.28,2.2,0.84c0.59,0.56,0.9,1.28,0.9,2.14
				C403.26,341.94,402.97,342.63,402.37,343.26L402.37,343.26z M409.66,343.26c-0.63,0.55-1.36,0.82-2.18,0.82
				c-0.84,0-1.56-0.27-2.14-0.82c-0.58-0.54-0.86-1.23-0.86-2.05c0-0.8,0.29-1.51,0.89-2.12c0.67-0.57,1.38-0.86,2.12-0.86
				c0.86,0,1.6,0.28,2.2,0.84c0.59,0.56,0.9,1.28,0.9,2.14C410.57,341.94,410.27,342.63,409.66,343.26L409.66,343.26z
				 M390.35,357.48c0-2.7-0.91-4.05-2.72-4.05c-0.59,0-1.32,0.11-2.18,0.35l-8.07,2.94v5.13h12.98v-4.37H390.35z M361.63,353.4
				c-2.74,0.11-4.12,1.21-4.12,3.32v5.13h4.12V353.4L361.63,353.4z M333.91,361.85h7.53v-13.62h5.23v18.59h-12.76h-0.89h-1.52
				c-0.14,2.66-1.24,4.82-3.29,6.49h-6.53c3.08-2.37,4.62-4.53,4.62-6.49v-18.59h5.19v13.62h1.52H333.91L333.91,361.85z
				 M338.3,374.52c-0.6,0.6-1.32,0.91-2.12,0.91c-0.84,0-1.57-0.28-2.17-0.85c-0.59-0.57-0.9-1.26-0.9-2.1s0.3-1.55,0.92-2.12
				c0.61-0.57,1.33-0.85,2.15-0.85s1.53,0.28,2.14,0.84c0.59,0.55,0.9,1.26,0.9,2.13C339.22,373.25,338.92,373.93,338.3,374.52
				L338.3,374.52z M345.25,374.52c-0.62,0.6-1.33,0.91-2.13,0.91c-0.83,0-1.53-0.28-2.13-0.85c-0.58-0.57-0.89-1.26-0.89-2.1
				s0.3-1.55,0.91-2.12c0.59-0.57,1.3-0.85,2.11-0.85c0.86,0,1.59,0.28,2.18,0.84c0.58,0.55,0.89,1.26,0.89,2.13
				C346.19,373.25,345.88,373.93,345.25,374.52L345.25,374.52z M306.51,361.85h2.25v-29.89h5.2v34.86h-7.45h-0.82h-9.53h-0.82
				h-26.28h-0.85h-17.64v-4.97h10.19v-5.82c0-1.88-0.75-2.82-2.25-2.82h-0.57c-1.24,0-1.86,0.78-1.86,2.31v1.26h-5.2v-1.74
				c0-4.54,2.42-6.81,7.25-6.81h0.19c5.08,0,7.63,2.44,7.63,7.32v6.3h2.25h0.85h18.55l-6.36-9.47c-0.95-1.42-1.85-2.12-2.69-2.12
				c-1.13,0-1.71,0.68-1.71,2.05v2.12h-4.97v-3.04c0.46-3.61,2.49-5.61,6.07-6.01c0.4-0.04,0.7-0.06,0.89-0.06
				c3.12,0,5.79,2.02,7.99,6.07l7.25,10.45h1.26h0.82h2.66v-29.89h5.2v29.89h1.67L306.51,361.85L306.51,361.85z M280.37,341.78
				c-0.59,0.56-1.33,0.85-2.19,0.85c-0.82,0-1.53-0.28-2.12-0.82c-0.59-0.55-0.89-1.24-0.89-2.06c0-0.78,0.29-1.49,0.89-2.12
				c0.69-0.55,1.39-0.82,2.12-0.82c0.86,0,1.6,0.28,2.19,0.83c0.6,0.56,0.91,1.26,0.91,2.11
				C281.28,340.53,280.98,341.21,280.37,341.78L280.37,341.78z M226.76,361.85h3.3v-13.62h5.25c6.18,0,9.28,2.72,9.28,8.17v10.42
				h-17.83h-0.82h-7.12v-34.86h5.22v29.89h1.9L226.76,361.85L226.76,361.85z M239.36,356.6c0-2.03-1.36-3.11-4.08-3.26v8.52h4.08
				V356.6L239.36,356.6z M191.78,366.82c-2.61,0-3.92-1.21-3.92-3.64v-11.4c0-2.36,1.35-3.54,4.05-3.54h5.07v4.91h-2.6
				c-0.86,0-1.3,0.54-1.3,1.62v5.35c0,1.16,0.55,1.74,1.65,1.74h12.95v-13.63h5.22v18.59H191.78L191.78,366.82z M200.46,343.26
				c-0.66,0.55-1.38,0.82-2.18,0.82c-0.84,0-1.57-0.27-2.16-0.82c-0.58-0.54-0.89-1.23-0.89-2.05c0-0.8,0.31-1.51,0.92-2.12
				c0.68-0.57,1.38-0.86,2.13-0.86c0.86,0,1.59,0.28,2.18,0.84s0.89,1.28,0.89,2.14C201.35,341.94,201.06,342.63,200.46,343.26
				L200.46,343.26z M207.78,343.26c-0.66,0.55-1.39,0.82-2.22,0.82s-1.53-0.27-2.13-0.82c-0.58-0.54-0.89-1.23-0.89-2.05
				c0-0.8,0.3-1.51,0.89-2.12c0.7-0.57,1.4-0.86,2.13-0.86c0.86,0,1.59,0.28,2.19,0.84s0.91,1.28,0.91,2.14
				C208.66,341.94,208.36,342.63,207.78,343.26L207.78,343.26z M171.71,366.82v-34.86h5.22v34.86H171.71L171.71,366.82z
				 M147.77,343.26c-0.65,0.55-1.39,0.82-2.22,0.82c-0.84,0-1.56-0.27-2.14-0.82c-0.57-0.54-0.86-1.23-0.86-2.05
				c0-0.8,0.29-1.51,0.89-2.12c0.69-0.57,1.4-0.86,2.12-0.86c0.86,0,1.6,0.28,2.2,0.84c0.59,0.56,0.9,1.28,0.9,2.14
				C148.66,341.94,148.37,342.63,147.77,343.26L147.77,343.26z M155.05,343.26c-0.63,0.55-1.36,0.82-2.18,0.82
				c-0.84,0-1.56-0.27-2.14-0.82c-0.58-0.54-0.86-1.23-0.86-2.05c0-0.8,0.29-1.51,0.89-2.12c0.67-0.57,1.38-0.86,2.12-0.86
				c0.86,0,1.6,0.28,2.2,0.84c0.59,0.56,0.9,1.28,0.9,2.14C155.97,341.94,155.67,342.63,155.05,343.26L155.05,343.26z M99.26,374.52
				c-0.63,0.6-1.32,0.91-2.11,0.91c-0.84,0-1.56-0.28-2.15-0.85c-0.59-0.57-0.89-1.26-0.89-2.1s0.3-1.55,0.91-2.12
				c0.59-0.57,1.31-0.85,2.13-0.85c0.84,0,1.57,0.28,2.15,0.84c0.59,0.55,0.9,1.26,0.9,2.13C100.2,373.25,99.89,373.93,99.26,374.52
				L99.26,374.52z M106.27,374.52c-0.63,0.6-1.34,0.91-2.14,0.91c-0.82,0-1.55-0.28-2.15-0.85c-0.62-0.57-0.92-1.26-0.92-2.1
				s0.3-1.55,0.93-2.12s1.34-0.85,2.14-0.85c0.84,0,1.57,0.28,2.16,0.84c0.6,0.55,0.91,1.26,0.91,2.13
				C107.19,373.25,106.88,373.93,106.27,374.52L106.27,374.52z M85.51,358.84c0-1.23-0.67-1.84-2.02-1.84
				c-1.37,0-2.06,0.61-2.06,1.84v6.68h4.08L85.51,358.84L85.51,358.84z M62.89,374.52c-0.63,0.6-1.32,0.91-2.11,0.91
				c-0.84,0-1.56-0.28-2.15-0.85c-0.59-0.57-0.89-1.26-0.89-2.1s0.3-1.55,0.91-2.12c0.59-0.57,1.31-0.85,2.13-0.85
				c0.84,0,1.57,0.28,2.15,0.84c0.59,0.55,0.9,1.26,0.9,2.13C63.83,373.25,63.52,373.93,62.89,374.52L62.89,374.52z M69.89,374.52
				c-0.63,0.6-1.34,0.91-2.14,0.91c-0.82,0-1.55-0.28-2.15-0.85c-0.62-0.57-0.92-1.26-0.92-2.1s0.3-1.55,0.93-2.12
				s1.34-0.85,2.14-0.85c0.84,0,1.57,0.28,2.16,0.84c0.6,0.55,0.91,1.26,0.91,2.13C70.82,373.25,70.51,373.93,69.89,374.52
				L69.89,374.52z M50.74,353.27c-2.74,0.13-4.12,1.22-4.12,3.3v5.28h4.12V353.27L50.74,353.27z M47,343.26
				c-0.65,0.55-1.38,0.82-2.18,0.82c-0.84,0-1.56-0.27-2.15-0.82c-0.59-0.54-0.89-1.23-0.89-2.05c0-0.8,0.3-1.51,0.92-2.12
				c0.65-0.57,1.36-0.86,2.12-0.86c0.86,0,1.6,0.28,2.18,0.84c0.59,0.56,0.89,1.28,0.89,2.14C47.89,341.94,47.6,342.63,47,343.26
				L47,343.26z M54.32,343.26c-0.65,0.55-1.39,0.82-2.22,0.82c-0.82,0-1.53-0.27-2.12-0.82c-0.59-0.54-0.89-1.23-0.89-2.05
				c0-0.8,0.29-1.51,0.89-2.12c0.69-0.57,1.4-0.86,2.12-0.86c0.86,0,1.6,0.28,2.18,0.84c0.59,0.56,0.89,1.28,0.89,2.14
				C55.17,341.94,54.89,342.63,54.32,343.26L54.32,343.26z"/>
			<path class="st241" d="M44.71,402.46v-11.55h-4.12v-2.35h11.04v2.35h-4.11v11.55H44.71L44.71,402.46z M497.36,397.94l2.73-0.27
				c0.16,0.92,0.5,1.59,1,2.02s1.18,0.64,2.03,0.64c0.9,0,1.59-0.19,2.04-0.58c0.46-0.38,0.69-0.83,0.69-1.34
				c0-0.33-0.1-0.61-0.29-0.84s-0.53-0.43-1.01-0.6c-0.33-0.12-1.08-0.32-2.25-0.61c-1.5-0.37-2.56-0.83-3.16-1.38
				c-0.85-0.76-1.28-1.7-1.28-2.8c0-0.71,0.2-1.37,0.6-1.99c0.4-0.61,0.98-1.08,1.73-1.41c0.76-0.32,1.67-0.48,2.73-0.48
				c1.75,0,3.06,0.38,3.94,1.15s1.34,1.79,1.39,3.06l-2.81,0.12c-0.12-0.72-0.38-1.23-0.77-1.54s-0.99-0.47-1.78-0.47
				c-0.82,0-1.46,0.17-1.92,0.5c-0.3,0.21-0.45,0.5-0.45,0.86c0,0.33,0.14,0.61,0.42,0.84c0.35,0.3,1.21,0.61,2.58,0.93
				s2.38,0.66,3.03,1c0.65,0.35,1.16,0.82,1.54,1.41c0.37,0.6,0.55,1.34,0.55,2.21c0,0.8-0.22,1.54-0.66,2.24
				c-0.44,0.7-1.07,1.21-1.88,1.55s-1.82,0.51-3.03,0.51c-1.76,0-3.11-0.4-4.05-1.22C498.1,400.67,497.54,399.49,497.36,397.94
				L497.36,397.94z M485.12,402.46v-13.9h10.3v2.35h-7.5v3.08h6.98v2.34h-6.98v3.78h7.76v2.34h-10.56V402.46z M479.99,397.35
				l2.72,0.86c-0.42,1.52-1.11,2.64-2.08,3.38c-0.97,0.73-2.2,1.1-3.69,1.1c-1.84,0-3.36-0.63-4.55-1.89s-1.78-2.99-1.78-5.17
				c0-2.31,0.6-4.11,1.79-5.39c1.19-1.28,2.76-1.92,4.71-1.92c1.7,0,3.08,0.5,4.14,1.51c0.63,0.59,1.11,1.45,1.42,2.56l-2.78,0.66
				c-0.16-0.72-0.5-1.29-1.03-1.71c-0.52-0.42-1.16-0.62-1.9-0.62c-1.03,0-1.87,0.37-2.51,1.11s-0.96,1.94-0.96,3.59
				c0,1.76,0.31,3.01,0.95,3.75c0.63,0.75,1.45,1.12,2.46,1.12c0.75,0,1.39-0.24,1.93-0.71
				C479.37,399.11,479.75,398.36,479.99,397.35L479.99,397.35z M465.61,402.46v-13.9h2.81v13.9H465.61L465.61,402.46z
				 M456.29,402.46l-4.97-13.9h3.05l3.51,10.29l3.4-10.29h2.98l-4.98,13.9H456.29L456.29,402.46z M438.73,402.46v-13.9h5.91
				c1.49,0,2.56,0.13,3.24,0.38c0.67,0.25,1.21,0.69,1.62,1.33c0.4,0.64,0.6,1.37,0.6,2.19c0,1.04-0.31,1.91-0.92,2.59
				c-0.61,0.68-1.53,1.11-2.75,1.28c0.61,0.36,1.11,0.74,1.5,1.17c0.39,0.42,0.93,1.17,1.6,2.26l1.7,2.71h-3.36l-2.03-3.03
				c-0.72-1.08-1.21-1.76-1.48-2.04c-0.27-0.28-0.55-0.47-0.84-0.58c-0.3-0.1-0.77-0.16-1.41-0.16h-0.57v5.8H438.73L438.73,402.46z
				 M441.54,394.43h2.07c1.35,0,2.19-0.05,2.52-0.17c0.33-0.11,0.6-0.31,0.79-0.59s0.28-0.62,0.28-1.04c0-0.47-0.13-0.84-0.38-1.13
				s-0.6-0.47-1.06-0.55c-0.23-0.03-0.91-0.05-2.05-0.05h-2.19v3.53H441.54z M425.78,402.46v-13.9h10.3v2.35h-7.5v3.08h6.98v2.34
				h-6.98v3.78h7.76v2.34h-10.56V402.46z M412.11,397.94l2.73-0.27c0.16,0.92,0.5,1.59,1,2.02s1.18,0.64,2.03,0.64
				c0.9,0,1.59-0.19,2.04-0.58c0.46-0.38,0.69-0.83,0.69-1.34c0-0.33-0.1-0.61-0.29-0.84s-0.53-0.43-1.01-0.6
				c-0.33-0.12-1.08-0.32-2.25-0.61c-1.5-0.37-2.56-0.83-3.16-1.38c-0.85-0.76-1.28-1.7-1.28-2.8c0-0.71,0.2-1.37,0.6-1.99
				c0.4-0.61,0.98-1.08,1.73-1.41c0.76-0.32,1.67-0.48,2.73-0.48c1.75,0,3.06,0.38,3.94,1.15s1.34,1.79,1.39,3.06l-2.81,0.12
				c-0.12-0.72-0.38-1.23-0.77-1.54c-0.39-0.31-0.99-0.47-1.78-0.47c-0.82,0-1.46,0.17-1.92,0.5c-0.3,0.21-0.45,0.5-0.45,0.86
				c0,0.33,0.14,0.61,0.42,0.84c0.35,0.3,1.21,0.61,2.58,0.93s2.38,0.66,3.03,1c0.65,0.35,1.16,0.82,1.54,1.41
				c0.37,0.6,0.55,1.34,0.55,2.21c0,0.8-0.22,1.54-0.66,2.24c-0.44,0.7-1.07,1.21-1.88,1.55s-1.82,0.51-3.03,0.51
				c-1.76,0-3.11-0.4-4.05-1.22C412.86,400.67,412.29,399.49,412.11,397.94L412.11,397.94z M393.43,402.46v-13.9h2.73l5.69,9.28
				v-9.28h2.61v13.9h-2.82l-5.6-9.06v9.06H393.43L393.43,402.46z M377.74,395.59c0-1.42,0.21-2.6,0.63-3.57
				c0.32-0.71,0.75-1.34,1.29-1.91c0.55-0.56,1.15-0.98,1.8-1.25c0.87-0.37,1.86-0.55,3-0.55c2.05,0,3.69,0.63,4.92,1.91
				c1.23,1.27,1.84,3.04,1.84,5.3c0,2.25-0.61,4-1.83,5.27s-2.85,1.9-4.89,1.9c-2.07,0-3.71-0.63-4.93-1.89
				C378.34,399.54,377.74,397.8,377.74,395.59L377.74,395.59z M380.63,395.5c0,1.57,0.37,2.77,1.09,3.58
				c0.73,0.81,1.65,1.22,2.77,1.22s2.04-0.4,2.75-1.21c0.72-0.81,1.07-2.01,1.07-3.62c0-1.59-0.35-2.78-1.05-3.57
				c-0.7-0.78-1.63-1.17-2.78-1.17c-1.16,0-2.09,0.4-2.8,1.19C380.98,392.7,380.63,393.9,380.63,395.5L380.63,395.5z M372.82,402.46
				v-13.9h2.81v13.9H372.82L372.82,402.46z M364.18,402.46v-11.55h-4.12v-2.35h11.04v2.35h-4.11v11.55H364.18L364.18,402.46z
				 M359.56,402.46h-3.05l-1.21-3.16h-5.56l-1.15,3.16h-2.98l5.41-13.9h2.97L359.56,402.46L359.56,402.46z M354.39,396.96
				l-1.92-5.16l-1.88,5.16H354.39L354.39,396.96z M341.9,397.35l2.72,0.86c-0.42,1.52-1.11,2.64-2.08,3.38
				c-0.97,0.73-2.2,1.1-3.69,1.1c-1.84,0-3.36-0.63-4.55-1.89s-1.78-2.99-1.78-5.17c0-2.31,0.6-4.11,1.79-5.39
				c1.19-1.28,2.76-1.92,4.71-1.92c1.7,0,3.08,0.5,4.14,1.51c0.63,0.59,1.11,1.45,1.42,2.56l-2.78,0.66
				c-0.16-0.72-0.5-1.29-1.03-1.71c-0.52-0.42-1.16-0.62-1.9-0.62c-1.03,0-1.87,0.37-2.51,1.11s-0.96,1.94-0.96,3.59
				c0,1.76,0.31,3.01,0.95,3.75c0.63,0.75,1.45,1.12,2.46,1.12c0.75,0,1.39-0.24,1.93-0.71
				C341.28,399.11,341.66,398.36,341.9,397.35L341.9,397.35z M318.97,388.56h2.81v7.53c0,1.19,0.04,1.97,0.1,2.32
				c0.12,0.57,0.41,1.03,0.86,1.37c0.45,0.35,1.07,0.52,1.85,0.52c0.8,0,1.4-0.16,1.8-0.49c0.4-0.32,0.65-0.72,0.73-1.2
				c0.08-0.48,0.12-1.26,0.12-2.36v-7.69h2.81v7.3c0,1.67-0.07,2.85-0.23,3.54s-0.43,1.27-0.84,1.74s-0.95,0.85-1.63,1.13
				s-1.58,0.42-2.68,0.42c-1.33,0-2.33-0.15-3.02-0.46s-1.23-0.71-1.62-1.19c-0.4-0.49-0.66-1-0.79-1.54
				c-0.18-0.8-0.27-1.97-0.27-3.53V388.56L318.97,388.56z M304.95,388.56h5.13c1.16,0,2.04,0.09,2.64,0.27
				c0.82,0.24,1.51,0.67,2.09,1.28s1.03,1.36,1.33,2.25s0.45,1.98,0.45,3.29c0,1.14-0.14,2.13-0.43,2.96
				c-0.35,1.01-0.84,1.83-1.49,2.45c-0.49,0.48-1.14,0.84-1.97,1.11c-0.62,0.2-1.45,0.29-2.49,0.29h-5.28v-13.9H304.95z
				 M307.76,390.91v9.2h2.09c0.78,0,1.35-0.04,1.7-0.13c0.45-0.11,0.83-0.3,1.13-0.58c0.3-0.27,0.54-0.72,0.73-1.34
				s0.28-1.47,0.28-2.55c0-1.07-0.1-1.9-0.28-2.47c-0.19-0.58-0.46-1.03-0.8-1.35s-0.78-0.54-1.3-0.65
				c-0.39-0.09-1.16-0.13-2.3-0.13L307.76,390.91L307.76,390.91z M292.01,402.46v-13.9h10.3v2.35h-7.5v3.08h6.98v2.34h-6.98v3.78
				h7.76v2.34h-10.56V402.46z M272.6,402.46v-13.9h5.91c1.49,0,2.56,0.13,3.24,0.38c0.67,0.25,1.21,0.69,1.62,1.33
				c0.4,0.64,0.6,1.37,0.6,2.19c0,1.04-0.31,1.91-0.92,2.59c-0.61,0.68-1.53,1.11-2.75,1.28c0.61,0.36,1.11,0.74,1.5,1.17
				c0.39,0.42,0.93,1.17,1.6,2.26l1.7,2.71h-3.36l-2.03-3.03c-0.72-1.08-1.21-1.76-1.48-2.04c-0.27-0.28-0.55-0.47-0.84-0.58
				c-0.3-0.1-0.77-0.16-1.41-0.16h-0.57v5.8H272.6L272.6,402.46z M275.41,394.43h2.07c1.35,0,2.19-0.05,2.52-0.17
				c0.33-0.11,0.6-0.31,0.79-0.59s0.28-0.62,0.28-1.04c0-0.47-0.13-0.84-0.38-1.13s-0.6-0.47-1.06-0.55
				c-0.23-0.03-0.91-0.05-2.05-0.05h-2.19v3.53H275.41z M256.92,395.59c0-1.42,0.21-2.6,0.63-3.57c0.32-0.71,0.75-1.34,1.29-1.91
				c0.55-0.56,1.15-0.98,1.8-1.25c0.87-0.37,1.86-0.55,3-0.55c2.05,0,3.69,0.63,4.92,1.91c1.23,1.27,1.84,3.04,1.84,5.3
				c0,2.25-0.61,4-1.83,5.27s-2.85,1.9-4.89,1.9c-2.07,0-3.71-0.63-4.93-1.89C257.53,399.54,256.92,397.8,256.92,395.59
				L256.92,395.59z M259.81,395.5c0,1.57,0.37,2.77,1.09,3.58c0.73,0.81,1.65,1.22,2.77,1.22s2.04-0.4,2.75-1.21
				c0.72-0.81,1.07-2.01,1.07-3.62c0-1.59-0.35-2.78-1.05-3.57c-0.7-0.78-1.63-1.17-2.78-1.17c-1.16,0-2.09,0.4-2.8,1.19
				C260.17,392.7,259.81,393.9,259.81,395.5L259.81,395.5z M245.65,402.46v-13.9h9.53v2.35h-6.72v3.29h5.8v2.35h-5.8v5.91
				L245.65,402.46L245.65,402.46z M230.93,402.46v-5.85l-5.09-8.05h3.29l3.27,5.5l3.2-5.5h3.23l-5.11,8.07v5.83H230.93
				L230.93,402.46z M213.29,402.46v-13.9h2.73l5.69,9.28v-9.28h2.61v13.9h-2.82l-5.6-9.06v9.06H213.29L213.29,402.46z
				 M211.78,402.46h-3.05l-1.21-3.16h-5.56l-1.15,3.16h-2.98l5.41-13.9h2.97L211.78,402.46L211.78,402.46z M206.61,396.96
				l-1.92-5.16l-1.88,5.16H206.61L206.61,396.96z M186.83,402.46v-13.9h4.5c1.71,0,2.82,0.07,3.34,0.21c0.8,0.21,1.47,0.66,2,1.36
				c0.54,0.7,0.81,1.6,0.81,2.71c0,0.85-0.16,1.57-0.47,2.15s-0.7,1.04-1.18,1.37s-0.96,0.55-1.45,0.66
				c-0.67,0.13-1.64,0.2-2.91,0.2h-1.83v5.24L186.83,402.46L186.83,402.46z M189.64,390.91v3.94h1.53c1.11,0,1.85-0.07,2.22-0.22
				s0.66-0.37,0.88-0.68c0.21-0.31,0.32-0.67,0.32-1.08c0-0.5-0.15-0.92-0.45-1.25c-0.29-0.33-0.67-0.53-1.13-0.61
				c-0.34-0.06-1.01-0.09-2.02-0.09h-1.35V390.91z M170.62,402.46v-13.9h4.2l2.52,9.48l2.49-9.48h4.21v13.9h-2.6v-10.94l-2.76,10.94
				h-2.7l-2.75-10.94v10.94H170.62L170.62,402.46z M154.99,395.59c0-1.42,0.21-2.6,0.63-3.57c0.32-0.71,0.75-1.34,1.29-1.91
				c0.55-0.56,1.15-0.98,1.8-1.25c0.87-0.37,1.86-0.55,3-0.55c2.05,0,3.69,0.63,4.92,1.91c1.23,1.27,1.84,3.04,1.84,5.3
				c0,2.25-0.61,4-1.83,5.27s-2.85,1.9-4.89,1.9c-2.07,0-3.71-0.63-4.93-1.89C155.6,399.54,154.99,397.8,154.99,395.59
				L154.99,395.59z M157.88,395.5c0,1.57,0.37,2.77,1.09,3.58c0.73,0.81,1.65,1.22,2.77,1.22c1.12,0,2.04-0.4,2.75-1.21
				c0.72-0.81,1.07-2.01,1.07-3.62c0-1.59-0.35-2.78-1.05-3.57c-0.7-0.78-1.63-1.17-2.78-1.17c-1.16,0-2.09,0.4-2.8,1.19
				C158.23,392.7,157.88,393.9,157.88,395.5L157.88,395.5z M150.43,397.35l2.72,0.86c-0.42,1.52-1.11,2.64-2.08,3.38
				c-0.97,0.73-2.2,1.1-3.69,1.1c-1.84,0-3.36-0.63-4.55-1.89s-1.78-2.99-1.78-5.17c0-2.31,0.6-4.11,1.79-5.39
				c1.19-1.28,2.76-1.92,4.71-1.92c1.7,0,3.08,0.5,4.14,1.51c0.63,0.59,1.11,1.45,1.42,2.56l-2.78,0.66
				c-0.16-0.72-0.5-1.29-1.03-1.71c-0.52-0.42-1.16-0.62-1.9-0.62c-1.03,0-1.87,0.37-2.51,1.11s-0.96,1.94-0.96,3.59
				c0,1.76,0.31,3.01,0.95,3.75c0.63,0.75,1.45,1.12,2.46,1.12c0.75,0,1.39-0.24,1.93-0.71
				C149.81,399.11,150.19,398.36,150.43,397.35L150.43,397.35z M122.12,402.46v-13.9h5.91c1.49,0,2.56,0.13,3.24,0.38
				c0.67,0.25,1.21,0.69,1.62,1.33c0.4,0.64,0.6,1.37,0.6,2.19c0,1.04-0.31,1.91-0.92,2.59s-1.53,1.11-2.75,1.28
				c0.61,0.36,1.11,0.74,1.5,1.17c0.39,0.42,0.93,1.17,1.6,2.26l1.7,2.71h-3.36l-2.03-3.03c-0.72-1.08-1.21-1.76-1.48-2.04
				s-0.55-0.47-0.84-0.58c-0.3-0.1-0.77-0.16-1.41-0.16h-0.57v5.8H122.12L122.12,402.46z M124.93,394.43H127
				c1.35,0,2.19-0.05,2.52-0.17c0.33-0.11,0.6-0.31,0.79-0.59c0.19-0.28,0.28-0.62,0.28-1.04c0-0.47-0.13-0.84-0.38-1.13
				s-0.6-0.47-1.06-0.55c-0.23-0.03-0.91-0.05-2.05-0.05h-2.19v3.53H124.93z M109.17,402.46v-13.9h10.3v2.35h-7.5v3.08h6.98v2.34
				h-6.98v3.78h7.76v2.34h-10.56V402.46z M96.22,402.46v-13.9h10.3v2.35h-7.5v3.08H106v2.34h-6.98v3.78h7.76v2.34H96.22V402.46z
				 M79.86,402.46l-3.32-13.9h2.87l2.1,9.55l2.54-9.55h3.34l2.44,9.71l2.13-9.71h2.83l-3.38,13.9h-2.98l-2.77-10.39l-2.76,10.39
				H79.86L79.86,402.46z M69.16,402.46v-11.55h-4.12v-2.35h11.04v2.35h-4.11v11.55H69.16L69.16,402.46z M64.54,402.46h-3.05
				l-1.21-3.16h-5.56l-1.15,3.16h-2.98l5.41-13.9h2.97L64.54,402.46L64.54,402.46z M59.37,396.96l-1.92-5.16l-1.88,5.16H59.37
				L59.37,396.96z"/>
		</g>
	</g>
</g>
</svg>
