<?xml version="1.0" encoding="utf-8"?>
<!-- Generator: Adobe Illustrator 25.0.0, SVG Export Plug-In . SVG Version: 6.00 Build 0)  -->
<svg version="1.1" id="Layer_1" xmlns="http://www.w3.org/2000/svg" xmlns:xlink="http://www.w3.org/1999/xlink" x="0px" y="0px"
	 viewBox="0 0 546.02 508.68" style="enable-background:new 0 0 546.02 508.68;" xml:space="preserve">
<style type="text/css">
	.st0{fill:#FFFFFF;}
	.st1{fill:#106F77;}
	.st2{fill:#005773;}
	.st3{fill:none;stroke:#000000;stroke-width:0.2269;}
	.st4{fill:#C69A47;}
	.st5{fill:#DCDDDE;}
	.st6{fill-rule:evenodd;clip-rule:evenodd;fill:#153455;}
	.st7{fill-rule:evenodd;clip-rule:evenodd;fill:#10558E;}
	.st8{fill-rule:evenodd;clip-rule:evenodd;fill:#0187C5;}
	.st9{fill-rule:evenodd;clip-rule:evenodd;fill:#54ADD9;}
	.st10{fill-rule:evenodd;clip-rule:evenodd;fill:#90C9E7;}
	.st11{fill-rule:evenodd;clip-rule:evenodd;fill:#C2E2F3;}
	.st12{fill:#153455;}
	.st13{fill:#3E3B3D;}
	.st14{fill:#52AA35;}
	.st15{fill:#191C35;}
	.st16{fill:#F1851A;}
	.st17{fill:#326DB3;}
	.st18{fill:#0E70A0;}
	.st19{fill:#BF9F5E;}
	.st20{fill:#C9AA71;}
	.st21{fill:#CAB36A;}
	.st22{clip-path:url(#SVGID_2_);fill:#DBC47B;}
	.st23{fill:#DABC7E;}
	.st24{fill:#D3B86F;}
	.st25{fill:#CAAB62;}
	.st26{fill:#EDCC87;}
	.st27{fill:#DDC37A;}
	.st28{clip-path:url(#SVGID_4_);fill:#C9AA63;}
	.st29{clip-path:url(#SVGID_6_);fill:#C9AA72;}
	.st30{clip-path:url(#SVGID_8_);fill:#C9AA72;}
	.st31{clip-path:url(#SVGID_10_);fill:#DEC07F;}
	.st32{clip-path:url(#SVGID_12_);fill:#D8BF76;}
	.st33{clip-path:url(#SVGID_14_);fill:#9B8047;}
	.st34{clip-path:url(#SVGID_16_);fill:#94763B;}
	.st35{clip-path:url(#SVGID_18_);fill:#93783E;}
	.st36{clip-path:url(#SVGID_20_);fill:#B29252;}
	.st37{clip-path:url(#SVGID_22_);fill:#B59961;}
	.st38{clip-path:url(#SVGID_24_);fill:#DABC7E;}
	.st39{clip-path:url(#SVGID_26_);fill:#B29252;}
	.st40{fill:#93783E;}
	.st41{fill:#A88143;}
	.st42{fill:#796937;}
	.st43{fill:#BC9B5B;}
	.st44{clip-path:url(#SVGID_28_);fill:#BC9B5B;}
	.st45{clip-path:url(#SVGID_30_);fill:#9B8047;}
	.st46{fill:#CBAD65;}
	.st47{clip-path:url(#SVGID_32_);fill:#CAAB62;}
	.st48{clip-path:url(#SVGID_34_);fill:#DABC7E;}
	.st49{clip-path:url(#SVGID_36_);fill:#DABC7E;}
	.st50{clip-path:url(#SVGID_38_);fill:#DABC7E;}
	.st51{clip-path:url(#SVGID_40_);fill:#BD9D67;}
	.st52{clip-path:url(#SVGID_42_);fill:#867135;}
	.st53{clip-path:url(#SVGID_44_);fill:#DABC7E;}
	.st54{clip-path:url(#SVGID_46_);fill:#9B8047;}
	.st55{clip-path:url(#SVGID_48_);fill:#B29252;}
	.st56{clip-path:url(#SVGID_50_);fill:#B29252;}
	.st57{clip-path:url(#SVGID_52_);fill:#867135;}
	.st58{clip-path:url(#SVGID_54_);fill:#CAAB62;}
	.st59{clip-path:url(#SVGID_56_);fill:#BD9D67;}
	.st60{clip-path:url(#SVGID_58_);fill:#D3B86F;}
	.st61{clip-path:url(#SVGID_60_);fill:#B29252;}
	.st62{clip-path:url(#SVGID_62_);fill:#C09650;}
	.st63{fill:#C9AA72;}
	.st64{fill:#867135;}
	.st65{fill:#8D6C54;}
	.st66{fill:#7D6233;}
	.st67{fill:#4F3E29;}
	.st68{fill:#3E301E;}
	.st69{fill:#735832;}
	.st70{fill-rule:evenodd;clip-rule:evenodd;fill:#1D7890;}
	.st71{fill:#1D7890;}
	.st72{fill-rule:evenodd;clip-rule:evenodd;fill:url(#SVGID_63_);}
	.st73{fill-rule:evenodd;clip-rule:evenodd;fill:url(#SVGID_64_);}
	.st74{fill-rule:evenodd;clip-rule:evenodd;fill:url(#SVGID_65_);}
	.st75{fill:url(#SVGID_66_);}
	.st76{display:none;fill:none;}
	.st77{fill:url(#SVGID_67_);}
	.st78{fill:url(#SVGID_68_);}
	.st79{display:none;fill:url(#SVGID_69_);}
	.st80{fill:url(#SVGID_70_);}
	.st81{fill:url(#SVGID_71_);}
	.st82{fill:none;}
	.st83{fill:url(#SVGID_72_);}
	.st84{fill:url(#SVGID_73_);}
	.st85{fill:url(#SVGID_74_);}
	.st86{fill:url(#SVGID_75_);}
	.st87{fill:url(#SVGID_76_);}
	.st88{fill:url(#SVGID_77_);}
	.st89{fill:url(#SVGID_78_);}
	.st90{fill:url(#SVGID_79_);}
	.st91{fill:#047180;}
	.st92{fill:url(#SVGID_80_);}
	.st93{fill:#0E518C;}
	.st94{fill:url(#SVGID_81_);}
	.st95{fill:url(#SVGID_82_);}
	.st96{fill:url(#SVGID_83_);}
	.st97{fill:url(#SVGID_84_);}
	.st98{fill:url(#SVGID_85_);}
	.st99{fill:url(#SVGID_86_);}
	.st100{fill:url(#SVGID_87_);}
	.st101{fill:url(#SVGID_88_);}
	.st102{fill:url(#SVGID_89_);}
	.st103{fill:url(#SVGID_90_);}
	.st104{fill:url(#SVGID_91_);}
	.st105{fill:url(#SVGID_92_);}
	.st106{fill:url(#SVGID_93_);}
	.st107{fill:url(#SVGID_94_);}
	.st108{fill:url(#SVGID_95_);}
	.st109{fill:url(#SVGID_96_);}
	.st110{fill:url(#SVGID_97_);}
	.st111{fill:url(#SVGID_98_);}
	.st112{fill:url(#SVGID_99_);}
	.st113{fill:url(#SVGID_100_);}
	.st114{fill:url(#SVGID_101_);}
	.st115{fill:url(#SVGID_102_);}
	.st116{fill:url(#SVGID_103_);}
	.st117{fill:#31578B;}
	.st118{fill:url(#SVGID_104_);}
	.st119{fill:url(#SVGID_105_);}
	.st120{fill:url(#SVGID_106_);}
	.st121{display:none;fill:url(#SVGID_107_);}
	.st122{fill:url(#SVGID_108_);}
	.st123{fill:url(#SVGID_109_);}
	.st124{fill:url(#SVGID_110_);}
	.st125{fill:url(#SVGID_111_);}
	.st126{fill:url(#SVGID_112_);}
	.st127{fill:url(#SVGID_113_);}
	.st128{fill:url(#SVGID_114_);}
	.st129{fill:url(#SVGID_115_);}
	.st130{fill:url(#SVGID_116_);}
	.st131{fill:url(#SVGID_117_);}
	.st132{fill:#015D84;}
	.st133{fill:url(#SVGID_118_);}
	.st134{fill:url(#SVGID_119_);}
	.st135{fill:url(#SVGID_120_);}
	.st136{fill:url(#SVGID_121_);}
	.st137{fill:url(#SVGID_122_);}
	.st138{fill:url(#SVGID_123_);}
	.st139{fill:url(#SVGID_124_);}
	.st140{fill:#005A85;}
	.st141{fill:url(#SVGID_125_);}
	.st142{fill:url(#SVGID_126_);}
	.st143{fill:url(#SVGID_127_);}
	.st144{fill:url(#SVGID_128_);}
	.st145{fill:url(#SVGID_129_);}
	.st146{fill:url(#SVGID_130_);}
	.st147{fill:url(#SVGID_131_);}
	.st148{fill:url(#SVGID_132_);}
	.st149{fill:url(#SVGID_133_);}
	.st150{fill:url(#SVGID_134_);}
	.st151{fill:url(#SVGID_135_);}
	.st152{fill:url(#SVGID_136_);}
	.st153{fill:url(#SVGID_137_);}
	.st154{fill:url(#SVGID_138_);}
	.st155{fill:url(#SVGID_139_);}
	.st156{fill:url(#SVGID_140_);}
	.st157{fill:url(#SVGID_141_);}
	.st158{fill:url(#SVGID_142_);}
	.st159{fill:url(#SVGID_143_);}
	.st160{fill:url(#SVGID_144_);}
	.st161{fill:url(#SVGID_145_);}
	.st162{fill:url(#SVGID_146_);}
	.st163{fill:url(#SVGID_147_);}
	.st164{fill:url(#SVGID_148_);}
	.st165{fill:url(#SVGID_149_);}
	.st166{fill:url(#SVGID_150_);}
	.st167{fill:url(#SVGID_151_);}
	.st168{fill:url(#SVGID_152_);}
	.st169{fill:url(#SVGID_153_);}
	.st170{fill:url(#SVGID_154_);}
	.st171{fill:url(#SVGID_155_);}
	.st172{fill:url(#SVGID_156_);}
	.st173{fill:url(#SVGID_157_);}
	.st174{fill:url(#SVGID_158_);}
	.st175{fill:url(#SVGID_159_);}
	.st176{fill:url(#SVGID_160_);}
	.st177{fill:url(#SVGID_161_);}
	.st178{fill:url(#SVGID_162_);}
	.st179{fill:url(#SVGID_163_);}
	.st180{fill:url(#SVGID_164_);}
	.st181{fill:url(#SVGID_165_);}
	.st182{fill:url(#SVGID_166_);}
	.st183{fill:url(#SVGID_167_);}
	.st184{fill:url(#SVGID_168_);}
	.st185{fill:url(#SVGID_169_);}
	.st186{fill:url(#SVGID_170_);}
	.st187{fill:url(#SVGID_171_);}
	.st188{fill:url(#SVGID_172_);}
	.st189{fill:url(#SVGID_173_);}
	.st190{fill:url(#SVGID_174_);}
	.st191{fill:url(#SVGID_175_);}
	.st192{fill:url(#SVGID_176_);}
	.st193{fill:url(#SVGID_177_);}
	.st194{fill:url(#SVGID_178_);}
	.st195{fill:url(#SVGID_179_);}
	.st196{fill:url(#SVGID_180_);}
	.st197{fill:url(#SVGID_181_);}
	.st198{fill:url(#SVGID_182_);}
	.st199{fill:url(#SVGID_183_);}
	.st200{fill:url(#SVGID_184_);}
	.st201{fill:url(#SVGID_185_);}
	.st202{fill:url(#SVGID_186_);}
	.st203{fill:url(#SVGID_187_);}
	.st204{fill:url(#SVGID_188_);}
	.st205{fill:url(#SVGID_189_);}
	.st206{fill:url(#SVGID_190_);}
	.st207{fill:url(#SVGID_191_);}
	.st208{fill:url(#SVGID_192_);}
	.st209{fill:url(#SVGID_193_);}
	.st210{fill:url(#SVGID_194_);}
	.st211{fill:url(#SVGID_195_);}
	.st212{fill:url(#SVGID_196_);}
	.st213{fill:url(#SVGID_197_);}
	.st214{fill:url(#SVGID_198_);}
	.st215{fill:url(#SVGID_199_);}
	.st216{fill:#007580;}
	.st217{fill:#98989A;}
	.st218{fill-rule:evenodd;clip-rule:evenodd;fill:#3A3636;}
	.st219{fill-rule:evenodd;clip-rule:evenodd;fill:#E18750;}
	.st220{fill:#111D4E;}
	.st221{fill:#FBD42C;}
	.st222{fill:#808184;}
	.st223{fill-rule:evenodd;clip-rule:evenodd;}
	.st224{clip-path:url(#SVGID_201_);}
	.st225{clip-path:url(#SVGID_203_);}
	.st226{clip-path:url(#SVGID_205_);}
	.st227{clip-path:url(#SVGID_207_);}
	.st228{clip-path:url(#SVGID_209_);}
	.st229{clip-path:url(#SVGID_211_);}
	.st230{clip-path:url(#SVGID_213_);}
	.st231{clip-path:url(#SVGID_215_);}
	.st232{clip-path:url(#SVGID_217_);}
	.st233{clip-path:url(#SVGID_219_);}
	.st234{clip-path:url(#SVGID_221_);}
	.st235{clip-path:url(#SVGID_223_);}
	.st236{clip-path:url(#SVGID_225_);}
	.st237{clip-path:url(#SVGID_227_);}
	.st238{clip-path:url(#SVGID_229_);}
	.st239{clip-path:url(#SVGID_231_);}
	.st240{display:none;}
	.st241{fill-rule:evenodd;clip-rule:evenodd;fill:#C6C6C6;}
	.st242{fill-rule:evenodd;clip-rule:evenodd;fill:url(#SVGID_232_);}
	.st243{fill-rule:evenodd;clip-rule:evenodd;fill:#722582;}
	.st244{fill:#00539F;}
	.st245{fill:#ED1C24;}
	.st246{fill:#009D8E;}
</style>
<g id="XMLID_9185_">
	<g id="XMLID_11996_">
		<path id="XMLID_12103_" class="st246" d="M519.48,207.8c-1.69,1.7-3.94,2.7-6.25,2.64c-2.31,0.07-4.56-0.93-6.25-2.64
			c-1.62-1.63-2.62-3.89-2.56-6.22c-0.07-4.59,4.18-8.99,8.88-8.92c2.25,0,4.56,0.93,6.18,2.57c1.69,1.7,2.62,4.03,2.56,6.35
			C522.11,203.9,521.1,206.16,519.48,207.8z"/>
		<path id="XMLID_12102_" class="st246" d="M447.21,214c-3.32-1.79-4.58-5.96-2.8-9.31l0,0c1.73-3.3,5.88-4.55,9.22-2.76l0,0
			c3.34,1.79,4.59,5.97,2.8,9.31l0,0c-0.29,0.58-0.72,1.11-1.16,1.55l0,0C453.14,214.92,449.91,215.46,447.21,214z"/>
		<path id="XMLID_12101_" class="st246" d="M477.35,208.26c-3.68-2.87-4.34-8.18-1.55-11.82l0.06-0.06
			c2.86-3.58,8.08-4.29,11.77-1.43l0,0c3.68,2.86,4.34,8.17,1.49,11.88l0,0l0,0l0,0c-0.18,0.3-0.41,0.53-0.66,0.78l0,0
			C485.49,210.59,480.73,210.94,477.35,208.26z"/>
		<path id="XMLID_12100_" class="st246" d="M425.31,222.69c-0.9,0.91-2.08,1.41-3.35,1.41c-1.28,0-2.48-0.53-3.35-1.41
			c-0.87-0.88-1.41-2.09-1.38-3.34c0-2.56,2.21-4.78,4.69-4.78c1.27,0,2.51,0.51,3.38,1.38c0.9,0.91,1.4,2.16,1.38,3.4
			C426.71,220.59,426.17,221.81,425.31,222.69z"/>
		<path id="XMLID_12099_" class="st246" d="M205.07,208.53c1.69-1.7,2.69-3.96,2.62-6.28c0.07-2.32-0.93-4.58-2.62-6.28
			c-1.62-1.63-3.88-2.64-6.18-2.57c-4.56-0.07-8.94,4.2-8.88,8.92c0,2.26,0.93,4.58,2.56,6.22c1.69,1.7,4,2.64,6.32,2.57
			C201.19,211.18,203.45,210.16,205.07,208.53z"/>
		<path id="XMLID_12098_" class="st246" d="M266.53,213.58L266.53,213.58c-0.43,0.43-0.97,0.88-1.55,1.16l0,0
			c-3.32,1.8-7.48,0.53-9.26-2.81l0,0c-1.78-3.35-0.53-7.52,2.75-9.26l0,0c3.34-1.79,7.48-0.53,9.26,2.81
			C269.19,208.2,268.66,211.44,266.53,213.58z"/>
		<path id="XMLID_12097_" class="st246" d="M236.59,208.33L236.59,208.33c-0.23,0.24-0.48,0.48-0.77,0.66l0,0l0,0l0,0
			c-3.68,2.86-8.97,2.2-11.82-1.5l0,0c-2.85-3.7-2.14-8.95,1.42-11.82l0.06-0.06c3.63-2.8,8.92-2.15,11.77,1.55
			C239.91,200.58,239.55,205.35,236.59,208.33z"/>
		<path id="XMLID_12096_" class="st246" d="M424.47,191.26c-3.47-1.55-5.02-5.63-3.53-9.06l0,0c1.49-3.45,5.5-5.04,8.97-3.59l0,0
			c3.48,1.56,5.02,5.63,3.53,9.07l0,0l0,0l0,0c-0.33,0.82-0.82,1.5-1.45,2.14l0,0C430.11,191.7,427.13,192.38,424.47,191.26z"/>
		<path id="XMLID_12095_" class="st246" d="M518.81,145.51c-2.14,2.15-5.06,3.34-7.97,3.26c-2.92,0.08-5.77-1.19-7.82-3.26
			c-2.14-2.15-3.39-5-3.31-7.93c-0.08-5.79,5.29-11.19,11.13-11.19c2.91-0.08,5.84,1.1,7.97,3.25c2.05,2.06,3.22,4.99,3.24,8.02
			C522.05,140.51,520.86,143.45,518.81,145.51z"/>
		<path id="XMLID_12094_" class="st246" d="M377.56,183.02c-3.04-0.72-4.92-3.81-4.19-6.86l0,0c0.72-3.05,3.71-4.94,6.79-4.26l0,0
			c2.99,0.76,4.9,3.81,4.19,6.86l0,0c-0.24,1.05-0.8,2.01-1.48,2.69l0,0C381.5,182.82,379.51,183.46,377.56,183.02z"/>
		<path id="XMLID_12093_" class="st246" d="M400.96,169.41c-3.49-1.23-5.28-5.12-4.01-8.58l0,0c1.28-3.46,5.15-5.26,8.58-3.98l0,0
			c3.4,1.23,5.24,5.07,3.97,8.54l0,0c0,0,0,0,0.04,0.04l0,0c-0.38,0.95-0.9,1.76-1.56,2.41l0,0
			C406.2,169.64,403.47,170.31,400.96,169.41z"/>
		<path id="XMLID_12092_" class="st246" d="M425.1,160.65c-4.29-2.09-6.02-7.39-3.87-11.65l0,0c2.21-4.31,7.36-6.04,11.72-3.88l0,0
			c4.24,2.16,5.96,7.46,3.8,11.72l0,0c-0.49,0.86-0.98,1.6-1.6,2.21l0,0C432.59,161.64,428.47,162.44,425.1,160.65z"/>
		<path id="XMLID_12091_" class="st246" d="M450.23,154.27c-4.67-3.1-5.96-9.45-2.88-14.14l0,0c3.09-4.68,9.41-5.98,14.07-2.88l0,0
			c4.66,3.25,5.89,9.52,2.8,14.2l0,0c-0.29,0.58-0.79,1.09-1.21,1.52l0,0C459.63,156.36,454.32,157.09,450.23,154.27z"/>
		<path id="XMLID_12090_" class="st246" d="M476.61,148.45c-4.24-3.68-4.74-10.1-1.08-14.36l0,0c3.59-4.33,9.99-4.84,14.29-1.22l0,0
			c4.24,3.68,4.74,10.1,1.15,14.42l0,0l0,0l0,0c-0.21,0.21-0.36,0.36-0.58,0.58l0,0C486.67,151.63,480.77,151.91,476.61,148.45z"/>
		<path id="XMLID_12089_" class="st246" d="M519.26,177.82c-1.88,1.89-4.38,2.86-7.02,2.87c-2.65,0-5.07-1.05-6.88-2.87
			c-1.88-1.88-2.91-4.33-2.91-6.98c-0.07-5.24,4.73-9.91,9.86-9.91c2.5,0,5.08,1.05,6.95,2.94c1.8,1.81,2.85,4.4,2.78,6.98
			C522.11,173.41,521.07,176,519.26,177.82z"/>
		<path id="XMLID_12088_" class="st246" d="M376.92,218.06c-2.88-0.37-4.87-3.04-4.46-5.89l0,0c0.37-2.89,3.02-4.89,5.86-4.48l0,0
			c2.84,0.4,4.86,3.04,4.46,5.88l0,0c-0.14,1.19-0.67,2.22-1.43,3l0,0C380.2,217.73,378.59,218.32,376.92,218.06z"/>
		<path id="XMLID_12087_" class="st246" d="M399.76,203.21c-3.31-0.93-5.26-4.4-4.34-7.73l0,0c0.92-3.34,4.37-5.29,7.74-4.31l0,0
			c3.31,0.93,5.26,4.4,4.34,7.74l0,0c-0.36,1.07-0.89,1.95-1.63,2.7l0,0C404.32,203.17,402.02,203.88,399.76,203.21z"/>
		<path id="XMLID_12086_" class="st246" d="M450.06,183.4c-3.83-2.45-5.04-7.51-2.67-11.4l0,0c2.37-3.78,7.41-5,11.23-2.67l0,0
			c3.88,2.38,5.09,7.45,2.72,11.34l0,0c-0.34,0.59-0.76,1.11-1.16,1.51l0,0C457.53,184.85,453.35,185.43,450.06,183.4z"/>
		<path id="XMLID_12085_" class="st246" d="M476.86,178.52c-3.76-3.15-4.31-8.73-1.26-12.57l0,0c3.14-3.77,8.7-4.34,12.45-1.19l0,0
			c3.81,3.08,4.37,8.67,1.25,12.44l0,0c0,0,0,0,0.07,0.06l0,0c-0.26,0.26-0.43,0.43-0.62,0.63l0,0
			C485.55,181.08,480.36,181.41,476.86,178.52z"/>
		<path id="XMLID_12084_" class="st246" d="M209.03,145.59c2.14-2.15,3.31-5.08,3.24-8.01c0.08-2.94-1.19-5.79-3.24-7.85
			c-2.14-2.15-4.98-3.41-7.9-3.34c-5.76-0.08-11.13,5.32-11.13,11.19c-0.08,2.94,1.1,5.87,3.24,8.02c2.05,2.06,4.97,3.25,7.97,3.25
			C204.06,148.85,206.98,147.66,209.03,145.59z"/>
		<path id="XMLID_12083_" class="st246" d="M337.27,182.25L337.27,182.25c-0.68,0.68-1.65,1.25-2.68,1.48l0,0
			c-3.04,0.72-6.07-1.2-6.83-4.21l0,0c-0.68-3.09,1.2-6.1,4.24-6.83l0,0c3.04-0.72,6.1,1.17,6.83,4.21
			C339.26,178.88,338.62,180.88,337.27,182.25z"/>
		<path id="XMLID_12082_" class="st246" d="M313.59,168.64L313.59,168.64c-0.66,0.67-1.47,1.19-2.4,1.57l0,0
			c-0.04-0.04-0.04-0.04-0.04-0.04l0,0c-3.45,1.28-7.27-0.57-8.5-3.98l0,0c-1.28-3.46,0.52-7.35,3.96-8.63l0,0
			c3.45-1.28,7.32,0.52,8.54,4.04C316.04,164.09,315.38,166.84,313.59,168.64z"/>
		<path id="XMLID_12081_" class="st246" d="M289.24,159.81L289.24,159.81c-0.61,0.61-1.36,1.11-2.2,1.6l0,0
			c-4.24,2.16-9.51,0.43-11.66-3.83l0,0c-2.15-4.37-0.42-9.55,3.87-11.78l0,0c4.23-2.16,9.51-0.43,11.59,3.88
			C292.61,153.08,291.82,157.22,289.24,159.81z"/>
		<path id="XMLID_12080_" class="st246" d="M263.5,153.74L263.5,153.74c-0.42,0.43-0.93,0.93-1.51,1.22l0,0
			c-4.66,3.1-10.91,1.88-14.13-2.81l0,0c-3.08-4.69-1.79-11.03,2.87-14.14l0,0c4.67-3.1,10.99-1.8,14.07,2.89
			C267.59,145.01,266.87,150.35,263.5,153.74z"/>
		<path id="XMLID_12079_" class="st246" d="M236.05,149.01L236.05,149.01c-0.22,0.22-0.36,0.37-0.58,0.58l0,0l0,0l0,0
			c-4.31,3.6-10.7,3.1-14.36-1.16l0,0c-3.59-4.33-3.09-10.74,1.22-14.36l0,0c4.24-3.68,10.62-3.18,14.29,1.09
			C240.07,139.35,239.79,145.27,236.05,149.01z"/>
		<path id="XMLID_12078_" class="st246" d="M206.82,178.55c1.88-1.89,2.85-4.4,2.85-7.05c0-2.66-1.05-5.1-2.85-6.92
			c-1.87-1.88-4.3-2.92-6.95-2.94c-5.2-0.07-9.86,4.75-9.86,9.91c0,2.51,1.05,5.1,2.91,6.98c1.8,1.81,4.38,2.86,6.95,2.79
			C202.44,181.41,205.02,180.36,206.82,178.55z"/>
		<path id="XMLID_12077_" class="st246" d="M338.19,217.36L338.19,217.36c-0.78,0.78-1.8,1.3-2.98,1.45l0,0
			c-2.84,0.41-5.46-1.63-5.86-4.48l0,0c-0.41-2.86,1.58-5.52,4.46-5.89l0,0c2.84-0.41,5.49,1.59,5.86,4.48
			C339.92,214.59,339.34,216.21,338.19,217.36z"/>
		<path id="XMLID_12076_" class="st246" d="M315.1,202.35L315.1,202.35c-0.76,0.76-1.63,1.29-2.69,1.65l0,0
			c-3.31,0.93-6.77-1.02-7.7-4.36l0,0c-0.98-3.38,0.97-6.85,4.29-7.77l0,0c3.31-0.93,6.77,1.02,7.7,4.35
			C317.36,198.49,316.65,200.79,315.1,202.35z"/>
		<path id="XMLID_12075_" class="st246" d="M289.78,190.49L289.78,190.49c-0.62,0.63-1.3,1.11-2.12,1.46l0,0l0,0l0,0
			c-3.42,1.5-7.48-0.04-9.03-3.55l0,0c-1.45-3.49,0.14-7.52,3.57-9.02l0,0c3.42-1.5,7.48,0.04,9.03,3.54
			C292.35,185.6,291.67,188.6,289.78,190.49z"/>
		<path id="XMLID_12074_" class="st246" d="M263.56,182.94L263.56,182.94c-0.4,0.41-0.92,0.81-1.51,1.17l0,0
			c-3.88,2.39-8.92,1.17-11.29-2.74l0,0c-2.32-3.84-1.1-8.91,2.66-11.29l0,0c3.88-2.39,8.92-1.17,11.35,2.68
			C266.8,176.08,266.22,180.27,263.56,182.94z"/>
		<path id="XMLID_12073_" class="st246" d="M235.14,178.67L235.14,178.67c-0.19,0.19-0.38,0.38-0.62,0.62l0,0
			c-0.07-0.06-0.07-0.06-0.07-0.06l0,0c-3.75,3.15-9.32,2.58-12.38-1.26l0,0c-3.12-3.77-2.57-9.36,1.19-12.51l0,0
			c3.81-3.07,9.37-2.51,12.51,1.26C238.64,170.25,238.32,175.47,235.14,178.67z"/>
		<path id="XMLID_12072_" class="st246" d="M293.5,223.42c0.9-0.91,1.4-2.09,1.41-3.37c0-1.28-0.53-2.49-1.41-3.37
			c-0.87-0.88-2.08-1.41-3.31-1.38c-2.55,0-4.76,2.22-4.76,4.71c0,1.28,0.5,2.52,1.38,3.4c0.9,0.91,2.15,1.41,3.38,1.38
			C291.41,224.83,292.62,224.3,293.5,223.42z"/>
		<path id="XMLID_12071_" class="st246" d="M359.61,198.37c-0.97,0.97-2.3,1.5-3.71,1.49c-1.41,0-2.75-0.52-3.71-1.49
			c-1-1-1.56-2.39-1.52-3.77c0-2.76,2.49-5.27,5.24-5.26c1.38-0.03,2.71,0.57,3.71,1.57c0.97,0.98,1.52,2.28,1.52,3.7
			C361.13,196.02,360.61,197.36,359.61,198.37z"/>
		<path id="XMLID_12070_" class="st246" d="M359.27,236.31c-0.88,0.88-2.12,1.39-3.38,1.36c-1.25,0.03-2.47-0.51-3.35-1.39
			c-0.91-0.91-1.46-2.14-1.42-3.39c0-2.51,2.27-4.79,4.76-4.78c1.29,0,2.5,0.48,3.41,1.39c0.88,0.88,1.39,2.15,1.39,3.43
			C360.7,234.14,360.19,235.4,359.27,236.31z"/>
		<g id="XMLID_12039_">
			<path id="XMLID_12069_" class="st246" d="M182.41,352.27c-0.99,1.17-1.11,2.68-1.27,4.59l-0.04,0.54l0.03,15.02h2.95l0.01-10.63
				h4.99v-1.92h-4.99v-0.12l0.01-2.22c0-1.06,0.1-2,0.29-2.82c0.21-0.77,0.51-1.38,0.88-1.82c0.37-0.43,0.85-0.76,1.43-0.96
				c0.44-0.14,1-0.22,1.7-0.24h0.12v0.02h1.58v-1.75h-1.69c-1.3,0-2.47,0.19-3.48,0.58C183.93,350.92,183.09,351.5,182.41,352.27z"
				/>
			<path id="XMLID_12068_" class="st246" d="M150.52,355.3h-2.96l-0.03,9.61c0,1.06-0.1,2.01-0.29,2.82
				c-0.21,0.77-0.51,1.38-0.88,1.82c-0.37,0.44-0.85,0.76-1.43,0.96c-0.37,0.12-0.85,0.19-1.45,0.22c-0.62-0.03-1.09-0.11-1.46-0.22
				c-0.59-0.2-1.07-0.52-1.43-0.96c-0.37-0.44-0.66-1.05-0.87-1.81c-0.19-0.82-0.29-1.76-0.29-2.84l-0.03-9.61h-2.95l-0.03,9.74
				l0.04,0.53c0.16,1.92,0.29,3.44,1.28,4.6c0.67,0.77,1.51,1.35,2.51,1.72c0.82,0.31,1.8,0.49,2.99,0.54h0.1v0.02h0.01
				c0.08-0.01,0.18-0.01,0.26,0h0.01v-0.02h0.1c1.18-0.04,2.16-0.22,2.99-0.54c0.14-0.06,0.28-0.13,0.41-0.21
				c0.08-0.04,0.16-0.09,0.23-0.12l0.17-0.09l-0.01,3.22c0,1.06-0.1,2.01-0.29,2.82c-0.21,0.77-0.51,1.38-0.88,1.82
				c-0.37,0.44-0.85,0.77-1.43,0.96c-0.48,0.16-1.07,0.24-1.75,0.26l0.16,1.72c1.26-0.01,2.39-0.2,3.37-0.58
				c1-0.38,1.85-0.97,2.51-1.72c0.99-1.16,1.11-2.68,1.28-4.59l0.04-0.54l-0.02-9.59l0.02-0.21L150.52,355.3z"/>
			<path id="XMLID_12067_" class="st246" d="M57.15,353.6c0.86,0,1.55-0.7,1.55-1.56v-0.51c0-0.86-0.69-1.55-1.55-1.55
				c-0.85,0-1.55,0.7-1.55,1.55v0.51C55.61,352.91,56.31,353.6,57.15,353.6z"/>
			<rect id="XMLID_12066_" x="55.61" y="355.5" class="st246" width="3.15" height="16.94"/>
			<path id="XMLID_12065_" class="st246" d="M88.64,353.6c0.86,0,1.55-0.7,1.55-1.56v-0.51c0-0.86-0.69-1.55-1.55-1.55
				c-0.86,0-1.55,0.7-1.55,1.55v0.51C87.1,352.91,87.8,353.6,88.64,353.6z"/>
			<rect id="XMLID_12064_" x="87.1" y="355.3" class="st246" width="3.15" height="17.16"/>
			<path id="XMLID_12063_" class="st246" d="M313.29,353.24c0.86,0,1.55-0.7,1.55-1.56v-0.14c0-0.86-0.69-1.55-1.55-1.55
				c-0.85,0-1.55,0.7-1.55,1.55v0.14C311.75,352.55,312.45,353.24,313.29,353.24z"/>
			<rect id="XMLID_12062_" x="311.71" y="355.3" class="st246" width="3.15" height="17.16"/>
			<path id="XMLID_12061_" class="st246" d="M242.46,366.62V355.3h-3.09l-0.03,8.97c0,3.19,1.02,4.8,1.91,5.85
				c0.67,0.76,1.51,1.35,2.51,1.72c0.86,0.32,1.85,0.51,2.96,0.56v0.02h8.9V355.3h-3.15v15.46h-5.89
				C244.3,370.76,242.46,368.9,242.46,366.62z"/>
			<path id="XMLID_12058_" class="st246" d="M219.87,357.62c-1.32,1.56-1.91,3.36-1.91,5.85v0.85c0,3.19,1.02,4.8,1.91,5.85
				c0.67,0.76,1.51,1.35,2.51,1.72c0.86,0.32,1.85,0.51,2.97,0.56h0.11v0.01h9.27v-22.47h-3.15v5.32h-6.15l-0.09,0.02
				c-1.11,0.04-2.11,0.23-2.97,0.56C221.38,356.27,220.54,356.85,219.87,357.62z M225.69,356.98h5.89v13.81h-5.89
				c-2.27,0-4.11-1.86-4.11-4.14v-5.54C221.57,358.84,223.42,356.98,225.69,356.98z"/>
			<path id="XMLID_12057_" class="st246" d="M351.63,355.88c-0.86-0.32-1.86-0.51-2.97-0.56h-0.11v-0.01h-8.92v17.16h3.15v-15.48
				h5.89c2.27,0,4.13,1.86,4.13,4.14v11.34h3.21l0.03-9c0-2.49-0.59-4.29-1.91-5.85C353.48,356.85,352.64,356.27,351.63,355.88z"/>
			<path id="XMLID_12056_" class="st246" d="M259.78,362.3v2.1c0,2.46,0.58,4.25,1.89,5.78c0.66,0.76,1.49,1.32,2.48,1.7
				c0.85,0.32,1.83,0.51,2.92,0.56h0.11v0.01h7.41v-1.65h-7.17c-2.25,0-4.07-1.83-4.07-4.09c0,0-0.12-1.91-0.12-2.96
				s0.12-2.7,0.12-2.71c0-2.25,1.82-4.08,4.07-4.08h7.17v-1.65l-7.52,0.02c-1.09,0.04-2.08,0.23-2.92,0.56
				c-0.99,0.38-1.82,0.96-2.48,1.7C260.74,358.68,259.78,360.11,259.78,362.3z"/>
			<path id="XMLID_12055_" class="st246" d="M106.99,364.5c-0.69-0.79-1.56-1.39-2.59-1.78c-0.57-0.21-1.26-0.31-1.99-0.41
				c-1.68-0.22-3.59-0.49-4.01-2.48c-0.28-1.32,0.9-2.37,2.11-2.77c0.46-0.14,1.02-0.22,1.69-0.22l3.26-0.01v-2.11
				c-0.57,0-1.15-0.03-1.75-0.06c-1.83-0.09-3.73-0.18-5.38,0.46c-1.05,0.4-1.71,0.86-2.39,1.62c-1.37,1.57-1.37,3.97,0,5.58
				c0.69,0.79,1.57,1.39,2.59,1.78c0.68,0.26,1.45,0.43,2.29,0.52l0.19,0.02c0.99,0.1,2.11,0.2,2.85,1.06
				c0.79,0.92,0.96,1.79,0.48,2.59c-1.03,1.75-2.96,1.98-4.71,1.98h-3.54v2.21c0.64,0.07,5.09-0.01,5.67-0.07
				c2.38-0.26,4.09-1.01,5.25-2.34c0.9-1.03,1.23-2.46,0.9-3.84C107.74,365.6,107.43,365,106.99,364.5z"/>
			<polygon id="XMLID_12054_" class="st246" points="36.43,367.35 27.67,349.98 23.98,349.98 23.98,372.43 27.07,372.43 
				27.07,356.36 35.25,372.43 36.91,372.43 45.12,355.84 45.73,354.69 45.73,372.43 49.05,372.43 49.05,349.98 45.42,349.98 
				36.79,367.41 36.47,367.41 			"/>
			<polygon id="XMLID_12053_" class="st246" points="203.84,361.3 211.81,361.3 211.81,359.57 203.84,359.57 203.84,351.9 
				215.76,351.9 215.76,349.99 200.7,349.99 200.7,372.43 215.76,372.43 215.76,370.79 203.84,370.79 			"/>
			<path id="XMLID_12052_" class="st246" d="M115.15,369.53c-0.37-0.43-0.66-1.05-0.87-1.81c-0.2-0.82-0.29-1.75-0.29-2.84
				l-0.02-7.37h4.99v-2.2h-4.99l-0.01-5.07h-2.95l-0.03,14.79l0.04,0.54c0.16,1.91,0.29,3.42,1.27,4.58
				c0.67,0.77,1.51,1.35,2.51,1.72c0.97,0.37,2.1,0.54,3.47,0.54h1.36v-1.65h-1.2c-0.64,0-1.27-0.1-1.85-0.3
				C116,370.29,115.51,369.97,115.15,369.53z"/>
			<path id="XMLID_12051_" class="st246" d="M123.56,362.51l-0.04,0.58l0.03,9.37h3.09l0.03-9.24c0-1.11,0.1-2.1,0.3-2.95
				c0.22-0.8,0.53-1.45,0.91-1.9c0.38-0.46,0.88-0.79,1.49-1c0.52-0.18,1.18-0.27,1.95-0.27h1.33v-1.8l-1.59,0.01
				c-1.33,0.01-2.54,0.21-3.56,0.6c-1.05,0.4-1.93,1.01-2.62,1.8C123.86,358.93,123.73,360.51,123.56,362.51z"/>
			<path id="XMLID_12048_" class="st246" d="M331.56,355.87c-0.83-0.31-1.8-0.5-2.89-0.54l-0.11-0.02h-1.75l-0.09,0.02
				c-1.09,0.04-2.06,0.23-2.89,0.54c-0.98,0.37-1.8,0.93-2.46,1.69c-0.87,1.02-1.87,2.6-1.87,5.72v1.22c0,2.44,0.58,4.19,1.87,5.72
				c0.64,0.75,1.48,1.31,2.46,1.68c0.83,0.32,1.8,0.5,2.89,0.54h1.96c1.08-0.04,2.06-0.22,2.89-0.54c0.98-0.37,1.8-0.93,2.46-1.69
				c1.29-1.52,1.87-3.28,1.87-5.72v-1.22c0-2.42-0.58-4.19-1.87-5.72C333.36,356.82,332.54,356.25,331.56,355.87z M332.5,366.82
				c-0.18,0.97-0.49,1.75-0.9,2.32c-0.76,1.05-1.98,1.68-3.27,1.68h-1.28c-3.35,0-4.07-3.45-4.23-4.94
				c-0.22-2.11-0.34-5.9,1.28-7.67c0.76-0.82,1.83-1.29,2.95-1.29h1.28c3.28,0,4.05,3.31,4.21,4.75
				C332.69,362.79,332.86,364.93,332.5,366.82z"/>
			<path id="XMLID_12045_" class="st246" d="M276.87,363.61l0.11,2.17c0.22,1.77,0.81,3.16,1.83,4.36c0.68,0.78,1.55,1.37,2.57,1.76
				c0.48,0.18,0.99,0.29,1.48,0.38c1.07,0.21,2.08,0.19,3.1,0.21c0.59,0,1.15,0.01,1.69-0.11l0.03-0.01
				c0.58-0.12,1.17-0.26,1.71-0.47c0.48-0.18,0.9-0.43,1.2-0.62l0.18-0.11v1.27h3.22v-17.16h-9.5l-0.09,0.02
				c-1.13,0.04-2.16,0.23-3.02,0.57c-1.02,0.39-1.89,0.98-2.57,1.77C277.47,359.22,276.87,361.06,276.87,363.61z M280.58,361.2
				c0-2.31,1.89-4.21,4.2-4.21h6.02v8.23l-0.03,1.35c0,2.29-2,4.23-4.37,4.23h-1.62c-2.31,0-4.2-1.89-4.2-4.23
				c0,0-0.13-1.32-0.13-2.67C280.43,362.54,280.58,361.21,280.58,361.2z"/>
			<path id="XMLID_12044_" class="st246" d="M304.76,370.49c-0.59-0.2-1.07-0.52-1.43-0.96c-0.37-0.43-0.66-1.05-0.87-1.81
				c-0.19-0.81-0.29-1.77-0.29-2.84l-0.02-7.66h4.99v-1.92h-4.99l-0.01-5.07h-2.96l-0.03,14.79l0.04,0.54
				c0.16,1.91,0.29,3.42,1.27,4.58c0.67,0.77,1.51,1.35,2.51,1.72c0.97,0.37,2.1,0.54,3.47,0.54h1.35v-1.65h-1.2
				C305.96,370.78,305.34,370.68,304.76,370.49z"/>
			<path id="XMLID_12041_" class="st246" d="M173.57,355.84c-0.83-0.32-1.81-0.5-2.9-0.54l-0.11-0.02h-1.76l-0.09,0.02
				c-1.09,0.04-2.07,0.23-2.9,0.54c-0.98,0.37-1.81,0.95-2.47,1.69c-1.3,1.52-1.88,3.29-1.88,5.74v1.22c0,2.44,0.58,4.21,1.88,5.74
				c0.66,0.75,1.48,1.31,2.47,1.69c0.83,0.32,1.81,0.5,2.9,0.54h1.96c1.09-0.04,2.06-0.23,2.9-0.54c0.98-0.38,1.81-0.95,2.47-1.69
				c1.3-1.52,1.88-3.29,1.88-5.74v-1.22c0-2.44-0.58-4.21-1.88-5.74C175.38,356.77,174.55,356.2,173.57,355.84z M174.51,366.84
				c-0.19,0.97-0.49,1.76-0.9,2.32c-0.76,1.06-1.98,1.69-3.28,1.69h-1.29c-3.36,0-4.08-3.47-4.25-4.95
				c-0.22-2.11-0.36-5.93,1.29-7.7c0.77-0.82,1.83-1.29,2.96-1.29h1.28c3.29,0,4.06,3.34,4.24,4.76
				C174.7,362.78,174.87,364.93,174.51,366.84z"/>
			<path id="XMLID_12040_" class="st246" d="M76.52,355.88c-0.86-0.32-1.85-0.51-2.96-0.56h-0.11v-0.01h-8.91v17.16h3.15v-15.48
				h5.89c2.27,0,4.11,1.86,4.11,4.14v11.34h3.21l0.03-9c0-2.49-0.59-4.29-1.91-5.85C78.38,356.85,77.52,356.27,76.52,355.88z"/>
		</g>
		<g id="XMLID_11997_">
			<g>
				<path id="XMLID_161_" class="st246" d="M259.65,288.56c1.56,0,2.84-1.28,2.84-2.85s-1.27-2.85-2.84-2.85
					c-1.56,0-2.84,1.28-2.84,2.85S258.09,288.56,259.65,288.56z"/>
				<path id="XMLID_160_" class="st246" d="M314.37,294.65l-0.04,22.87c0,1.41-0.12,2.67-0.38,3.74c-0.28,1-0.66,1.79-1.12,2.36
					c-0.46,0.56-1.07,0.96-1.8,1.21c-0.66,0.22-1.47,0.33-2.44,0.33h-0.11l0.26,2.84h0.1c1.78,0,3.38-0.27,4.76-0.8
					c1.38-0.52,2.56-1.33,3.49-2.39c1.49-1.76,2.38-4.15,2.64-7.09l-0.04-23.05h-5.3V294.65z"/>
				<rect id="XMLID_159_" x="300.44" y="282.87" class="st246" width="5.17" height="33.38"/>
				<path id="XMLID_158_" class="st246" d="M287.02,294.65L287.02,294.65l-0.04,22.87c0,1.41-0.12,2.67-0.38,3.74
					c-0.28,1.01-0.66,1.8-1.12,2.36c-0.46,0.56-1.07,0.96-1.8,1.21c-0.66,0.22-1.48,0.33-2.44,0.33h-0.11l0.26,2.84h0.1
					c1.78,0,3.38-0.27,4.77-0.8c1.38-0.52,2.56-1.33,3.49-2.39c1.49-1.76,2.38-4.15,2.64-7.09l-0.04-23.05h-5.32V294.65z"/>
				<path id="XMLID_155_" class="st246" d="M247.73,305.84v10.41h29.65v-21.6h-18.5C252.72,294.65,247.73,299.66,247.73,305.84z
					 M272.18,298.94v12.79h-19.24v-6.38c0-3.54,2.85-6.39,6.36-6.39h12.88V298.94z"/>
				<path id="XMLID_154_" class="st246" d="M189.6,288.56c1.56,0,2.84-1.28,2.84-2.85s-1.27-2.85-2.84-2.85
					c-1.56,0-2.84,1.28-2.84,2.85S188.05,288.56,189.6,288.56z"/>
				<path id="XMLID_153_" class="st246" d="M61.84,322.13c-1.56,0-2.84,1.28-2.84,2.85c0,1.57,1.27,2.85,2.84,2.85
					c1.56,0,2.84-1.28,2.84-2.85C64.68,323.41,63.41,322.13,61.84,322.13z"/>
				<path id="XMLID_152_" class="st246" d="M70.03,322.13c-1.56,0-2.84,1.28-2.84,2.85c0,1.57,1.27,2.85,2.84,2.85
					c1.56,0,2.84-1.28,2.84-2.85C72.86,323.41,71.59,322.13,70.03,322.13z"/>
				<path id="XMLID_151_" class="st246" d="M197.79,288.56c1.56,0,2.84-1.28,2.84-2.85s-1.27-2.85-2.84-2.85
					c-1.56,0-2.84,1.28-2.84,2.85S196.23,288.56,197.79,288.56z"/>
				<path id="XMLID_150_" class="st246" d="M267.83,288.56c1.57,0,2.84-1.28,2.84-2.85s-1.27-2.85-2.84-2.85
					c-1.56,0-2.84,1.28-2.84,2.85S266.28,288.56,267.83,288.56z"/>
				<path id="XMLID_149_" class="st246" d="M317.08,282.87c-1.56,0-2.84,1.28-2.84,2.85s1.27,2.85,2.84,2.85
					c1.56,0,2.84-1.28,2.84-2.85C319.91,284.15,318.64,282.87,317.08,282.87z"/>
				<path id="XMLID_146_" class="st246" d="M211.45,311.71H198.5v-17.07h-5.17v17.07h-51.76v-6.05c0-3.73,3-6.74,6.71-6.74h22.1
					v-4.28h-22.54c-6.34,0-11.48,5.16-11.48,11.53v5.53H94.54v-28.85h-5.13v28.85H74.99v-17.07h-5.17v17.07h-9.8l-0.04-5.19l0,0
					v-0.07c0-3.67-1.15-6.57-3.4-8.62c-2.01-1.92-4.86-2.99-8.5-3.18H27.56l0,0l0.07,22c0,1.41-0.12,2.67-0.38,3.74
					c-0.28,1-0.66,1.8-1.12,2.36c-0.46,0.56-1.07,0.96-1.8,1.2c-0.1,0.03-0.24,0.04-0.36,0.08v2.97c1.06-0.12,2.03-0.34,2.92-0.68
					c1.38-0.52,2.56-1.33,3.49-2.4c1.49-1.76,2.38-4.15,2.64-7.09v-0.57h183.77l0,0v-33.38h-5.34L211.45,311.71L211.45,311.71z
					 M33.32,298.94h14.99h0.39c0.23,0.03,0.42,0.07,0.62,0.11c3.09,0.58,5.35,3.28,5.35,6.45v6.23H33.01l-0.03-12.44
					C32.98,299.09,33.13,298.94,33.32,298.94z"/>
				<path id="XMLID_143_" class="st246" d="M356.06,294.65h-18.31c-6.25,0-11.31,5.09-11.31,11.36v10.24h24.25v1.28
					c0,1.41-0.12,2.67-0.38,3.74c-0.28,1-0.66,1.79-1.12,2.36c-0.46,0.56-1.07,0.96-1.8,1.21c-0.27,0.09-0.59,0.16-0.92,0.21v2.91
					c1.28-0.1,2.45-0.34,3.49-0.75c1.38-0.52,2.56-1.33,3.49-2.39c1.49-1.76,2.38-4.15,2.64-7.09L356.06,294.65z M338.18,298.94
					h12.54v0.17l-0.03,12.61h-19.04v-6.22C331.65,301.87,334.58,298.94,338.18,298.94z"/>
				<path id="XMLID_142_" class="st246" d="M224.65,282.87c-0.04,0-0.08,0.03-0.08,0.08v33.24c0,0.04,0.03,0.08,0.08,0.08h5.03
					c0.04,0,0.08-0.03,0.08-0.08v-33.24c0-0.04-0.03-0.08-0.08-0.08L224.65,282.87L224.65,282.87z"/>
			</g>
		</g>
	</g>
</g>
</svg>
